<?xml version="1.0" encoding="UTF-8"?>
<svg id="Layer_1" xmlns="http://www.w3.org/2000/svg" version="1.1" viewBox="0 0 201 62.6">
  <!-- Generator: Adobe Illustrator 29.2.1, SVG Export Plug-In . SVG Version: 2.1.0 Build 116)  -->
  <defs>
    <style>
      .st0 {
        fill: #227ab7;
      }

      .st1 {
        fill: #70c391;
      }

      .st2 {
        fill: #55308e;
      }

      .st3 {
        fill: #219365;
      }

      .st4 {
        fill: #4bbbe9;
      }

      .st5 {
        fill: #133d5b;
      }

      .st6 {
        fill: #785ba3;
      }
    </style>
  </defs>
  <g>
    <path class="st5" d="M30.4,51.3H8.8l-4.8,10.6H0L19.7,19l19.6,42.9h-4.3l-4.7-10.6ZM29,48.1l-9.3-21-9.4,21h18.7Z"/>
    <path class="st5" d="M47.4,61.8h-3.5v-27.4h3.5v5.4c2-3.5,5.3-5.9,9.5-5.9s7.5,2.5,8.9,6.3c2-3.8,5.6-6.3,10.2-6.3,6.7,0,10.2,5.2,10.2,12.2v15.8h-3.5v-15.2c0-6.2-2.5-9.4-7.3-9.4s-8.6,4.5-8.6,10.2v14.3h-3.5v-15.2c0-6.2-2.5-9.4-7.3-9.4s-8.6,4.7-8.6,10.8v13.8Z"/>
    <path class="st5" d="M92.7,26.1c0-1.4,1.1-2.5,2.4-2.5s2.5,1.1,2.5,2.5-1.1,2.4-2.5,2.4-2.4-1.1-2.4-2.4ZM93.3,34.4h3.5v27.4h-3.5v-27.4Z"/>
    <path class="st5" d="M115.6,62.6l-13.9-28.2h4.1l9.9,20.9,9.8-20.9h3.8l-13.7,28.2Z"/>
    <path class="st5" d="M133.3,26.1c0-1.4,1.1-2.5,2.4-2.5s2.5,1.1,2.5,2.5-1.1,2.4-2.5,2.4-2.4-1.1-2.4-2.4ZM134,34.4h3.5v27.4h-3.5v-27.4Z"/>
    <path class="st5" d="M169.4,49.5h-22.8c.5,5.7,4.8,9.5,10.9,9.5s7.2-1.1,10.1-3.3v3.4c-2.9,2.1-6.4,3.1-10.1,3.1-8.6,0-14.6-5.7-14.6-14s5.2-14.4,13.5-14.4,13.1,5.9,13.1,13.9,0,1.1-.1,1.7ZM146.7,46.6h19.1c-.4-5.4-3.8-9.4-9.3-9.4s-9.2,4-9.8,9.4Z"/>
  </g>
  <g>
    <path class="st1" d="M169.5,31.3l7-8.3c.8-1,2-1.5,3.2-1.5h6.4s-7.1,8.4-7.1,8.4c-.7.9-1.8,1.4-2.9,1.4h-6.6Z"/>
    <path class="st3" d="M189.4,23c-.8-1-2-1.5-3.2-1.5h-6.5c-.6,0-1.2.1-1.8.4.1,0,1.8-.4,3.4,1.4l1.7,2,4,4.7c.7.9,1.8,1.4,2.9,1.4h6.6l-7-8.3Z"/>
    <path class="st3" d="M183,28.4l-2.6,3.2c-1.1,1.3-1,3.3.2,4.5h0c1.3,1.3,3.5,1.3,4.8,0h0c1.2-1.2,1.3-3.2.2-4.5l-2.6-3.2Z"/>
  </g>
  <g>
    <path class="st4" d="M201,23.4l-10.7-1.9c-1.2-.2-2.3-1-2.9-2.1l-3.2-5.6,10.9,2c1.1.2,2.1.9,2.6,1.9l3.3,5.7Z"/>
    <path class="st0" d="M183.8,10.2c-.4,1.2-.3,2.5.3,3.6h0c0,0,2.2,3.8,2.2,3.8l1,1.8h0c.3.6.7,1.1,1.2,1.4,0-.1-1.2-1.3-.5-3.6l.9-2.4,2.1-5.8c.4-1.1.3-2.2-.3-3.2L187.5,0l-3.7,10.2Z"/>
    <path class="st0" d="M191.8,13.1l4.1.7c1.7.3,3.4-.8,3.8-2.5h0c.5-1.8-.6-3.7-2.4-4.1h0c-1.7-.4-3.4.4-4,2.1l-1.4,3.9Z"/>
  </g>
  <g>
    <path class="st6" d="M178.4,0l3.7,10.2c.4,1.2.3,2.5-.3,3.6l-3.2,5.6-3.8-10.4c-.4-1.1-.3-2.2.3-3.2l3.3-5.7Z"/>
    <path class="st2" d="M175.6,21.4c1.2-.2,2.3-1,2.9-2.1h0c0,0,2.2-3.8,2.2-3.8l1-1.8h0c.3-.6.5-1.2.6-1.8,0,.1-.6,1.7-2.9,2.2l-2.5.5-6,1.1c-1.1.2-2.1.9-2.6,1.9l-3.3,5.7,10.7-1.9Z"/>
    <path class="st2" d="M174.1,13.1l-1.5-3.8c-.6-1.6-2.4-2.5-4-2.1h0c-1.8.5-2.9,2.3-2.4,4.1h0c.5,1.7,2.1,2.7,3.8,2.5l4.1-.7Z"/>
  </g>
</svg>