<?xml version="1.0" encoding="UTF-8"?> <svg xmlns="http://www.w3.org/2000/svg" id="Layer_2" data-name="Layer 2" viewBox="0 0 230 53.32"><defs><style> .cls-1 { fill: #8dd1e3; } .cls-2 { fill: #53abb8; } .cls-2, .cls-3, .cls-4, .cls-5, .cls-6 { fill-rule: evenodd; } .cls-3 { fill: #24429e; } .cls-4 { fill: #ce8dbb; } .cls-5 { fill: #cdd10b; } .cls-6 { fill: #f5ad2f; } </style></defs><g id="Layer_1-2" data-name="Layer 1"><g><path class="cls-3" d="M76.61,21.63c-.21,2.57-1.18,4.57-2.88,6.02-1.76,1.41-4.06,2.12-6.92,2.12-3.33,0-5.88-1.01-7.63-3.01-1.76-1.92-2.64-4.76-2.64-8.52s.9-6.73,2.7-8.65c1.84-2.01,4.49-3.01,7.95-3.01,2.82,0,5.07,.71,6.73,2.11,1.58,1.37,2.48,3.29,2.69,5.77h-2.76c-1.02,0-1.75-.45-2.18-1.35h0c-.3-.55-.66-1.04-1.09-1.47-.85-.64-1.99-.96-3.4-.96-1.96,0-3.48,.64-4.55,1.93-1.02,1.28-1.54,3.16-1.54,5.64s.51,4.23,1.54,5.51c.98,1.32,2.46,1.99,4.43,1.99,1.37,0,2.5-.34,3.4-1.03,.81-.64,1.39-1.66,1.73-3.07h4.43Zm11.93-.95c-.6,.3-1.43,.57-2.51,.83-.98,.21-1.48,.32-1.48,.32-.77,.21-1.33,.49-1.67,.83-.3,.47-.45,.94-.45,1.41,0,.64,.19,1.15,.58,1.54,.38,.35,.94,.51,1.67,.51,1.2,0,2.14-.34,2.83-1.03s1.03-1.62,1.03-2.82v-1.6h0Zm1.02,7.87c-.9,.47-1.85,.76-2.86,.87-1.01,.1-1.89,.16-2.66,.16-1.54,0-2.89-.42-4.04-1.25-1.15-.83-1.73-2.21-1.73-4.14,0-1.8,.53-3.08,1.58-3.85,1.04-.77,2.38-1.29,4.01-1.54,.21,0,.47-.03,.77-.09,.3-.07,.64-.12,1.03-.16,1.88-.25,2.82-.81,2.82-1.66,0-.65-.33-1.06-1-1.25-.66-.19-1.27-.29-1.83-.29-.6,0-1.13,.09-1.6,.26-.47,.17-.81,.5-1.02,.98h-4.29c.17-1.33,.77-2.42,1.79-3.28,1.15-.98,2.8-1.48,4.93-1.48,2.4,0,4.19,.4,5.39,1.22,1.24,.85,1.86,2.05,1.86,3.59v5.83c0,1.71-.31,3.05-.93,4.01-.62,.96-1.36,1.65-2.21,2.08h0Zm4.87,.7v-8.28c0-1.67,.25-3.07,.74-4.2,.49-1.14,1.17-2.05,2.02-2.73,.82-.64,1.77-1.11,2.86-1.41,1.09-.3,2.21-.45,3.36-.45h.65v4.56h-1.48c-1.24,0-2.16,.3-2.76,.9-.6,.6-.9,1.54-.9,2.82v8.78h-4.5Zm23.01-5.25h3.21c-.47,1.79-1.37,3.16-2.69,4.1-1.32,.98-2.99,1.48-5,1.48-2.43,0-4.34-.79-5.71-2.37-1.37-1.54-2.06-3.74-2.06-6.6s.66-4.87,1.99-6.41c1.37-1.58,3.28-2.37,5.71-2.37,2.57,0,4.55,.77,5.96,2.3,1.37,1.58,2.05,3.77,2.05,6.59v.7c0,.21-.02,.36-.07,.45h-11.09c.04,1.33,.36,2.32,.96,2.97,.55,.69,1.39,1.03,2.5,1.03,.73,0,1.35-.15,1.86-.45,.13-.04,.25-.11,.35-.22,.11-.1,.22-.22,.36-.36,.04-.13,.2-.3,.48-.51,.28-.21,.68-.32,1.19-.32h0Zm-7.69-5.02h6.54c-.08-1.15-.38-2-.9-2.55-.55-.6-1.35-.89-2.37-.89-.94,0-1.71,.3-2.31,.89-.6,.6-.92,1.45-.96,2.55h0Zm19.51-.74c0,2.48,.54,4.36,1.6,5.64,1.07,1.32,2.59,1.99,4.55,1.99s3.44-.66,4.55-1.99c1.11-1.37,1.67-3.25,1.67-5.64s-.56-4.3-1.67-5.71c-1.11-1.32-2.63-1.99-4.55-1.99s-3.48,.66-4.55,1.99c-1.07,1.33-1.6,3.23-1.6,5.71h0Zm44.57,11.01c-1.41,.09-2.94,.07-4.58-.07-1.65-.13-2.47-1.18-2.47-3.14V7.19h2.31c.55,0,1.04,.21,1.48,.64,.43,.43,.64,.94,.64,1.54v2.88h2.63v.9c0,.64-.21,1.17-.64,1.57-.43,.41-.94,.61-1.54,.61h-.45v9.48c0,.73,.43,1.09,1.28,1.09h1.35v3.35h0Zm1.85-17.05h2.31c.6,0,1.11,.21,1.54,.64,.43,.43,.64,.94,.64,1.54v14.87h-4.5V12.2h0Zm0-5h2.31c.6,0,1.11,.21,1.54,.64,.43,.43,.64,.94,.64,1.53v1.34h-4.5v-3.51h0Zm7.88,20.52c-.9-.77-1.54-1.81-1.93-3.11-.38-1.3-.57-2.66-.57-4.07,0-1.15,.16-2.31,.48-3.46,.32-1.15,.82-2.11,1.5-2.88,1.11-1.28,2.54-2.04,4.29-2.28,1.76-.24,3.34-.1,4.75,.42,1.62,.64,2.82,1.76,3.59,3.34,.73,1.41,1.09,3.05,1.09,4.93,0,1.37-.15,2.54-.45,3.52-.3,.98-.68,1.82-1.15,2.51-1.02,1.41-2.33,2.28-3.91,2.63-1.41,.38-2.83,.42-4.26,.1-1.43-.32-2.58-.87-3.43-1.64h0Zm3.07-11.28c-.9,.98-1.3,2.45-1.21,4.39,.08,1.94,.45,3.3,1.09,4.07,.26,.34,.71,.63,1.35,.86,.64,.24,1.29,.26,1.95,.07,.66-.19,1.25-.67,1.77-1.44,.51-.77,.79-2.01,.83-3.71,0-1.54-.25-2.7-.74-3.46-.49-.77-1.06-1.26-1.7-1.48-.64-.21-1.29-.22-1.93-.03-.64,.2-1.11,.44-1.41,.74h0Zm26.79,12.82h-2.25c-.64,0-1.16-.2-1.57-.61-.41-.41-.61-.93-.61-1.58h0v-8.72c0-1.02-.31-1.77-.92-2.24-.62-.47-1.31-.71-2.08-.71s-1.44,.24-2.04,.71c-.6,.47-.9,1.22-.9,2.24v10.9h-4.5v-9.99c0-2.9,.76-4.85,2.28-5.83,1.52-.98,3.19-1.51,5.03-1.6,1.88,0,3.61,.49,5.19,1.47,1.58,.98,2.37,2.97,2.37,5.96v9.99h0Zm1.43-5.64h4.36c.04,.85,.36,1.49,.96,1.92,.65,.43,1.5,.64,2.57,.64,.77,0,1.43-.15,1.99-.45,.51-.3,.77-.71,.77-1.21,0-.77-.9-1.35-2.7-1.73-.77-.13-1.35-.26-1.73-.39-2.27-.55-3.79-1.21-4.56-1.98-.86-.77-1.29-1.79-1.29-3.07,0-1.62,.62-2.97,1.86-4.04,1.29-.98,2.95-1.47,5.01-1.47,2.23,0,4,.49,5.32,1.48,1.24,1.07,1.9,2.46,1.99,4.17h-2.76c-.81,0-1.43-.37-1.85-1.1h0c-.17-.17-.34-.34-.51-.52-.51-.39-1.22-.58-2.12-.58s-1.49,.13-1.93,.38c-.38,.26-.57,.65-.57,1.16,0,.68,1.11,1.26,3.34,1.73,.26,.09,.49,.15,.68,.19,.19,.04,.37,.07,.54,.07,2.19,.56,3.7,1.2,4.56,1.93,.82,.77,1.22,1.8,1.22,3.08,0,1.88-.68,3.34-2.06,4.37-1.29,.94-3.21,1.41-5.77,1.41s-4.26-.49-5.45-1.48c-1.24-.98-1.86-2.42-1.86-4.31v-.19h0Zm-55.11-2.81c0-1.67-.32-2.95-.96-3.86-.64-.9-1.56-1.35-2.75-1.35s-2.05,.45-2.68,1.35c-.6,.81-.9,2.1-.9,3.86,0,1.62,.32,2.84,.96,3.66,.64,.9,1.56,1.35,2.75,1.35,1.11,0,1.98-.45,2.62-1.35,.64-.9,.96-2.12,.96-3.66h0Zm-7.29,11c0,.59-.21,1.11-.64,1.53-.43,.43-.94,.64-1.54,.64h-2.18v-14.39c0-2.99,.88-5.03,2.63-6.12,1.75-1.09,3.65-1.64,5.71-1.64,1.07,0,2.14,.2,3.23,.61,1.09,.41,1.96,1,2.6,1.77,1.28,1.66,1.92,3.8,1.92,6.41s-.64,4.87-1.92,6.54c-1.28,1.62-2.93,2.43-4.93,2.43-1.07,0-2.01-.19-2.82-.57-.86-.43-1.54-1.09-2.05-1.99v4.78h0Zm-27.77-13.56c0-3.59,.94-6.43,2.82-8.53,2.01-2.1,4.64-3.14,7.89-3.14s5.84,1.04,7.89,3.14c1.92,2.14,2.89,4.98,2.89,8.53s-.96,6.37-2.89,8.46c-1.97,2.05-4.6,3.08-7.89,3.08s-5.97-1.03-7.89-3.08c-1.88-2.05-2.82-4.87-2.82-8.46Z"></path><g><path class="cls-3" d="M78.16,47.68c-.39,.19-.71,.28-.95,.28-.59,0-.89-.26-.89-.78,0-.27,.1-.93,.31-1.99l.43-2.16c.26-1.29,.4-2.24,.4-2.86,0-.33-.1-.62-.28-.84,.61-.21,1.11-.31,1.5-.31,.41,0,.61,.26,.61,.77,0,.32-.15,1.16-.44,2.51l-.5,2.53c1.09-2.13,2.19-3.78,3.3-4.96,1.11-1.18,2.11-1.77,3.01-1.77,.32,0,.59,.09,.82,.27,.23,.18,.35,.41,.35,.66,0,.41-.44,.95-1.32,1.62-.22-.46-.53-.69-.94-.69-.74,0-1.67,.78-2.81,2.35-.71,.97-1.32,1.98-1.84,3.01-.52,1.04-.78,1.77-.78,2.21v.15h0Zm-6.72-7.08c-.48-.14-.92-.37-1.32-.69-.29-.06-.54-.09-.74-.09-.98,0-1.84,.44-2.6,1.33-.76,.89-1.13,1.9-1.14,3.03,0,.82,.23,1.5,.69,2.03,.46,.53,1.04,.79,1.76,.8,.97,0,1.81-.5,2.51-1.49,.7-.99,1.05-2.16,1.05-3.53,0-.48-.08-.94-.23-1.38h0Zm1.98,.74c.82,.26,1.55,.4,2.19,.4,.97,0,1.91-.32,2.84-.96l-.44-.74c-.79,.45-1.52,.68-2.2,.68-1.04,0-2.05-.33-3.01-.98-.93-1.33-2.11-2.06-3.52-2.17-.19,.26-.28,.52-.28,.8,0,.18,.07,.4,.22,.66-.22-.05-.43-.08-.63-.08-1.28,0-2.4,.5-3.35,1.49-.95,.99-1.42,2.16-1.42,3.51,0,1.19,.36,2.15,1.1,2.9s1.68,1.11,2.84,1.11c1.52,0,2.85-.62,3.98-1.87,1.14-1.25,1.7-2.71,1.7-4.38,0-.11,0-.24-.03-.37h0Zm-14.44-.49h-.17c-.87,0-1.62,.21-2.27,.64,.14-.74,.34-1.21,.61-1.41,.27-.2,.84-.3,1.71-.3h.33l.29-1.44c.39-1.95,1.02-3.35,1.88-4.21,1.05-1.06,2.22-1.6,3.5-1.6,.5,0,.93,.12,1.29,.35,.36,.23,.54,.51,.54,.84s-.37,.72-1.12,1.16c-.21-.89-.69-1.33-1.43-1.33-1.31,0-2.26,1.43-2.82,4.3l-.39,1.93h3.02c1.38,0,2.39-.07,3.04-.23-.28,.61-.59,.98-.95,1.11s-1.27,.19-2.74,.19h-2.59l-1.49,7.45c-.15,.72-.22,1.34-.22,1.88,0,.34,.07,.65,.23,.93-.58,.19-1.02,.29-1.34,.29-.48,0-.72-.27-.72-.81,0-.42,.09-1.12,.29-2.09l1.53-7.66Z"></path><path class="cls-5" d="M136.03,47.34h4.36c.04,.85,.36,1.49,.96,1.92,.65,.43,1.5,.64,2.57,.64,.77,0,1.43-.15,1.99-.45,.51-.3,.77-.71,.77-1.21,0-.77-.9-1.35-2.7-1.73-.77-.13-1.35-.26-1.73-.39-2.27-.55-3.78-1.21-4.56-1.98-.86-.77-1.29-1.79-1.29-3.07,0-1.62,.62-2.97,1.86-4.04,1.29-.98,2.95-1.47,5.01-1.47,2.23,0,4,.49,5.32,1.48,1.24,1.07,1.9,2.46,1.99,4.17h-2.76c-.81,0-1.43-.37-1.85-1.1h0c-.17-.17-.34-.34-.51-.52-.51-.39-1.22-.58-2.12-.58s-1.49,.13-1.93,.38c-.38,.26-.57,.65-.57,1.16,0,.68,1.11,1.26,3.34,1.73,.26,.09,.49,.15,.68,.19,.19,.04,.37,.07,.54,.07,2.19,.56,3.7,1.2,4.56,1.93,.82,.77,1.22,1.8,1.22,3.08,0,1.88-.68,3.34-2.06,4.37-1.29,.94-3.21,1.41-5.77,1.41s-4.26-.49-5.45-1.48c-1.24-.98-1.86-2.42-1.86-4.3v-.19Z"></path><path class="cls-2" d="M129.45,30.87h2.18c.6,0,1.11,.22,1.54,.67,.43,.45,.64,.95,.64,1.51v12.5c0,3.04-.88,5.09-2.63,6.16-1.76,1.07-3.66,1.6-5.72,1.6-1.11,0-2.2-.18-3.27-.55-1.07-.36-1.93-.95-2.57-1.76-1.24-1.58-1.86-3.74-1.86-6.47s.62-4.85,1.86-6.48c1.29-1.67,2.93-2.5,4.94-2.5,1.07,0,2.01,.21,2.82,.64,.86,.51,1.54,1.18,2.06,1.99v-7.32h0Zm-7.32,13.48c0,1.71,.32,3.01,.96,3.92,.64,.9,1.56,1.35,2.76,1.35s2.05-.45,2.7-1.35c.6-.9,.9-2.2,.9-3.92,0-1.54-.32-2.76-.96-3.66-.68-.86-1.6-1.29-2.76-1.29s-1.99,.45-2.63,1.35c-.64,.86-.96,2.06-.96,3.6Z"></path><path class="cls-4" d="M110.88,35.94h2.31c.6,0,1.11,.21,1.54,.64,.43,.43,.64,.94,.64,1.54v14.87h-4.5v-17.05h0Zm0-5h2.31c.6,0,1.11,.21,1.54,.64,.43,.43,.64,.94,.64,1.53v1.34h-4.5v-3.51Z"></path><path class="cls-6" d="M88.91,52.99v-19.75c0-.64,.22-1.19,.67-1.64,.45-.45,1-.67,1.64-.67h2.25v9.04l8.59-9.04h5.7l-8.84,8.91,9.62,13.14h-5.51l-5.57-7.82c-.98-1.28-1.89-1.78-2.72-1.5-.84,.28-1.25,.8-1.25,1.57v7.76h-4.56Z"></path></g><g><path class="cls-5" d="M18.93,34.76C8.34,35.31,1.42,43.13,.14,53.32c10.34-.55,18.19-8.79,18.79-18.56Z"></path><path class="cls-4" d="M22.41,34.64c.69,10.59,8.61,17.39,18.81,18.54-.69-10.34-9.03-18.06-18.81-18.54Z"></path><path class="cls-6" d="M23.82,28.51c16.05-1.05,26.35-13.05,28.09-28.51-15.66,1.04-27.37,13.69-28.09,28.51Z"></path><path class="cls-2" d="M18.81,29.4C18.12,18.81,10.2,12.01,0,10.86c.69,10.34,9.03,18.06,18.81,18.54Z"></path><circle class="cls-1" cx="20.83" cy="5.49" r="5.36"></circle></g></g></g></svg> 