<?xml version="1.0" encoding="UTF-8"?>
<svg id="Layer_2" xmlns="http://www.w3.org/2000/svg" version="1.1" viewBox="0 0 6193.1 2650.4">
  <!-- Generator: Adobe Illustrator 29.1.0, SVG Export Plug-In . SVG Version: 2.1.0 Build 142)  -->
  <defs>
    <style>
      .st0 {
        fill: #d9a45f;
      }

      .st1 {
        fill: #5a754d;
      }
    </style>
  </defs>
  <g id="Layer_1-2">
    <g>
      <path class="st1" d="M1998.6,2209.2v.6l-7.7,6.6-5.5,6.9c-1.4,1.7-3,2.8-5.5,3.6s-7.2,1.4-13.8,1.4l-3.3.8s-2.2,1.1-3.3,1.9c-.3,0-.8.6-1.4.8-6.6,4.1-11,5.5-13.2,5.2h0s-2.2-.8-3.9-1.4l-6.1.6-1.7,1.1h-.8c-2.8-1.9-6.3-1.4-8.5.8l-1.4,1.4-8-.8-2.5-3.3-4.7-3c-5.8-1.1-9.6-2.2-10.7-2.8-1.4-.8-3.9-2.5-6.6-5-.8-.6-1.4-1.1-2.5-1.4v-4.4l-4.1-17.6-.8-4.1,4.4-2.5,2.5-2.2,5.8-8.3,5.2-3.6,30.5-14.3,3-1.7,1.1.8,6.1.6,7.2-2.5h10.5l3.6-1.4h.3l3,1.9,4.4,1.4,9.1-.6,18.7,1.4h1.4l-.3,1.9,1.7,19.3-.8,7.2.8,4.1s1.4,2.2,1.9,3c-2.8,1.4-4.4,4.7-4.1,7.7M2044.8,2218.5s0-.8-.3-1.9c1.7-1.4,2.5-3.3,2.5-5.5v-8.3l-1.9-16,1.4-18.7-.6-4.1-1.7-3.6-3-3.6,2.5-3.3,1.4-5-2.5-31.1-3-5.2c-3.3-2.8-3.9-4.1-4.1-6.3l.8-10.5v-5.2l-2.8-5.8-3.3-2.5-3.6-6.6c-.3-1.9-4.4-6.1-9.1-5.8h-.8l-2.2.6v-2.2c0-2.8-1.4-5.2-3.9-6.3l-3.9-2.2-2.2-.8-25-4.7-7.7-2.8h-2.5l-8.3-.3-10.5-.6h-1.9l-24.2,5.5-6.1-1.1-4.7.8-8.3,4.4-3,.6-14.9,5-11,5.5-6.3,1.1-3,1.4-6.9,5.2-3.6,2.5c-1.9,1.4-2.8,3-2.8,3.9-.6,1.7-.6,2.5-.6,3.3,0,5,2.8,8,5.5,10.2s5.8,3.9,9.1,5l6.6,1.4,5.2,2.8,1.9.6,4.4.8c6.3.3,11-3,13.2-6.9l2.8-4.1s2.5-2.8,6.1-4.7l20.6-10.2,6.1-5.5s2.8,2.5,4.4,3l4.1.6,5.5-.8,10.5.6,10.7,2.5c5,.8,7.7,1.9,7.7,2.2.3,0,3,3.3,6.3,8.5l3,4.7,5.2,3.3q4.1,1.1,4.4,2.5l-1.7,12.4v2.5l2.2,9.6c-.6.3-1.4.8-3.3,1.1l-16.8,1.7-9.6,1.9-6.6-.8h-2.2l-26.4,5c-6.1,1.4-9.4,2.2-12.4,3.3-2.2,1.1-3.9,2.5-5.5,3.9h-1.1l-3,1.4c-7.4,0-14.3,3.3-18.7,9.1h-.6l-11.6,5-6.9,2.5-1.9,1.1-16.5,13.5c-3.6,3-5.5,4.7-6.6,5.8-1.9,1.9-2.5,3.6-3.3,5.5l-2.8,7.2-7.4,14.9-.6,5.5,3,9.9v2.5l1.7,6.1c.6,2.5,2.2,4.1,4.7,5.2l2.8,1.1c2.5,5.5,6.6,10.2,11.6,13.8,5.8,4.4,12.7,7.2,20.1,8l9.9.8,12.9,3,7.7.6h1.9l3.9-1.1,4.7-1.7,6.3,1.1h2.5l19.5-4.1,6.3-.8,2.2-.8,8.5-4.1h6.9c5,0,9.6-1.1,14.3-3.3l9.6-3.3c-.3,1.7-.6,3-.6,4.4,0,3.3,1.7,5.8,3,7.4,1.9,2.2,5.2,4.1,8.5,4.1,4.7-.6,5.2-1.4,11.6-3.6l8-2.5,9.9-5.5,5-1.7,3.6-2.8,3.6-5.2,2.5-4.4c1.1-1.9,1.4-4.4.3-6.6l-3-6.9c-2.5-4.7-3.9-7.7-3.9-8.3"/>
      <path class="st1" d="M2285.8,2194.3l-.6-2.5-2.5-7.2h0l.6-14.9.6-5.8-1.7-5-2.8-3.6v-.6l3-6.1c1.1-2.5,1.1-4.1,1.1-5.8v-8.8l-.8-3.6-2.5-4.7h0l2.8-3.6,1.4-5.8-.8-5.2v-10.5c0-5.8-.6-9.4-1.1-12.4-.6-2.8-1.4-5.2-3.3-7.7l-4.1-6.3-3-5c-4.7-6.3-11-9.9-17.6-9.6h-.6c-5-3.9-11.3-6.3-17.6-6.6l-19-2.5h-3.3l-5,1.9-15.7-1.7h-1.9c-5,0-9.4,1.7-14,4.4-1.4.8-2.8,1.7-3.6,2.2-1.7-1.7-4.1-2.8-6.9-2.8-7.4.3-12.7,4.1-20.1,10.2-3.9,3-7.4,6.3-10.7,9.6v-12.1c-1.1-5-3.9-8.3-6.6-9.6-2.8-1.7-6.1-2.8-9.4-2.8s-8.8,1.4-12.1,4.1l-7.4,5.8-6.3,2.5-2.8,1.9-4.4,5.2-3.6,6.1c-1.4,2.5-1.1,5.8.8,8.3l3.3,3.9,5,13.8c-1.4,1.4-2.5,3.3-2.5,5.2l-.6,38.2c0,1.9.8,3.9,2.2,5.2s.8.8,1.7,1.1c-1.4,1.9-1.9,4.1-1.9,6.6l-.6,27.2-.8,12.7,1.7,11.8-1.7,5.8v20.1l-2.8,13.5s-.3,1.7,0,2.2h0c0,1.9.8,3.6,1.7,4.7l1.4,1.9.6.8c2.8,3,6.1,5.2,9.9,5.2h0c5.2,0,8.8-3,11-6.3h.8l14-3.9c3.3-.8,5.8-3,7.2-5,1.7-2.2,3-4.7,3-8.3l-1.9-9.1-1.1-21.7-.8-3.3-2.8-5.2h0l3.6-8.3.6-3v-25l.3-7.2v-2.5l-4.1-10.5,2.2-11,.6-22s.8-1.7,4.1-3.6l9.1-4.1,7.4-5.5,4.7-1.1,14.9-2.8,2.5.6c3,.8,5.8-.6,7.7-3,.6-.8,1.1-1.4,1.4-1.9l17.6,1.1,16-.8,9.1,5.5,3,1.1h.6l1.4,3.6c1.9,2.5,3.3,4.4,4.1,5.8.6.8,1.1,2.2,1.9,4.4v11.3l1.9,5.5.8.8-1.1,3.6v2.5l-.3,16-.6,6.6.6,3,1.7,4.1-3.3,37.7v2.5l1.1,3.6c.6,1.9,1.9,3.9,3.9,4.7-.8,1.1-1.4,2.5-1.4,3.9l-.6,9.1-5,19v2.8c0,3,.8,5.2,1.9,6.9,1.4,1.9,3,4.1,5.8,7.4,2.2,2.5,5.8,3.3,8.8,1.9l29.2-13.8,3.6-4.1,2.2-6.1.6-3-1.4-23.1v-18.7l-1.4-.8Z"/>
      <path class="st1" d="M2492.4,2162.7l.6,2.8,1.7,9.1v3.9l-.6.6v3l.6,9.4v13.5l-1.1,4.4v4.4l.8,1.4-1.9,2.5-8.8,7.4s-4.1,1.4-10.7,3.6c-6.3,1.9-11.8,3-15.7,3.3l-21.2.8h-11.8l-11-3.9h-2.5l-5.2-.3-4.1-.6-1.9-1.1-10.2-4.7c-3.3-1.7-7.4-4.4-12.1-8.8-4.7-4.4-8.5-8.5-11.3-12.7l-3.3-2.8h-.8v-3.6l-.8-2.8-4.7-8.5-4.1-15.7-1.4-4.1c-.8-1.9-1.4-3.6-1.4-5.8s0-2.5.3-2.5c0-.8,1.1-3,2.5-6.1l8-12.1,7.4-7.7,1.9-3.9.8-5.2s1.4-2.5,4.1-5.2l8.3-7.4,4.1-2.8,6.9-1.1,3-1.1,10.7-6.9h7.4l2.8-.6,7.2-3h4.4l14,.6,38,9.4,3.9.6h2.5l2.2-.6,3.6-.6h0l.6,3.9,1.4,3.3v2.8l1.4,16-1.7,8v2.2c0,4.7,2.5,8,5.8,10.2l.6,3c-4.7,1.9-8.3,5.8-8.5,11.8M2545.7,2219.9v-3.9l-.6-9.1-2.8-11v-11.8l-3.3-17.6v-15.1l-1.1-11.3v-8.3l-1.7-14.3.6-13.2-1.1-17.6,1.1-1.4,1.9-5.5v-5.8l.8-7.4-1.4-19.3.6-14.3-1.4-4.7-6.3-8.8v-1.4c2.5-.3,5-2.2,5.8-4.7,1.4-3.6,2.2-6.9,2.2-10.2l-1.7-13.5,1.1-2.5.6-2.8v-9.1l1.1-3.9v-4.4l-5.2-14c1.9-2.8,3-5.2,4.1-7.7v-20.6l2.2-8v-1.9l.3-15.7.8-18.4-.6-6.1,1.9-10.5.6-6.1c0-6.6-2.2-12.1-6.3-16.5-1.9-1.9-4.7-2.8-7.2-2.2l-4.7,1.4-9.4,2.2-2.5,1.1-7.7,5-11.6,2.2c-7.2,1.7-11.3,8-12.7,14.3-.6,2.8.6,6.1,3,7.7,1.7,1.4,1.7,1.7,1.7,2.2l.8,14,1.7,13.5v4.1c0,2.2,1.1,4.4,3,5.8,1.1.8,2.5,1.7,3.9,2.2h0l-1.4,5.8v2.5l1.7,13.5-2.2,28.6v3c0,5,.6,9.4,2.5,13.5l2.8,8.8.6,3.9c-1.9,1.1-3.6,3-3.9,5.5v3l1.1,31.1-1.7,9.4v3.3l1.4,4.4.8,12.1s-2.8-1.9-4.4-2.5c-3-1.1-8-2.8-16.5-5l-11.6-2.8c-2.8-.6-5.8.3-7.4,2.5-.3,0-.8-.3-1.1-.3h0s-1.7-1.1-2.8-1.7l-4.1-2.8-6.3-.8-8.5,3h-8.8c-1.7.6-3.9,1.4-6.6,2.2-2.5.8-5.5,1.7-8.8,2.5l-7.2,3c-3,1.1-4.7,4.1-4.4,7.2v.8s-1.9,1.1-3,1.7c0,0-.3,0-.6.3-2.5-.8-4.4-1.1-7.4-1.7-2.2,0-3.3,0-4.1-.3h-3.6s-1.7.8-2.5,1.1c-1.4.6-2.5.8-4.7,2.8l-3.6,3.3-5.2,3.3-10.2,11.3-7.2,5.8-2.8,4.7-1.7,11h-1.1c-4.1,0-7.7,1.9-10.2,4.4-1.9,2.2-3.9,4.1-5,7.2l-13.2,30.5-2.5,5-.8,4.1v2.8c-.8,3-1.4,5.8-1.7,8.5-.3,2.5-.6,5.2-.6,8v3.6l3.6,17.6.8,4.1,2.2,3.9,6.1,5.8c1.9,1.7,1.9,1.9,1.9,3.3s0,2.2-.3,2.5c-1.1,2.5-.6,5.5,1.4,7.7,5.2,6.1,9.1,9.9,12.4,12.4,3.6,2.8,8,4.7,13.2,5.8,1.4.3,2.8.3,3.9,0v.8c.6,2.5,2.5,4.7,5,5.5l6.6,2.2c2.2.6,4.4.3,6.1-.8,2.2,2.5,5,4.1,8.3,5.2,5.5,1.9,12.1,2.5,20.6,2.5s13.8,0,21.7-.3c8-.3,16.5-.8,24.8-1.7,8.5-.8,16.8-2.2,24.8-4.1,8-1.9,15.1-4.1,20.9-7.2,2.5-1.4,4.4-2.5,6.6-3,.8-.3,1.7-.6,2.5-.8.3,1.4.6,3.6.8,5.8.6,3.9,4.1,6.6,8,6.3l15.7-1.4,15.1-2.8,5.2-1.4c2.8-.8,5-3.3,5.2-6.3v-4.4c.3-4.1,0-8-.8-12.9-.8-4.1-1.7-7.7-3.9-10.7"/>
      <path class="st1" d="M2933.8,2124.4l-1.4-3.6-3.6-4.4c-7.7-9.6-10.5-16-20.4-17.6h-2.5l-8.5-7.4c-5.2-4.4-11.3-7.2-17.9-7.2l-8.5.6-10.5-.8-4.4,1.1-5,3s0-1.1-.3-1.7c-.6-3-2.8-5.2-5.5-5.8l-5.8-1.4-11.3-2.8s-2.8-.6-4.7-.6l-8.3.8h-.3s-2.5-1.7-4.1-1.7l-12.9-1.4-12.9,1.1-2.5-2.2-1.9-1.4-17.3-7.7-6.6-5.8-3.6-1.7h-1.7c1.7-2.2,2.2-5.2,1.1-7.7-.8-1.7-1.1-2.8-1.4-3.6v-2.5c1.1-3,.3-6.3-1.9-8.3l3.6-2.5,2.2-2.5,9.1-16,3.9-4.4,8.8-6.9,13.5-6.6,19.5-10.2h9.9l9.9-.8,15.7,3.3,4.7.6,9.9,7.2,5,3,5.8.8c5-1.4,8.8-2.8,11.3-3.6,3-1.1,5.8-2.8,8.3-4.7l4.7-4.1,3.3-1.4,4.1-4.4c.6-1.9.8-3.6.8-5.2-.8-10.2-9.4-12.7-16.8-14.3l-9.9-2.5-5.5-1.9-2.8-.6-9.6.6-20.1-2.5-3.6.6-5.8,2.2-11.8,1.1-6.1.8-6.3,1.9-22.6,7.4-17.6,8.8-10.5,6.3-23.7,17.6-4.1,3c-1.9,1.4-2.8,3.6-2.8,5.8,0,4.7-1.1,5.8-1.7,6.3l-7.2,5.2-2.5,3-2.8,6.6-2.2,4.1-3.3,9.9v2.2l-.3,2.2.8,8v6.3l2.2,4.4.8.8s0,1.1.3,1.7c2.2,6.6,3.9,11.3,6.3,15.1,2.5,3.6,6.1,6.9,11.3,10.7l6.3,1.4h1.1c0,2.5,1.1,4.7,3,6.1,3.6,2.5,7.4,4.4,11.8,5.8,4.1,1.4,10.7,3,20.4,5l12.1,2.5,5,.8c2.5.6,5-.3,6.6-2.2l.8.8,5.2,2.8,29.2,1.4c2.5,0,4.7-1.1,6.3-3l2.2,1.1,2.5,3.3,2.8,1.9,19,7.4,14.3,8.8,3.3,1.1h1.4v.6l4.1,10.7v6.3s-.8,1.7-1.1,2.5l-6.1,18.2-2.5,2.8-1.7,5.5v5.2l.8,1.7h-.3c-3.3,0-6.3,2.2-7.2,5.5s-2.2,7.2-2.8,8.3l-6.3,6.3-6.6,8.8c-1.4,1.9-3,3.3-6.6,4.1l-9.6,3.3-5,1.1-2.8-1.1h-5.8l-6.3,3.9-24.5-1.7-4.4.6c-1.7,0-3.3,1.1-4.4,2.5-.8-.6-1.7-1.1-2.8-1.7l-2.5-.8-28.9-6.1-12.9-6.1-12.7-3.6-1.9-3-2.2-2.2-4.4-2.5-3.6-.6s-1.4-2.2-2.2-3.3c-1.4-1.4-2.8-2.5-4.4-3.3l-2.5-12.7c-.8-3.9-4.1-6.3-8-5.8-3.6.6-7.2,1.4-10.2,3.3-2.8,1.9-5,4.1-8,7.4-3.3,3.6-6.3,8-8.8,12.7-2.5,5-4.4,9.1-4.4,14,1.4,8.3,5.8,9.4,10.7,13.5l11.8,7.4,3,1.1,9.4,1.1,14.9,11,3.3,1.4,6.1.8,6.1.8c2.2.3,4.1-.3,5.8-1.7l9.1,5.2,3,.8,25,1.7,5.8,1.4h20.9l9.6.6h1.7c4.4,0,9.1-1.1,13.2-2.8,1.1.3,1.9.6,3.9.8,4.1,0,7.7-1.4,12.1-3.3l15.7-5,35.2-22.6,3.6-1.7,9.9-9.1,8.5-9.1,5-7.7,10.7-14c3-5.2,3-9.4,3.3-15.7,0-2.5-.6-4.7-1.7-6.9,3.3,0,6.3-1.9,7.2-5.2,1.7-5,2.5-9.9,2.5-14.3l-2.2-20.9-.8-6.1h1.6Z"/>
      <path class="st1" d="M3166,2167.1l-4.7,9.6-.8,2.5-.8,8.3s-.8,2.2-5.5,5l-9.4,6.6-9.4,10.7-6.6,3.9-11,8-7.2,3-6.6,2.8h-9.1l-16.8,1.9-13.8-5.2-2.2-.6-17.1-1.1-4.7-1.9s-1.7-.6-2.8-.6-2.5.3-3.6.8l-3.3-2.5-12.4-5.5-1.4-.8v-2.5l1.1-19.5c0-4.1-.3-7.4-1.1-10.5-.6-2.2-1.4-4.4-2.8-7.2,1.7-3.3,2.8-6.1,3-9.6l-.8-24.5.8-9.6c0-3.3-1.7-6.3-4.7-7.4h0c.8-2.2,2.5-5.5,4.4-9.4l.8-3.3v-2.5c0-3,.3-5,.6-5.8l3.9-.8,8-3.6,7.2-1.4,17.9-5,5.2-.6h3.9l29.4-.3,10.2,3.6,11.8,1.4,15.4,10.2,4.4,1.4h7.2l.6,4.7,1.1,3.6,11,16,2.5,8.3c1.1,3.9,3.6,6.9,6.6,9.4v5.2l1.1,14.9h0M3207.5,2148.6l1.1-6.3v-2.2c0-2.5,0-5.5-.8-9.1-.6-3.9-1.4-8-2.5-12.1-1.1-4.1-2.2-8-3.3-11.8-1.4-4.1-2.5-7.4-4.1-10.2-3.3-6.1-7.7-11-12.9-14.9-2.2-1.4-5-1.9-7.2-.8-.6,0-.8.3-1.4.6l-1.9-5.2c-3-4.7-6.1-6.3-9.6-7.7l-15.1-7.7c-4.1-1.9-6.1-3.3-10.7-3.9h-.3c-3.3-3.3-7.2-5.5-12.1-5.8l-20.6.6-23.7-.6-10.2,1.7-5.5,1.1-3.9,2.2-.8.8c-3-1.4-6.1-2.2-9.4-2.2-5.8,0-11.6.8-16.8,2.5s-11,4.7-18.4,9.1l.6-2.5c.6-2.8-.3-5.5-2.5-7.4-2.8-2.2-4.7-3.6-6.3-4.7-2.2-1.4-4.4-2.2-6.9-2.5l-4.4.6-5.2,2.5-9.4,5.5-1.9,1.7-9.9,11.3-2.8,1.1c-5.2,5.5-5.2,8.8-6.1,14-.3,3,1.1,5.8,3.6,7.2,1.7.8,2.8,1.7,3.3,2.2h.3v5.5l2.2,17.6-1.1,7.7v4.7l.8,31.6v5.5c0,3,1.9,5.8,4.7,6.9v1.1l.8,5.8-2.2,6.3v1.9l-3,70.7v5.2l2.5,7.4c.8,2.5,2.8,4.4,5.2,5h.3c.6,3,.8,5,.8,5.5s0,1.7-2.5,3.6l-2.5,5-.6,5.8-2.2,19.8.8,18.2.6,22.3.8,5.2-1.4,6.6v2.5c.3,3,1.1,6.1,4.1,8.8,0,0,.6.3.6.6l-1.9,1.9c-1.9,1.7-3,4.1-2.5,6.6l1.7,9.9c-2.5,3-4.1,6.6-4.1,10.5v18.4l-.8,17.1-.6,7.2.6,8.5c0,3.6,3.3,6.6,6.9,6.9h12.4l2.2-.6,11.3-5.2,4.4-1.4,3.9-3,4.4-6.9,3.6-2.5,4.1-5.5,1.1-5-.8-6.9-1.9-9.9v-3.3c.6-1.7,0-3.3-.8-4.4,1.1-1.7,1.7-3.6,1.4-5.8l-.8-10.2-1.4-13.8-.6-13.8c0-2.5-1.4-4.7-3.6-6.1l-.8-.6-2.5-10.2v-.6c3.6-.8,6.1-3.9,5.8-7.4l-1.4-39.1c0-2.2-1.4-4.4-3-5.8l2.8-12.9-.6-29.7h13.5l3.3-.8,2.2-1.1s.3.6.6.8c1.4,1.7,3,2.8,5.2,2.8l5.2.6c6.9,0,11.6.8,11.8.8,0,0,2.8.8,6.1,2.5,2.2,1.1,5,.8,7.2-.6l3.9-2.5,3.6-.8h18.2l2.5-.8,9.6-3.3,11.6-3.9c8.5-3,14.9-6.3,19.5-10.7,3-2.8,5.2-6.1,6.6-9.9,5,0,9.4-1.1,13.2-3.9,3.9-3.3,6.1-7.4,9.6-14h3.6l3-.8,3.9-2.5,3.9-5.2,5-4.7,5.8-9.9,5.5-6.9,3-6.9,4.4-11.6v-4.4l-1.7-8v-5l1.1.3Z"/>
      <path class="st1" d="M3419.6,2175.6l2.8,8-.6.6-5.2,4.4-1.9,2.5-11.3,23.4-1.9,1.9-8.3,2.5-3,1.9-12.4,12.4-8.8,2.2-15.4,2.8-13.5-1.9-24.8-2.5-24.2-14.6-6.1-1.9s-1.4-.3-2.2-.3h-.8v-1.9l-.8-4.7-10.7-17.6-4.1-14s-.8-1.9-1.4-2.8c1.1-1.7,1.7-3.6,1.1-5.5l-.8-4.7-1.7-3.6-2.2-2.5s1.4-1.1,1.9-1.9c2.8-3.6,3.3-6.9,3.3-10.5l1.9-3.6c3-6.3,5.2-10.5,6.6-13.5,1.7-3.3,2.8-6.9,3.3-11l3-2.5,26.7-23.1,12.9-7.7c1.7.6,3.3.6,5,0l13.2-5h9.4l6.6-1.4c-.3,0,1.9.6,4.7,1.9h5.5c2.8-.8,4.7-1.1,5.8-1.4.6.8,1.7,2.5,3,4.7l3,2.8,16,7.4,2.5,3.6,10.7,13.5c1.4,2.2,4.1,4.4,7.4,5.2l1.1,8.8,7.4,23.9-3.6,22.6v3.6l.8-.6ZM3463.9,2108.5c-2.2-6.6-5.8-12.9-10.7-19.3l-5.8-2.8c-5.2,0-7.2-1.4-7.2-1.4l-7.2-11.3-2.2-2.2-7.7-5-4.7-4.1-2.2-1.4-13.8-4.7-5.8-1.4c-3-.8-6.1.3-7.7,3-1.1-1.9-2.8-3.9-5.2-5.2-4.1-2.2-8.3-2.2-13.8-2.5l-16,.6-19.8,1.9-25.6,8.5-13.8,5.2-1.9,1.1-11.3,9.1-18.7,9.6c-3.9,1.4-6.9,5-9.1,9.1l-3.9,6.6-7.2,4.7c-3.3,2.2-5.2,5-7.2,8.5-1.7,3.3-4.1,8.3-7.7,15.7-6.6,15.7-10.2,29.4-10.2,41.8v8.8c0,2.5,1.4,5,3.3,6.3l1.4.8s-.8,1.9-1.1,3c-2.2,1.9-3,5.2-2.2,7.7l1.7,5.2,5.2,13.8,2.2,3,5.2,4.1,4.1,7.7c1.9,3.6,4.1,5,7.4,7.4,2.5,1.9,7.4,5.8,14.9,11.3l6.6,3.9,2.5.8,9.1,1.4,2.5,2.8,5,2.5,7.7.6,18.2,3.3h3.3l5.5-1.7h19.8l16-3.9,20.6-.6,2.8-.8,39.9-18.7,5.2-1.4,4.1-3c1.7-2.5,4.1-5.2,7.2-8.5,3.6-3.6,6.9-8,10.5-12.9,5.8-8.8,10.5-17.9,13.8-27.2s5.2-18.2,5.2-26.7l-.6-5c0-1.9-1.1-3.9-2.8-5.2.6-.6,1.1-1.4,1.4-2.2.8-.3,1.7-.8,2.2-1.4,1.7-1.7,2.5-4.1,2.2-6.3l-.8-6.9c-.6-11.3-1.7-20.1-3.9-27"/>
      <path class="st1" d="M3989.2,2159.1c-3-8-5.2-13.5-10.7-17.3l-15.1-8.5-9.4-6.3-5.2-1.1-6.3,1.1-15.4-3.6h-2.2l-35.8,2.5h-1.9l-5.8,1.4-1.4,1.4c-.6-1.9-1.9-3.6-3.9-4.7l-4.4-2.2-14-6.6s-.3,0,0-2.5c0-3,2.8-9.1,11.8-16.5l12.4-7.2,1.4-.8,3,.8h3l8.8-1.1h11.6l3-1.4v.6l5,3.9,8.3,2.2,11.8.6,5.5.6,3.6-.8,6.6-3c6.6-3.6,12.1-6.9,16.5-10.5,4.4-3.9,8-5.8,8.8-13.2,0-5.8-4.1-9.4-7.4-11-3.9-2.2-8.3-2.8-12.7-2.8s-5.8,0-8.8.8c-2.2.3-5.2.8-9.4,1.7l-4.1-1.7c-4.1-1.1-7.2-2.2-10.2-3s-5.5-1.7-8.5-1.7c-5,0-10.5.8-16.8,2.8-6.3,1.7-12.4,3.9-19,6.9-6.3,2.8-12.9,6.1-19.8,9.9s-13.2,8-19,12.7c-9.4,7.4-17.1,15.4-22.3,24.2-5,8.5-8,16.8-8,25s1.7,11.8,5,17.3c3,5.2,7.4,9.6,13.2,11.3l9.1,3,5.8,2.8,4.4.6,3.9-.8,3,2.5,4.4,1.4h3.6l2.8,1.4,4.7.8,7.4-1.4c4.1-.3,8.3-.8,12.1-2.8,1.4-.6,2.5-1.4,3.3-2.2l.6.8c1.4,1.9,3.6,3,6.1,3h17.1l10.2,1.7,5.2.6s2.5,0,3.6-.6v.6l9.4,13.2c.8,1.1,1.1,1.7,1.4,3.6,0,2.8-.6,6.3-1.9,10.7-1.4,4.4-3,8.5-5,12.7-1.9,3.9-3.9,7.2-6.3,10.2s-4.4,4.7-5.8,5.5l-7.2,2.5-8.3,4.1-16,1.7-10.2,2.8-3.6-.6h-7.2l-9.6-5-6.1-1.9-11-8.8-5.8-3.6-3.3-15.7-1.4-3-4.7-6.1c-2.2-2.8-5.8-3.6-8.8-2.2-6.6,3-12.4,6.9-17.6,11.3-3.6,3.6-6.6,5.8-8.3,9.6,0-2.2-1.1-4.7-3.3-5.8-3.6-1.9-6.9-3.6-11-3.6s-6.3,1.1-8.5,3.3l-20.6,19c-1.4,1.4-4.1,3-8.3,4.1-4.1,1.4-7.7,1.9-11,1.9s-5.8-.6-8.5-1.7c0-1.9,0-3.6-1.1-5.8l-5-10.5v-2.5l-.6-27.2-2.8-5.8h-.3c0-.3.6-.8.6-1.4l2.2-6.6v-7.4l-.8-19.8c0-3.3-2.5-6.1-5.8-6.9h.3c3-.8,5.2-3.9,5.2-6.9l.6-27.2v-1.4l4.1.6,16-.8h.3c2.5.6,8.8,1.9,18.7,3.9l8.5.8h1.9l5.2-.8,3.6-1.7,9.1-8.3,14.6-10.7,3-5.2v-4.4l1.4-2.8c.8-1.4,1.1-3,1.1-4.1-.6-4.4-1.1-3.9-1.7-5.2-1.4-2.2-3.6-3.3-6.1-3.3h-13.2l-12.1,4.7-14.3,1.4-9.6,2.8-1.4.6h-3c-2.5,0-4.1-.3-4.7-.6l-20.9-4.7.6-2.8c.6-2.2,0-4.7-1.7-6.3-1.4-1.4-2.8-2.8-4.7-3.6,1.4-1.4,2.5-3,2.8-4.7.8-2.5,1.7-4.4,2.2-6.3,1.7-4.7,3-10.7,3.9-18.7,1.1-8.3,1.7-16.5,1.7-25.3-.8-12.4,1.1-23.4-12.9-26.4-5.8.3-9.1,3.6-11.8,7.2-6.1,1.4-11.3,3.3-16,6.1-5.5,3.3-10.5,8.3-14.9,14.6l-1.1,5.8,1.4,6.6,5.2,12.4,1.1,41.8-22.8.8s-2.2.3-3.3.8c-.3-.6-.8-1.1-1.1-1.9-4.1-5-9.4-8.3-15.7-8.3s-4.1.8-5.8,1.7l-2.5,1.4s-.8-1.1-1.1-1.7c-1.4-1.9-3.3-3-5.5-3.3l-9.1-.8c-5,0-9.6,1.1-15.4,3l-7.4,2.5-2.5-.8h-5l-6.1,3-19,10.5-9.4,3.3-5.2,2.8v-5c0-4.7-.8-9.4-4.7-12.9-3-3-6.6-4.7-11-5.8l-6.3.8-7.7,5.2-12.4,6.6c-3.9,3.6-5.8,5.8-7.2,8-1.9,3-3,6.3-3.6,10.2l.8,4.7,3.9,7.7v9.6l1.4,6.1,1.9,4.1.6.6h0c-1.1,1.7-1.9,3-2.5,5.2v2.5l1.1,16-.8,14v1.9c0,5.5,4.1,8,6.3,9.4.6.3,1.1.6,1.7.8-1.1,2.2-2.2,3.9-2.5,3.9-1.1,1.4-2.2,2.8-3.6,4.1l-1.7,4.1v6.9l-.3,6.1v.6l1.9,9.1v7.4l.8,2.5,1.4,3.6s-1.7,1.4-2.5,2.5l-1.4,2.2-1.1,4.4,1.1,15.4-2.8,11-.8,4.7c-.6,3,.8,6.3,3.6,7.7l5.2,3s2.5,1.1,3.6,1.1,2.5-.3,3.3-.8l11.3-6.1,6.9-.6c4.4-.6,8.3-2.8,11.3-5.8,3-3,5.8-7.2,5.8-12.1v-.8l-1.7-8.5h0c.6-2.5,0-5-1.7-6.9.6-1.1.8-2.2,1.1-3.3l.8-12.9-.6-15.1-.8-27.2-.6-6.3c0-2.5-1.7-4.4-3.6-5.8,0-1.1-.6-2.2-.8-3.6,0-.6-.6-1.1-.8-1.7,1.7-1.4,2.5-3.3,2.5-5.2v-16c.8-9.4,2.8-15.4,3.6-16.2l15.4-11.6,1.4-1.1,1.4.6h5.2l5.5-2.8c5.8,0,9.4-.3,13.5-1.9,2.2-.8,3.9-2.2,5.5-3.9l11.3,4.4,2.5.6h9.6l1.9,2.2,6.9,4.7,6.1.8,3.9-1.4,3-1.9h0s1.7,1.9,2.8,2.5c1.9,1.4,4.4,1.9,6.6,1.1,8.3-2.8,16.5-3.9,24.2-3.9s5,0,6.3.6c.6,0,1.1,0,1.7.3,0,3.9,0,6.9-.3,9.4-.3,3.6-.8,8.5-1.7,14.6l1.1,5.2,1.7,2.5s2.2,2.2,3.6,2.8l-1.7,1.7c-2.8,2.5-2.8,5.8-2.8,6.1l.8,8.3v5.2l-.6,19.5v5l.8,8.3,1.1,4.1-3.9,11.8v2.2l-.3,13.5-.6,11.6.6,2.8,2.5,7.4,1.1,5.2c1.7,6.6,5.8,9.4,12.1,14.9,6.9,4.7,12.7,7.7,19.3,7.7l4.7-.6c2.2,0,4.4-1.7,5.5-3.6l3,1.7c2.2,1.4,5,1.4,7.2.3l8.8-4.4,49-17.9c9.1-5.5,8.3-11.8,12.1-23.9v-.6c.6,5,2.5,9.6,5.2,14.3,3.3,5.2,7.4,9.6,12.4,12.9l11,6.3,8,5s3.3,1.9,5.2,2.8c1.9.6,4.4,1.1,8.3,2.2,7.4,1.4,12.4,2.5,15.1,3,3,.6,5,1.1,7.2,1.1l19-4.1,10.7,1.9h3.6l15.7-5.5,7.7-.8,2.2-.8,18.2-9.4h4.7l5.5-3.3,4.4-6.1,9.1-9.6,1.4-2.5,3.6-9.6h.3c6.6,0,11.6-5,13.8-9.9,2.8-5.2,3.9-11,3.9-17.6s-1.4-16.2-4.1-24.5l-1.7-5.5.8-.5Z"/>
      <path class="st1" d="M4333.9,2029.8l-2.2,7.2-13.2,12.7-2.2,2.8-4.4,2.8-3.3,4.4v.8l-6.3,4.1-6.1,8s-2.8,1.7-6.9,2.8l-14.9,5-16.8,5.2-27.8,2.8-16.8,4.7h-.8l-.6-.8c-1.4-1.9-3.6-3-5.8-3h-1.4l-5.2.8h-12.7l.6-2.2v-2.5l-1.9-25v-12.4l-2.5-6.9,2.2-8s1.1-2.5,1.1-5c0-3.9-1.4-7.2-3.6-9.9l.8-1.4.6-4.4.6-16.5c.6-4.7,0-4.7,6.1-6.3l25.9.8h2.8l10.5-4.1,16,2.8h21.5c4.1,0,10.7,1.1,19,3,8.3,1.9,16.5,4.7,24.5,8,1.7.8,3.6.8,5.5,0,.6.6,1.4,1.7,2.2,2.5l14.3,14.3.8,3.3,2.8,5.2-1.7,4.4-.6.3ZM4379.3,2010.3v-4.7l-3.3-5.2c-.3,0-.6-.6-.8-.8,1.1-3.3,0-7.2-3.3-8.8l-7.7-4.4-14.3-8.3-3.3-1.1-15.4-.8s-.8-.8-2.2-2.5l-4.1-4.1-3.9-1.9-13.5-2.5-4.7.6-2.2,1.1-7.7-3-2.8-.6h-15.7l-1.4-1.4-3.3-2.2h-1.4l-2.8-.8-7.7.6-4.1.6-8.3-.6-13.5-1.4h-14.3c-2.8,0-5.2.3-7.7,1.1l-8.3,1.4-40.7-2.2-3,.6-11.3,4.4-17.1,6.6-3.6,1.4c-2.8,1.1-4.4,3.6-4.7,6.3l-.6,7.7c0,3.9,2.8,7.2,6.6,7.7h1.7l1.7,1.7,2.5,1.4,2.8.8c-.6,5-.8,8.3-.8,10.7s.6,6.6,1.4,11.3c.6,3,2.8,5,5.5,5.8v.8c-2.2,1.7-3.3,4.1-3,6.9l.6,3.6-.8,12.9v.8l.6,2.8,2.2,5.5-1.1,4.1-.6,11-.8,5,1.1,25.3,1.4,3.9,1.4,2.2v5.5l-1.9,4.4-1.4,5.2v6.9c0,2.2,1.4,4.1,3,5.2l-3,11.8v2.8l.6,6.6-3.6,20.6v2.8l2.8,14.6-4.1,33,1.1,11.8-3.3,5.8c-1.4,3-1.4,4.7-1.4,6.6,0,2.8.6,6.1,3,8.8,2.2,2.8,6.1,4.1,8.8,4.1h0c3.9-.3,3.9-1.1,5.5-1.7l8.5-4.4h3.9l4.4-2.2,5.2-5,5.2-1.7c6.1-1.4,9.9-8.5,9.6-14l-.8-11-1.7-27.2-.6-2.5-3.3-7.4c3-.8,5.2-3.9,5.2-7.2v-4.4l-2.8-20.4,1.1-2.5.6-3.3-1.7-22.3h.3l17.9-7.7c3.6-1.4,6.6-1.9,9.6-1.9l4.7.8,3.9-.6,2.8-1.1h4.4l3.9-.3,4.1-2.2,8.3.8h3l11.3-4.4,17.1-4.1,8.3-3h.8l5.8-.6,7.4-4.4c5.5-3.9,8.5-5,8.5-5.2l13.2-3,2.8-1.4,4.7-3.6,9.4-3.9,9.9-7.4c1.9-1.4,3-3.6,2.8-6.1.8,0,1.7,0,2.8-.3l4.7-2.2c2.5-2.5,4.1-4.4,5.8-6.6,1.7-2.2,2.5-5,3-7.7v-1.9c2.8-.8,5.8-2.5,8.3-4.7,3.3-3.3,5-7.4,6.6-12.7l3.6-11.8v-4.7l-2.8-7.7.8.8Z"/>
      <path class="st1" d="M4604.8,2236.9v-13.8l-2.2-17.1-.6-3,1.7-1.9,1.9-5v-35.2l-2.2-5.2-1.9-1.9,2.5-3.6c1.4-1.9,1.7-4.7.6-6.9l-1.7-3.9c1.1-1.4,2.2-3,3-5,1.4-3.6,1.4-6.9,1.9-13.2v-14c.6-9.1-2.2-17.1-7.4-23.4-.6-.6-.8-1.1-1.4-1.4,0-.8-.6-1.4-.8-2.2l-3.6-5.5-2.5-2.5-6.9-4.1-11-10.7-4.4-1.9-24.8-1.7-9.1-1.4c-2.2-.3-4.7.3-6.3,1.9l-4.4,4.4c-2.5-4.1-6.6-7.2-11.6-7.2l-11.6,1.4-8.8,1.9-11.6,4.4h-.6c-2.5-1.7-5.5-1.4-7.7.3l-22.3,17.1,1.9-25.6v-2.5l-1.1-3.9.8-6.6v-2.5l-1.9-7.2,1.7-4.7.8-3.6v-3.6l-1.1-2.5-1.7-14.3,1.9-3.3.8-3.6v-1.4c-.3-6.1-3-9.4-6.9-14.3v-.6l4.4-8.8.8-3.6v-12.7l1.7-38.8v-4.4c0-2.2-.8-4.1-2.5-5.5-.8-.8-2.2-1.4-3.3-1.7,3.6-3.3,4.7-7.7,5.2-12.4l.6-28.1,1.7-14v-2.8c-2.2-7.2-9.6-9.1-14.6-8.8-5.8,0-10.5,2.5-17.9,6.1l-16.8,8.5c-4.4,2.5-7.7,6.1-9.4,10.7-1.1,3,0,6.3,2.5,8.3l2.2,1.7v.6l5,21.7-.6,39.1c.8,5.5,2.5,7.2,5,10.5l-.6,1.4-1.7,4.1-1.1,7.2-.6,5.2,1.4,5.2,2.8,3.3v1.1l-2.5,5.2-.6,3.3,1.7,24.8v18.2c1.7,3.6,3.9,5.5,6.3,7.4,0,.6,0,.8.3,1.1-1.9,1.1-3.6,3-3.9,5.2l-1.4,7.7v49.8c0,4.1,0,7.2,1.4,10.7,1.1,2.5,2.8,4.7,4.7,6.6l-5.2,8.8-1.1,3.9.8,19.5-2.5,62.2c.3,5,1.9,7.7,4.4,11.6v.6l-4.1,6.6-1.1,3.9v7.7l-2.2,8.5-.8,9.6c0,2.5.8,4.7,2.8,6.3l1.4,3c1.1,2.8,3.9,4.4,6.6,4.4h1.1c2.8-.3,5.5-1.4,8-2.8,2.2-1.4,4.4-3.3,7.2-6.1l1.4-1.4c1.9,0,3.6,0,5.8-1.1l3.6-1.9h.6c3,.8,6.3-.8,8-3.6l3-5.8.8-3.9-.8-17.9,1.1-2.5.6-3v-2.5l-.8-7.4-.8-9.6-1.9-18.4-1.9-4.4h-.6l-1.4-2.5c.6,0,.8-.6,1.4-.8,1.9-1.7,2.8-4.4,2.2-6.9v-1.1l2.2-31.6v-2.2l-2.5-9.6,2.2-2.8,6.6-7.4,3.6-3.3,7.7-3,12.4-6.9c2.5-1.4,5.8-2.5,9.9-3h8.3l17.1-.8,11.8,1.7h6.9l9.9,5.2,8.3,3,3.3,7.4,1.1,1.9-1.4,5.5v2.5l1.4,16v1.1c0,3.3-.6,6.3-1.4,9.1-1.9,6.1-3,11-3,15.7s2.2,8,5.2,10.5c0,2.5,0,4.4-.3,5.2-.3,1.9-.6,3.9-.8,6.1l-4.7,18.4v3l2.5,15.7-7.2,21.7-1.7,6.3c-.6,2.8.3,5.5,2.5,7.2l8.8,7.4c2.5,1.9,5.8,2.5,8.5.8l4.4-2.5,11.3-6.1h4.1c6.6-.3,15.4-5.8,14.9-14v-4.7l.8.3Z"/>
      <path class="st1" d="M4843,2167.9c-4.1-3.9-4.7-6.3-4.7-6.9l.6-1.7,2.8-6.9.6-3.3-.8-13.5v-5.2c0-3.3-.8-5.8-2.2-8.5-.8-1.9-2.5-5.8-4.7-11.3l2.2-8.3v-6.3l1.7-5.2v-2.5l-.6-15.1,1.4-6.1v-2.2c-.6-7.2-4.7-9.9-9.1-13.2l-6.1-1.1-4.7,1.4-11.8,1.7-3.9,1.9-5.5,5-7.7,2.5c-3,.8-5,3.9-5,6.9v3.6c0,1.7,0,3.6,1.4,6.3l5.2,11,1.7,24.2,3.3,17.9-.8,3v2.8l.3,6.9-.6,1.1-.8,4.7,1.4,8.5-2.2,2.8-1.4,3v1.9l-1.9,1.9-6.9,17.9-1.4.8-9.4,5.8-15.1,14.3-13.8,9.6-8,5.5-19.3,6.6-5.5,3.6-3.9-4.4-2.8-1.9-9.9-3.9-4.7-7.7-2.8-3.6v-.8l1.1-10.7,6.1-43.7c0-2.2-.3-4.1-1.7-5.8,0,0,0-.3-.3-.6,3.6-1.7,5.5-5,6.6-7.7v-1.9l1.7-14.3,5.2-23.4,3-16.2,6.1-14.6.6-2.8v-1.4c0-3.9-.6-7.7-3.3-11.3-2.5-3.6-7.2-5.2-11-5.2h-1.4l-3.6.8-21.2,12.1-5.8,1.4-5.2,1.9-3,2.2-7.7,9.1-1.7,5.8.6,3.6c.3,3.3,3,5.8,6.3,6.3h2.5s0,1.1.3,1.1l-3.9,14.9-.6,18.2s-.6,1.7-.6,2.8c0,0-.6,2.5-1.4,6.1l-3.9,15.7c-1.4,3.6-1.9,8-1.9,12.1v2.5l1.4,6.6-7.4,17.1-1.7,6.9v8.3l1.4,3.9,2.2,3-3,5-.6,4.4c0,10.5,3.6,19.3,9.9,26.7,5.5,5.2,12.4,9.1,21.7,12.9,9.4,3.6,17.3,5.8,24.5,5.8s5.8-.6,9.1-1.7l8.3-3.3,12.4-1.7c5-1.7,8.5-3.9,13.5-7.2l16.2-11.8,11.3-10.5,19.3-12.1,7.4-7.7h0l-.3,1.9v2.2l.6,5.5,2.2,29.4,2.2,9.4-2.8,9.9c-2.8,6.1-4.1,12.9-4.1,19.8v17.1l-4.1,15.4v2.8l.8,6.3-6.3,9.9-.8,1.9-5.2,17.3c-1.9,6.6-4.7,10.5-6.6,12.1l-9.4,5.5-17.3,17.6s-6.6,5-15.7,9.4c-9.9,4.7-17.9,6.6-22.3,6.6h-4.1l-4.7.8c-.8.6-1.7,1.1-2.2,1.4,0,0-.3,0-.6-.3l-4.1-1.7-13.5-.8-16.5-6.9-3.9-.6h-1.4s-1.4-.8-2.2-1.9l-7.2-11.8-8-10.7-1.7-5-2.8-6.3c-1.4-3-4.1-4.7-7.2-4.4-5,.3-9.6,1.4-13.2,5.8-5,6.6-7.7,14-7.7,21.7s.6,6.1,1.4,9.1c1.1,3,2.5,6.1,5.5,8.5l10.5,6.6,5,6.6,4.1,2.8,6.1,1.4,13.2,8.5c5.2,3,10.7,4.1,16.5,4.7l9.9,1.4,20.1,2.2h2.8l19-6.1,13.8-5c4.4-1.9,7.4-3.3,10.2-4.7s1.9-.8,2.5-1.1h.3l9.1-2.5,3-1.7,3.9-3.6,5.5-3,5.8-6.1,4.7-2.5c5.2-2.5,9.6-7.2,13.5-13.5l9.4-14.3,16-19.8,4.4-2.2,3-3.6,1.7-5,7.4-17.9.6-3v-8.8l2.2-5.2,2.8-12.1,2.5-6.1.6-3v-20.9l1.1-3.9.6-3-.8-16.5,1.7-9.9-1.7-5.8-3.3-3.9,6.6-17.9.6-2.8-.6-27.8.6-4.4-2.2-6.1-1.7-2.8Z"/>
      <path class="st1" d="M5053.7,2159.1c-3-8-5.5-13.5-10.7-17.3l-15.1-8.5-9.4-6.3-5.2-1.1-6.3,1.1-15.7-3.6h-2.2l-35.5,2.5h-1.9l-6.1,1.7-1.4,1.4c-.6-1.9-1.9-3.9-3.9-4.7l-4.4-2.2-14-6.6v-2.5c0-3,2.8-9.1,11.8-16.5l12.4-7.2,1.4-.8,3,.8h3l8.5-1.1h11.6l3-1.4v.6l5,3.9,8.3,2.2,12.1.6,5.2.6,3.6-.8,6.6-3c6.6-3.6,12.1-6.9,16.5-10.5,4.1-3.9,8-5.8,8.8-13.2,0-5.8-4.1-9.4-7.4-11s-8.3-2.8-12.7-2.8-5.8,0-8.8.8c-2.2.3-5.5.8-9.4,1.7l-4.1-1.4c-4.1-1.4-7.4-2.2-9.9-3-3-.8-5.5-1.7-8.5-1.7-5,0-10.5.8-16.8,2.8-6.1,1.7-12.4,3.9-19,6.9-6.3,2.8-12.9,6.1-19.8,9.9s-13.2,8-19,12.7c-9.4,7.4-17.1,15.4-22.3,24.2-5,8.5-8,16.8-8,25s1.7,12.1,5,17.3c3,5.2,7.4,9.6,13.2,11.6l9.1,3,5.8,2.8,4.4.6,3.6-.8,3,2.5,4.4,1.4h3.6l2.8,1.4,4.4.6,7.4-1.4c4.4,0,8.3-.8,12.1-2.8,1.4-.6,2.5-1.4,3.6-2.2l.6.8c1.4,1.9,3.6,3,6.1,3h16.8l10.2,1.7,5.2.6s2.5,0,3.6-.6v.6l9.4,13.2c.8,1.1,1.4,1.7,1.4,3.6,0,2.8-.6,6.3-1.9,10.7-1.4,4.4-3,8.5-5,12.7-1.9,3.9-3.9,7.2-6.3,10.2s-4.4,4.7-5.8,5.5l-7.2,2.5-8.3,4.1-16,1.7-10.2,2.8-3.6-.6h-7.2l-9.9-5-6.1-1.9-11-8.8-5.8-3.6-3.3-15.7-1.4-3-4.7-6.1c-2.2-2.8-5.8-3.6-8.8-2.2-6.6,3.3-12.4,6.9-17.6,11.3-5,4.7-8.8,6.9-9.6,14.6,0,5.5,2.2,10.7,5.5,16,3.6,5.2,7.4,9.6,12.4,13.2l11,6.3,8,5.2s3,1.9,5.2,2.8c1.9.6,4.4,1.4,8.3,2.2,7.4,1.4,12.4,2.5,15.1,3,3,.6,5.2,1.1,7.4,1.1l18.7-4.1,10.7,1.9h3.6l15.7-5.5,7.7-1.1,2.5-.8,18.2-9.4h4.7l5.5-3.3,4.4-6.1,9.1-9.9,1.4-2.5,3.6-9.6h.6c6.6,0,11.6-5,13.8-9.9,2.8-5.2,3.9-11,3.9-17.6s-1.4-16.2-4.4-24.5l-1.7-5.5v.3Z"/>
      <path class="st1" d="M5122.2,2050.7l-4.1.8-20.4,11.8c-7.2,3.9-12.9,9.6-15.7,16.8-1.4,3,0,6.3,2.2,8.3,2.5,1.9,3.6,3.6,3.6,3.6v13.8l-.6,5v7.2c0,2.8,1.4,5.2,3.9,6.3v1.7l-.6,11.6,1.9,5.2h0s-.6,2.2-.8,3.3c-.3,2.5-.6,5-.6,8l.6,4.4h0l-.6,6.9,1.7,5.2c2.5,3,4.1,5.5,4.1,6.1,0,.8.8,3.6.8,7.4v.6c-2.5.6-4.4,2.2-5.2,4.7l-1.4,3.6-.6,1.9-3,35.5,1.4,4.1-.8,2.8c-1.1,2.5-1.9,5.2-2.5,8-.8,2.8-1.1,4.7-1.1,7.2,0,4.4,2.8,7.4,5,9.4,2.5,2.2,6.1,3.3,9.4,3.3h.3c4.1,0,8.3-1.7,11.3-4.7l9.6-7.7c5.5-4.4,9.1-7.2,11-9.4,1.9-1.7,3.3-3.6,4.4-5.8l.8-3.6-.8-14.3v-6.9l-3.3-15.4,1.1-31.4v-41.3l.8-5.5c.3-2.8-.8-5.5-3.3-7.2-.3,0-.8-.6-1.1-.8l2.8-5,.8-3,1.4-20.9c0-2.2.6-4.4,1.1-6.3.3-1.4,1.4-4.1,3-7.7,1.1-2.5.8-5.2-.8-7.2-3.9-5.2-9.1-9.4-15.7-9.9"/>
      <path class="st1" d="M5134.3,1935.2c-3,0-6.3.8-8.8,1.9l-2.5,2.2-11.6,15.4-20.9,20.1c-3.6,3.6-5,8.3-5,12.7s.6,5.2,2.5,7.7c1.9,2.5,5.5,3.9,8,3.9h.3c7.4-1.1,9.1-4.1,17.6-9.6l11.3-7.7,7.2-6.9,14.6-10.5c4.1-3.3,5.2-8.3,5.2-12.1s-1.9-9.4-5.2-12.7c-3.3-3-8-5-12.4-4.7"/>
      <path class="st1" d="M5362.4,2199c-5.2,0-8.8,3.3-11,6.3-5.8,5.8-10.7,10.2-13.5,12.1-2.8,1.9-5.2,3-7.7,3.3l-3,1.1-11.8,8h-.6l-5.5.3c-4.7,2.2-7.7,3.9-9.6,4.7-.6,0-1.1.3-1.4.6h-1.1l-24.2-3h-9.1l-5-2.2-5.8-1.9-5-4.1-14.3-10.5-1.1-1.9c-1.4-1.9-3.6-3-5.8-3-.3-.8-.8-1.7-1.9-2.5l-5-6.9c-3.3-4.4-3.9-6.6-7.4-9.1-1.1-.8-2.2-1.1-3.3-1.7l1.9-4.7-.6-6.1c-1.9-3.9-3.3-7.4-4.1-10.5s-1.1-7.7-1.1-13.8l-.6-13.2.6-5,8-15.7v-.3h1.1c2.5-.6,4.4-2.2,5.2-4.4l2.8-5.8,6.1-1.9,3.9-2.8c4.1-5.8,7.4-8,9.6-8.3h4.4l19.3-3.6c.8,0,1.4-.3,3-.3h3l33.3,5.5h1.9l6.3-.8,4.7.8h1.9l3.3-.8,6.1-3,9.1-5.5c1.9-1.1,3.3-3.3,3.6-5.8v-.6c2.8-1.4,5.2-2.8,7.2-5.2,2.5-3.3,3.9-6.9,5.2-11.8.8-3.6-.8-7.4-4.4-8.8-1.4-.6-3-1.1-4.7-1.7-1.1-.3-1.9-.8-1.9-.8l-4.4-.8-16.2,2.5-19.3-3.3h-3l-8.3,2.5-8.3-3.9-1.4-.6h0l-4.4-.3-6.6,1.9-27.5,8.8-2.2,1.1-7.7,5.8-2.8.8-1.9,1.1-8.3,6.1-6.1,4.1-22,21.2-11.3,9.6-1.9,2.2-9.1,18.7-7.2,12.1-1.1,4.1.8,18.4-2.5,9.6c-.6,2.5,0,5,1.7,6.6l3.6,4.1-.8,3.3v2.8l1.1,12.1,1.7,3.6,3,3.9,4.7,8.3,5,5.5,4.7,2.2s.8,2.8,1.9,3.6l8.3,8.8,9.6,8.3,3.3,1.7,19.5,4.4,13.5,3.9,11.6,1.7,2.5,1.9,4.1,1.7,17.1,1.4,18.2-1.4,3-.8,10.7-6.1c3.3-1.7,5.8-2.2,6.6-2.2l13.2.6h1.1l3.3-.8,9.4-4.7h1.9l2.2-1.4,7.2-5,3.9-1.1,3.9-2.5,9.1-11.3c1.7-1.9,1.9-4.4,1.4-6.6l2.2-8.8s.8-2.2.6-3.9c0-2.5-.8-5.8-3.3-8.5-2.5-2.5-5.8-3.3-8.5-3.3"/>
      <path class="st1" d="M5428.7,2050.7l-4.1.8-20.4,11.8c-7.2,3.9-12.9,9.4-15.7,16.8-1.1,3,0,6.3,2.2,8.3,2.5,1.9,3.6,3.6,3.6,3.6v13.8l-.6,5v7.2c0,2.8,1.4,5.2,3.9,6.3v13.5l1.4,5.2h0s-.6,2.2-.8,3.3c-.3,2.2-.6,5-.6,8l.6,4.4h0l-.6,6.9,1.7,5.2c2.8,3,4.1,5.5,4.1,6.1.3.8.8,3.6.8,7.4v.8c-2.5.6-4.4,2.2-5.2,4.7l-1.4,3.6v1.9l-3.6,35.5,1.4,4.1-.8,2.8c-1.1,2.5-1.9,5.2-2.8,8-.8,2.8-1.1,4.7-1.1,7.2,0,4.4,2.8,7.4,5,9.1,2.5,2.2,5.8,3.3,9.1,3.3h0c4.1,0,8.5-1.7,11.6-4.7l9.9-7.7c5.5-4.4,8.8-7.2,11-9.4,1.7-1.7,3.3-3.6,4.4-5.8l.8-3.6-.8-14.3v-6.9l-3.3-15.4,1.1-31.1v-41.3l.8-5.5c.3-2.8-.8-5.5-3.3-7.2-.6-.3-.8-.6-1.1-.8l2.5-5,.8-3,1.4-20.9c0-2.2.6-4.4,1.1-6.3.3-1.4,1.4-4.1,3-7.7,1.1-2.5.8-5.2-.8-7.4-3.9-5.2-9.1-9.4-15.7-9.9"/>
      <path class="st1" d="M5440.8,1935.2c-3,0-6.3.8-9.1,2.2l-2.5,2.2-11.6,15.7-20.9,19.8c-3.6,3.6-5,8.3-4.7,12.7,0,2.5.3,5.2,2.5,7.7,1.9,2.5,5.5,3.9,8,3.9h.3c7.4-1.1,9.1-4.1,17.9-9.6l11-7.7,7.2-6.9,14.9-10.5c4.4-3.3,5.2-8,5.2-12.1s-1.9-9.4-5.2-12.4-8-5-12.4-5"/>
      <path class="st1" d="M5628.6,2209.4h0l-8,6.9-5.5,6.6c-1.4,1.7-3,2.8-5.5,3.6s-7.4,1.4-14,1.4l-3.3.8s-2.2,1.1-3.3,1.9c-.6,0-.8.6-1.4.8-6.6,4.1-11,5.5-13.2,5.2h0s-2.2-.8-3.9-1.4l-6.1.6-1.7,1.1h-.8c-2.8-1.9-6.3-1.4-8.5,1.1l-1.4,1.4-8-.8-2.5-3.3-4.7-3c-5.8-1.1-9.6-2.2-10.7-3-1.4-.6-3.6-2.2-6.6-5-.8-.6-1.4-1.1-2.5-1.4v-4.4l-4.1-17.6-.8-4.1,4.4-2.2,2.5-2.2,5.8-8.3,5.2-3.6,30.5-14.3,3-1.7,1.1.6,6.1.6,7.2-2.5,10.5-.6,3.6-1.1h.3l3,1.9,4.4,1.4,9.1-.6,18.7,1.4h1.4l-.3,1.9,1.7,19.3-.8,7.2.8,4.1s1.1,1.9,1.9,3c-3,1.4-4.7,4.7-4.1,7.7M5674.3,2218s0-.8-.3-1.9c1.7-1.4,2.5-3.3,2.5-5.5v-8.3l-1.9-16,1.4-18.7-.6-4.4-1.7-3.6-2.8-3.6,2.2-3.3,1.4-5-2.5-31.1-3-5.2c-3.6-2.8-3.9-4.1-4.1-6.3l.8-10.2v-5.2l-2.8-5.8-3.3-2.5-3.6-6.6c-.6-1.9-4.4-6.1-9.1-5.8h-.8l-2.2.6v-2.2c0-2.8-1.4-5.2-3.9-6.3l-3.9-2.2-2.2-.8-25-4.7-7.7-2.8-2.5-.6h-8.3l-10.5-.6h-1.9l-24.2,5.5-5.8-1.1-4.7.8-8.3,4.4-3,.6-14.9,5-11.3,5.5-6.3,1.1-3,1.4-6.9,5.2-3.6,2.5c-1.9,1.4-2.8,3-2.8,3.9-.6,1.7-.6,2.5-.6,3.3,0,5,2.8,8,5.5,10.2,2.8,2.2,5.8,3.9,9.1,5l6.3,1.4,5.2,2.5,1.9.6,4.4.8c6.3.3,11-3,13.2-6.9l2.8-3.9s2.5-2.8,6.1-4.7l20.6-10.2,6.1-5.5s2.8,2.5,4.4,3l4.1.6,5.8-.8,10.2.6,11,2.5c5,.8,7.7,1.9,7.7,2.2.3,0,3,3.3,6.3,8.5l3,4.7,5.2,3.3q4.1,1.1,4.4,2.5l-1.7,12.7v2.5l2.2,9.6c-.6.3-1.4.8-3.3,1.1l-16.8,1.7-9.6,1.9-6.6-.8h-1.9l-26.4,5c-6.1,1.4-9.4,2.2-12.4,3.3-2.2,1.1-3.9,2.5-5.5,3.9h-1.1l-3,1.4c-7.4,0-14.3,3.3-18.7,9.1h-.6l-11.8,5-6.6,2.5-1.9,1.4-16.5,13.5c-3.6,3-5.5,4.4-6.6,5.8-1.9,1.9-2.5,3.6-3.3,5.5l-2.8,7.2-7.4,14.9-.6,5.5,3,9.9v2.5l1.7,6.3c.6,2.5,2.2,4.1,4.4,5.2l2.8,1.1c2.5,5.5,6.6,10.2,11.6,13.8,6.1,4.4,12.9,7.2,20.1,8l9.9.8,12.9,3,7.7.6h1.9l3.9-1.1,4.7-1.9,6.3,1.1h2.5l19.5-4.1,6.3-.8,2.2-.6,8.5-4.1h7.2c5,0,9.6-1.1,14.3-3.3l9.6-3.3c-.3,1.7-.6,3-.6,4.4,0,3.3,1.7,5.8,3,7.4,1.9,2.5,5.2,4.1,8.5,4.1,4.7-.6,5.5-1.4,11.6-3.6l8-2.5,9.9-5.2,5-1.7,3.6-2.8,3.6-5.2,2.5-4.4c1.1-1.9,1.4-4.4.3-6.6l-3-6.9c-2.5-4.7-3.6-8-3.9-8.3"/>
      <path class="st1" d="M5915.8,2194.3v-2.5l-3-7.2h0l.6-14.9v-5.8l-1.1-5-2.8-3.6v-.6l3-6.1c1.1-2.2,1.1-4.1,1.1-5.8v-8.8l-.8-3.6-2.5-4.7h0l2.8-3.6,1.4-5.8-.8-5.2v-10.5c0-5.8-.6-9.4-1.1-12.4-.6-2.8-1.4-5.2-3.3-7.7l-3.9-6.3-3-5c-4.7-6.3-11-9.9-17.6-9.6h-.6c-5-3.9-11.3-6.3-17.6-6.6l-19-2.5h-3.3l-5,1.9-15.7-1.7h-1.9c-5,0-9.4,1.9-14,4.4-1.7.8-2.8,1.7-3.9,2.2-1.7-1.7-4.1-2.8-6.9-2.8-7.4.3-12.7,4.1-20.4,10.2-3.9,3-7.4,6.3-10.7,9.6v-12.1c-1.1-5-3.6-8-6.3-9.6-2.8-1.9-6.1-2.8-9.4-2.8s-8.8,1.4-12.1,4.1l-7.4,5.8-6.3,2.8-2.8,1.9-4.4,5.2-3.3,6.1c-1.4,2.5-1.1,5.8.8,8.3l3,3.9,5,13.8c-1.7,1.4-2.5,3.3-2.5,5.2v38.2c-.6,1.9.3,3.9,1.7,5.2.6.6.8.8,1.4,1.1-1.4,1.9-1.9,4.1-1.9,6.6v27.2l-1.4,12.7,1.7,11.6-1.7,5.8v20.1l-2.8,13.8s-.3,2.2,0,2.5v.6c0,1.4.8,2.5,1.7,3.6l1.1,1.7.8,1.1c2.8,3,6.3,5,10.2,5s8.8-3,11-6.3h.8l14-3.9c3.3-.8,5.8-3,7.2-5,1.7-2.2,3-5,3-8.3l-1.9-9.1-1.1-21.7-.8-3-3-5.2h0l3.6-8.3.6-3v-25l.3-7.2v-2.5l-4.1-10.7,2.2-11,.6-22s.8-1.9,4.1-3.9l9.1-4.1,7.4-5.5,4.7-.8,14.9-2.8,2.5.6c3,.8,6.1-.6,7.7-3,.6-.8,1.1-1.4,1.7-1.9l17.6,1.1,16-.8,9.1,5.2,3,1.1h.6l1.4,3.9c1.9,2.5,3.3,4.4,4.1,5.8.6.8,1.1,2.2,2.2,4.4v11l1.7,5.5.8.8-1.1,3.6v2.5l-.3,16-.6,6.3.6,3,1.4,4.1-3.3,37.7v2.5l1.1,3.6c.6,2.2,1.9,3.9,3.9,4.7-.8,1.1-1.4,2.5-1.4,4.1v9.1l-5.5,19v2.8c0,2.8.8,5.2,1.9,6.9,1.1,1.7,2.8,3.9,5.5,7.2,2.2,2.5,5.8,3.3,8.8,1.9l29.2-14,3.9-4.1,2.2-6.1v-2.8l-.8-23.1v-18.7h-1.1Z"/>
      <path class="st1" d="M6125.9,2159.1c-3-8-5.2-13.5-10.7-17.3l-15.1-8.5-9.6-6.3-5.2-1.1-6.3,1.1-15.4-3.6h-2.2l-35.5,2.5h-1.9l-6.1,1.7-1.4,1.4c-.6-1.9-1.9-3.9-3.9-4.7l-4.4-2.2-14-6.6v-2.5c0-3,2.8-9.1,11.8-16.5l12.4-7.2,1.4-.8,3,.8h3l8.5-1.1h11.8l3-1.4v.8l5,3.9,8.3,2.2,12.1.8h5.5l3.6-.3,6.6-3c6.6-3.6,12.1-6.9,16.5-10.5,4.4-3.9,8-5.8,8.8-13.2,0-5.8-4.1-9.4-7.4-11-3.9-2.2-8.3-2.8-12.7-2.8s-5.8,0-8.8.8c-2.2.3-5.2.8-9.4,1.7l-4.1-1.4c-4.1-1.4-7.2-2.5-9.9-3-3-.8-5.5-1.7-8.5-1.7-5.2,0-10.5.8-16.8,2.8-6.3,1.7-12.4,3.9-19,6.9-6.3,2.8-12.9,6.1-19.8,9.9-6.9,3.9-13.2,8-19,12.7-9.4,7.4-17.1,15.4-22.3,24.2-5,8.5-8,16.8-8,25s1.9,11.8,5,17.1c3,5.2,7.4,9.6,13.2,11.6l9.1,3,5.8,2.8,4.4.6,3.6-.8,3,2.2,4.4,1.7h3.6l2.8,1.4,4.7.6,7.4-1.4c4.4-.3,8.3-.8,12.1-2.8,1.4-.6,2.5-1.4,3.6-2.2l.6.8c1.4,1.9,3.6,3,6.1,3h16.8l10.2,1.7,5.2.6s2.5,0,3.6-.6v.6l9.1,13.2c.8,1.1,1.4,1.7,1.4,3.6,0,2.8-.6,6.3-1.9,10.7-1.4,4.4-3,8.5-5,12.7-1.9,3.9-3.9,7.2-6.3,10.2s-4.4,4.7-5.8,5.5l-7.2,2.5-8.3,4.1-16,1.7-10.2,2.8-3.6-.6h-7.2l-9.6-5-6.1-1.9-11-8.8-5.8-3.6-3.3-15.7-1.4-3-4.7-6.1c-2.2-2.8-5.8-3.6-8.8-2.2-6.6,3-12.4,6.9-17.6,11.3-5,4.7-8.8,7.2-9.6,14.6,0,5.5,2.2,10.7,5.5,16,3.3,5.2,7.4,9.6,12.4,12.9l11,6.3,8,5s3.3,1.9,5.2,2.8c1.9.6,4.4,1.1,8.3,2.2,7.4,1.4,12.4,2.5,15.1,3,3,.8,5.2,1.1,7.4,1.1l19-4.1,10.7,1.9h3.6l15.7-5.5,7.7-1.1,2.5-.8,18.2-9.4h4.7l5.5-3.3,4.4-6.1,8.8-9.6,1.4-2.5,3.6-9.6h.6c6.6,0,11.3-4.7,13.8-9.9,2.8-5.2,3.9-11,3.9-17.3s-1.4-16.2-4.4-24.5l-1.7-5.5h-.8Z"/>
      <path class="st1" d="M4313.3,1435.4c7.2,9.6,7.7,11.6,13.5,17.1h0c1.1,5.2,4.1,9.4,8.5,12.1l26.7,22.3,5.8,3.3c11.3,3.6,14.3,5.2,21.2,6.3h1.9c2.5,3.9,6.1,6.6,10.5,8,3,.8,6.6,1.9,10.5,2.8-.8-.3,1.9.8,6.3,3l8,1.9c1.9,0,3.3.3,4.4.8,3.3,1.4,6.3,2.8,8.8,4.1,4.1,2.2,9.1,2.5,13.8,1.1,2.8,2.2,6.3,3.6,10.2,4.1,2.5,0,4.4.3,6.3.3h13.2c1.4.6,2.5,1.1,3.6,1.7,2.8.8,1.1,1.9,10.2,2.8h.3c5,0,9.4-1.4,13.5-3.3,2.2.6,4.4.8,6.6.8h6.9c1.4.6,3.6,1.1,6.1,1.9l6.6.8,9.6-.8h10.2l6.3-1.1,13.8-2.2,3.3-.8c3.9-1.4,13.5-3.9,27-6.6l12.7-1.4c9.4-1.7,15.7-5.2,28.3-11,13.2-6.6,24.5-12.9,33.8-19.3,2.5-1.7,4.4-3.9,5.8-6.3,8.5-1.4,12.7-6.3,15.1-9.4.8-1.1,4.4-5.2,9.9-10.7l9.9-10.7,4.4-3.9,3-3.6,8-12.1c3.6-4.1,8-9.6,11.6-15.1.8-1.7,2.8-4.4,6.3-8.8,3.3-4.1,4.4-9.4,3.6-14.3l3.3-5,3-9.4v-1.9c2.8-4.7,4.7-9.4,8-17.3l1.4-5.5v-1.7c3.9-4.7,5-10.7,3.3-16.2h0c1.9-4.7,3.6-8.8,3.6-14.6v-23.1c0-6.3-1.4-12.1-3.6-22.6,0-10.7-3-21.5-8.3-30.8-.8-1.7-2.2-3.3-3.6-4.7,0-.8-.3-1.7-.6-2.2-1.7-3.9-1.9-6.1-5.2-10.5h0s-.6-.8-1.1-1.1c0,0-.3-.6-.6-.8h0c-5.2-5.8-9.4-7.7-16.5-12.4-.8-.3-2.5-1.4-4.7-3-3-1.9-1.4-1.9-9.1-5.5l-28.1-9.4-7.4-3.9c-7.7-3.9-14.3-4.7-24.8-6.3-.8-.3-2.2-.6-3.9-1.1-4.1-1.1-8.5-.8-12.7.8-2.5,1.1-4.4,1.9-6.1,2.8h-1.4c-.3-.6-.8-.8-1.1-1.4-3.6-3.6-8-5.5-12.9-5.5h-54.7l-6.9-.6c-2.5,0-5,0-7.7.8-.6,0-.8-.3-1.4-.6-8.8-2.2-14.9-3.6-21.7-3.9-2.2,0-3.9,0-5.5.6h-1.9l-15.1-3h-6.3l-7.2.6c-6.1-2.2-12.7-1.1-17.6,2.8-5.2-5.5-11.6-9.9-18.7-12.4l-11-3.3c-1.4-.8-6.1-4.4-12.1-10.2-.3-.3-.6-.8-.8-.8-1.1-6.9-1.4-11.8-1.4-13.8s1.4-7.4,6.9-15.1c3-3.9,5.2-5.2,8-6.3,3.6-1.1,6.6-3.3,8.8-6.1,5.5,0,11-2.5,14.6-7.2,2.8-3.3,5-5,11-6.1,5.2-.8,9.6-3.9,12.7-8.3l18.2-7.2c3-1.4,5.8-3.3,7.7-5.8h.3l10.2-.6,18.4-6.1,20.9-4.1,3.6-1.1c2.8-1.1,5.8-1.9,9.1-2.2,3.9,2.8,8.5,3.9,13.2,3,6.1-.8,11-4.7,13.8-10.2.6-1.4,1.1-2.5,1.7-3.3h3.3c2.5,3,3.9,5.2,5.5,6.9.8.8,1.4,1.7,2.5,2.8,2.5.6-.8,3.3,13.5,5.8h6.1l10.2,3.3,6.1,1.1h4.1s1.1.6,1.7.8c5.2,3,11.8,3,17.3.3,3.6-1.9,6.3-3.9,9.4-6.3,0,0,1.9-1.4,4.4-3.3,1.4-.8,3.6-2.5,7.7-5.8,5.5-4.1,8.3-11.3,6.6-18.2l-1.9-9.1c-1.4-6.6-6.3-12.1-12.9-13.8-12.1-3.3-21.7-5.5-29.4-6.6l-5.5-1.4-3.3-.6-12.1-1.1c-7.2-.6-8.5-.8-11.6-.8l-21.5,2.2-43.5,4.1h-1.9l-8.5,1.9-31.6,8.5c-6.3,1.7-14.3,4.1-24.2,7.7-5.2,1.9-11,4.7-19.3,9.1l-36.3,16-9.4,5-7.2,3.3-3.6,2.5-12.4,10.5-9.1,6.9-3,2.8c-6.6,7.7-13.5,15.4-20.4,23.4-2.5,2.8-1.9,3-3,4.4-1.9,3.6-3.6,7.4-6.3,14.3l-1.1,4.7-1.4,9.9c-3.3,3.3-5.2,7.7-5.2,12.7s1.7,11,4.1,15.7v2.5c0,9.4,3.6,16.5,7.7,23.7,7.2,11.6,14.3,20.9,22.8,27.8,6.3,4.7,12.7,7.7,23.1,12.4l5.2,2.8,8.3,1.9h6.1l3.9.6c.8.6,1.9,1.1,3.3,1.9,7.2,3.3,13.2,4.4,20.9,5.5l8,2.8,6.1,1.1c14.9-2.5,11-5.2,13.5-5.8.6-.6,1.1-1.1,1.7-1.9,2.8,4.1,7.4,7.2,12.7,8,6.1.8,11.6-1.4,15.7-5.5,2.8,3,5.5,3.9,6.1,4.4,4.4,1.7,5.2,1.7,5.8,1.7h17.9s1.1,0,4.1.3,5.8.6,8.5.6,6.9-.3,11-2.2c2.5,1.4,5.8,2.5,10.7,2.8,4.7,0,6.6-.6,14-1.7l1.7-.6,13.8,3.3,4.1.6c1.4,0,2.5-.3,3.6-.6,1.9.6,4.1,1.4,6.9,2.5l5.5,1.9,3.6.8c7.4,1.1,13.2,2.2,16.8,3.3,0,0,1.7.6,5.2,3l2.8,1.4c5.5,2.5,9.9,4.4,12.7,5.8,1.4.8,2.5,1.1,3.3,1.4h.3l.3.3c0,1.7.6,3,1.1,4.7,5.5,16,8.8,27,9.4,30,.3,1.9.8,3.6,1.7,5.2,0,1.9-.3,3.9-.3,5.8-.6,1.9-1.9,7.2-4.1,14.3l-.6,3c-.3,3-.8,5.5-1.1,7.2,0,1.4-.3,1.4,0,1.4-1.4,3.9-3.3,2.2-4.7,14,0,3.3.8,6.1,1.7,8l-.8,2.8v1.1c-3,2.8-5.2,6.6-5.8,11v1.4c-4.4,7.7-7.7,9.4-9.4,20.6h0v.8c-.6.8-1.4,1.7-1.9,2.8l-1.4,1.9-3,5.2-2.8,2.5-3.3,3.6c-3.9,5.8-6.9,9.9-8,11.6-1.7,1.7-4.7,4.4-9.1,8.3-8.5,5.5-13.8,9.1-15.7,10.2,0,0-1.4.6-3.9,1.4-3.3,1.1-7.7,2.8-13.5,4.7l-2.5.8-6.1,3h-2.5l-4.4,1.1c-5.5,1.9-9.6,3.3-12.4,4.1h-.6c-1.1,0-3-.6-5-.6-5.2-.3-11,2.5-14.9,5.8-1.1,0-2.2-.6-3.9-.8h-4.7c-8.3,1.4-14,2.2-19,3.3l-1.9-.6-5-.8c-7.7.8-4.4.8-7.2,1.1h-12.1l-26.7-1.1s-11.3-1.9-29.2-5.8c-5.5-2.5-8.5-3.9-9.9-4.7l-1.9-.6c-3-.8-5.2-1.1-8.8-1.7l-5.5-3.3-2.8-1.4-28.6-11.6c-1.9-1.4-6.9-5.5-13.5-11-1.1-3.6-1.9-6.6-3-9.1-.6-1.4-1.1-2.8-1.9-4.4-1.4-1.4-.8-3.3-5.5-6.6h0c-1.9-1.4-3.9-3-7.4-3.9v-9.6l-.8-3,.8-4.1c.6-4.1-.3-8.5-2.5-12.1l-3.9-6.3c-2.2-3.3-4.1-6.1-6.6-8.5-4.1-4.4-11-6.9-16-6.9s-3.9,0-5.8.6c-8,1.1-14.3,7.4-15.4,15.4v.8c-1.4,1.7-3.6,4.4-6.1,7.4l-3,5.2-2.5,6.3c-3.9,7.4-5.5,7.7-8,17.6-.8,5.5,1.4,11.3,5.2,15.1,1.4,1.4,3.9,4.4,6.6,8.8"/>
      <path class="st1" d="M4889.5,1066.5c1.4-4.7,1.9-9.4,2.5-15.4,3.9.3,6.3.8,6.6.8,4.4,1.4,8.8.8,12.7-.8,1.1.8,2.5,1.4,3.9,1.9,6.6,2.2,10.2,3.6,14.3,4.7,5.5,1.7,10.5,1.9,16.8,2.2h2.5c2.2,0,4.1-.3,6.1-1.1,1.7,1.1,3.3,2.2,5.5,3,7.4,2.2,10.5,1.9,19,2.8,1.7.6,2.8.8,3.9,1.1,2.8.6,0,.6,7.2,1.4,1.7,0,3,0,4.4-.6,1.7,1.4,3.3,2.2,5.5,3,2.8,1.1,5,1.7,6.6,2.2,5.8,1.9,9.9,3,12.7,4.1v-.6c5.5,3.3,9.1,5.5,11.3,6.9,1.1.8,2.2,1.4,2.8,1.7.6.3.8.6,1.1.8,0,.6-.6.8-.6,1.4l-1.7,4.1c-.8,3-1.7,5.2-2.2,6.6,0,.6-.3,1.1-.6,1.4h0c-2.5,4.1-4.7,7.2-5.2,7.7-6.3,7.4-10.2,8-10.5,7.7l-7.2,1.4c-9.1,3.9-16,6.3-16.8,6.6-1.9,0-3.6.8-5.2,1.7h-1.4c-7.4.8-7.2,1.4-10.7,2.2h-5.2c-3.6.3-7.2,1.4-9.9,3.6,0,0-.6.3-.8.6-.8,0-1.7,0-2.5.3-4.1.8-10.5,1.4-19.3,1.9-19.8,2.5-27.5,3.3-33.3,4.4-2.2-1.1-4.4-1.7-6.9-1.9h-.8v-1.9c.8-5.5-.8-10.7-4.1-14.6v-25c.6-2.8.6-5,.8-8.8,0-3-.6-5.8-1.7-8.5.8-2.5,1.1-5.2.8-7.7v-1.4M4811.1,1053.6c.8,3.6,1.4,4.7,2.2,5.8-.8,3-.8,6.3,0,9.4.8,2.5,1.7,6.3,2.8,11l2.2,5.2s1.4,2.2,1.9,3c-1.1,1.9-1.9,4.4-2.5,6.9-.6,3.6,0,7.2,1.7,10.2-2.2,3.6-3.3,8-2.5,12.1l2.2,14.6c.3,2.8,1.4,5.2,2.8,7.4v5.2c1.1,5.8,1.7,10.2,1.7,13.2s.6,5.2.8,9.4c.3,2.8.3,4.7.3,5.8h0c-1.4,5-2.8,6.1-3.3,14,.6,6.6,1.1,6.6,2.2,11.8l.6,9.1v3s.8,2.2,1.1,3c0,.8,0,1.7-.3,2.8-.8,3.9-.8,5.8-1.1,9.1-.3,5.8,2.2,11.3,6.6,15.1h0l-.6,8.5v12.1c-.8,2.8-1.1,2.5-1.7,8.8,0,1.7-.3,3.6,1.9,8.8-1.7,3.3-3,7.2-3.3,12.7v20.6s.3,1.9,0,5.2c-.3,4.1.6,8.3,3,11.6-4.7,4.7-6.3,11.8-4.4,18.4.3,1.1.6,1.9.8,2.5,0,1.1-.3,2.8-.8,4.7v2.8l-.3,29.2c0,.8-.6,1.9-.8,3.6-1.4,5.8,0,11.6,3.6,16v.6l-.8,3-1.4,11-2.2,12.7v3.3h-.3c.3,3.9.8,6.3,1.7,8.5-1.4,2.5-2.5,5.2-3,8.5l-2.2,12.7v9.9c-.8,3-1.7,5.5-2.5,7.4-.3,1.4-.8,2.2-.8,3,0,1.9-.3-1.4-.8,6.1.6,10.2,4.1,13.8,7.4,18.7,3.6,4.7,8.8,7.2,14.6,7.2s3.6,0,5.2-.8c3.6-1.1,10.2-3.3,20.4-6.9,5.2-1.9,11-1.7,19-12.4,0-.3.3-.8.6-1.1,2.8-.8,4.7-1.7,8.8-3.6,9.1-6.1,11.6-16,11.3-22.3,0-3-.3-5.8-.8-8.3-1.9-6.6-3-11-3.9-13.8,0-1.1-.6-1.9-.6-2.5v-.6c1.1-10.5,1.7-18.7,1.7-25.9s-1.1-10.2-5-15.1l1.1-2.5,1.1-6.9v-2.5l-.8-7.7s0-1.7.3-3c.6-2.8,1.1-5.2,1.1-9.4s0-3.6-.6-4.7c-.3-1.9-.8-3.9-1.9-5.8,0-.3,0-.6.3-.8l.8-5.8-.8-17.1v-26.1l.8-31.9v-4.4l-2.5-10.7c0-10.2-.6-19.8-1.7-28.6.8-1.7,1.7-3.6,2.2-5.5,1.4-7.4,1.7-17.9,2.2-37.4l.6-4.1c1.7,0,3,0,4.4-.6,2.2-.8,1.9.6,7.7-2.2h0c3.6-1.7,6.3-3,7.7-3.6,3-.3,9.9-.8,19.8-1.4l5.5-1.1,5.2-1.9,5,.6,6.9-.6,5.2-1.4c6.3-1.1,10.7-1.9,11.6-2.2l4.1-1.1c2.8-1.1,5-2.8,6.9-4.4h5.2l6.1-1.1,9.9-3.6,9.9-2.2,4.4-1.7c3.9-2.2,6.9-3.6,9.1-4.7,1.1-.6,1.7-.8,2.2-1.1h0s2.5-.6,5-.8c5.2-.6,10.2-3,13.2-7.4,1.4-1.9,2.5-3.3,3.3-4.1l5.8-1.9,3-1.4c6.6-4.1,6.1-4.7,11.3-9.4.6-.3,1.7-1.4,3.9-3.3,3.9-3,6.3-7.4,6.9-12.1.6,0,1.4-.3,1.9-.6,3.6-1.1,8-3,12.4-8.3,5.2-8.3,4.1-9.4,6.1-15.4l3.3-7.2,1.4-4.1c1.4-8.8,1.9-8.5,2.5-15.1-.3-7.2-2.2-9.9-3.9-13.2-1.7-2.8-1.7-5.5-9.1-11.3l-4.1-3c-2.8-6.6-9.4-11-16.8-11h0s-2.5-1.7-4.1-2.8c-3.6-2.5-8.3-3.9-12.7-3-4.7-2.2-7.7-3.9-12.1-5-4.7-1.1-9.1-1.9-14.3-3l-7.7-1.1-9.4-2.5-2.8-.6c-5-.6-8.8-1.4-11.8-2.2-2.5-1.1-4.4-1.9-6.1-2.5-3-.8-.8-1.4-9.6-2.2h-3.6s-2.2,0-3.3.3c-3.3-2.8-7.4-4.4-11.8-4.4h-6.9l-14.6-3.9-3.6-.6-14.3-.8c-10.7-2.8-18.7-4.4-26.4-4.7-8,0-14.9,0-21.2.8-2.5.3-5.2.8-7.4,1.7-3.6-2.2-7.7-3.6-12.7-3.6-9.9.8-11,2.8-19.3,5.5l-4.1,1.7-3.3,1.7-6.1,3.9c-8,2.8-13.8,5-18.7,7.7-6.9,3.6-14,12.9-13.8,22.6,0,5,1.4,10.2,4.1,14.6,2.2,3.9,5.8,6.3,9.6,7.7"/>
      <path class="st1" d="M5135.2,1514.1c4.7,1.9,8.8,3.6,15.4,3.6h0c7.2,0,13.8-2.5,19.3-5.8,1.9-1.1,3.9-2.2,6.1-3.6,4.7-.8,7.2-1.1,12.7-3.6l2.5-1.7,5.2-3.9c8.3-1.7,14.3-9.1,14.3-17.6v-50.6c0-1.7,0-3-.6-4.7.3-1.4.3-2.8.3-4.1l-.8-48.7v-5.5h0v-.8l.6-4.7c-.8-8.5-2.2-9.6-3.6-11.8v-1.1c0-1.4-.6-2.8-1.4-4.1,2.5-3.3,4.4-7.7,5.2-14.9v-26.4l-1.7-7.7v-35.8c1.9-5,1.7-10.5-.8-15.1-.6-1.1-1.4-2.2-2.5-3.3l.8-1.4c.8-3.6,1.7-3.9,1.9-10.2l-.6-16.2c.3-3.3,1.1-9.9,2.2-19.5.6-5.5-1.4-10.7-5-14.6,2.2-10.2,3.6-19.8,3.9-28.9,0-3.3-.8-6.6-2.5-9.4,1.4-8.3,2.8-17.6,3.9-28.3v-1.9s0-1.9.8-5.2c.6-5-.8-9.9-3.9-13.8,1.7-2.8,2.8-6.1,2.8-9.6v-16.2l1.1-39.1c0-2.2,0-4.1.3-5.2,0-3.6.3-4.4.3-6.3-.6-6.1-1.7-9.9-3-14.6-1.7-5.5-5.8-9.6-11-11.6-5.2-1.9-11.3-1.4-16,1.9,0,0-1.9,1.1-6.6,1.4-6.3.3-12.1,3.9-15.1,9.4-1.4.3-2.5.8-3.9,1.4l-4.4,1.7-5,2.5-6.3,5s-2.2,1.1-3.6,1.9c-.8.6-1.4.8-2.2,1.4-.8,1.1-1.1,0-3.3,3-4.4,4.7-6.1,11-5.8,15.4h0v3.3l.6,2.8c1.1,6.3,5.2,11.3,10.7,13.8,0,11,0,16.8,2.5,25-1.4,7.7-1.9,9.6-2.2,14.9,0,3.3.6,6.3,1.1,9.4.8,3.3,2.5,6.1,4.7,8.3-2.5,6.1-3.9,12.7-3.6,19.3,0,3.3.8,14.3,2.5,38.2v3c-1.1,11.3-1.7,18.7-1.7,23.9.6,5.8,2.2,9.9,4.4,13.2-1.7,2.8-3,6.6-3.6,11.6,0,3,.6,5.5,1.1,7.7.8,2.5,1.1,4.4,1.4,5.5-.3,1.1-.6,2.8-.8,5.5l-.6,26.7c0,2.2,0,3.9.3,5.8h0l-.8,13.2v3.9c.8,3.3,1.1,6.1,1.4,7.7v.8c-.3,1.7-.8,5.5-1.9,10.5v23.9l2.5,10.5c0,1.7.6,3.6,1.4,5.5-3,3.3-4.7,7.7-4.7,12.1v1.1c-1.4,1.9-2.5,4.1-3.3,6.9-.6,2.8-.8,5.2-1.4,9.6v43.5c0,3-.6,5.2,1.4,10.5-.8,2.2-1.4,4.4-1.9,6.9-1.4,11.8-3,19.3-3.6,20.1-1.7,4.1-1.9,8.8-.3,12.9-.3.6-.6,1.4-1.1,2.2-1.7,3.9-2.2,6.3-3.3,10.2-.8,2.5-1.7,5.5-2.5,8.8-1.9,8.5,2.5,17.3,10.7,20.6"/>
      <path class="st1" d="M5263.6,1066.5c0,6.1,3,11.6,8,14.9.3,3,.8,6.3,1.7,10.7l-1.1,19c0,4.1.8,7.7,3,11,0,.6-.3,1.4-.6,1.9-1.4,6.1,0,12.4,4.7,17.1,0,.3,0,.6-.3.8-3.6,3.6-5.5,8.5-5.2,13.8.3,6.3.3,10.7.3,13.5v9.4c-.3,5.2,1.9,12.1,6.3,16.8v1.1c0,1.9-.6,4.7-.8,7.7-.6,6.3-.8,10.2-.8,13.8v25.6l.6,4.4,2.8,11v1.4c0,.3-.3,1.9-.3,4.7v1.1c-1.4,2.5-2.5,6.1-3,11,0,1.7,0,3.3.3,5.8v1.9s.8,5.8,1.1,14.3c0,8.3.8,15.4,2.2,22.3h0s-.3,2.5-.6,4.4v2.2l-.8,12.7c-1.1,12.9-1.9,21.5-2.2,26.1,0,3.3.6,6.6,2.2,9.4,0,1.7-.6,3.3-.6,5,0,3,.3,5.2.8,10.7v6.1h0v3.3c-.6,8.3,4.1,15.1,8.8,19-.3,0-.6.6-1.1,1.1-.3,1.4-1.9.6-3.3,4.7-1.4,2.2-2.2,4.1-3.9,7.7l-1.4,3-1.7,7.7v11.3l-1.1,8-.6,9.1c-1.7,11.3-2.5,14.6-2.8,19.8,0,4.7.8,6.6,1.7,9.6,1.4,5,4.7,9.1,9.1,11.3,4.4,2.2,9.6,2.8,14.6.8,3.9-1.4,7.2-2.8,10.5-4.7,7.7-4.7,13.8-8.3,18.2-11h3.6c6.1-.8,11-4.4,14-9.6,2.5-5.8,4.7-7.4,5.5-17.3h0v-3l-1.4-7.7s.3-2.5.3-4.4c0-3.6-.3-6.9-.8-10.2-.6-3.9-1.1-10.7-1.4-20.1l-1.1-10.7c0-12.9,0-19-.3-22.8-.6-4.4-1.4-8.8-2.5-14.6-.3-2.2-1.1-4.1-2.2-5.8,2.5-4.1,3-9.4,1.9-14,0-.8-.3-1.4-.6-1.9l.6-11v-5l-1.4-4.4v-5.8c-.8-9.1-.6-4.7-1.1-7.2v-.8c1.4-1.7,2.2-3.3,2.8-5.5,1.1-4.1,1.9-5.2,2.2-11.3,0-2.5-.6-11-1.4-29.7v-3.3c0-2.2.3-5.5,1.1-9.9.8-5.8-.8-11.3-4.7-15.4.3-.8.6-1.4.8-2.2,1.7-6.1,2.8-7.4,3.3-14.9-.3-4.7-.8-6.6-1.9-17.3l1.1-16.8-.6-5.8c-1.7-6.3-2.8-9.9-3.6-12.9-.3-.8-.6-1.9-.8-2.8,0-.8.6-1.4.8-2.5,1.4-5.2,1.1-8.5,1.7-16.5,0-.8.6-5.8,2.8-13.2,1.4,1.4,3,2.8,4.7,4.1,0,.6.3,1.1.6,1.9h0c3.9,10.5,9.1,11.8,14.3,16.2.6.3.8.6,1.4.8.6,3.3,2.2,6.3,4.4,8.8,1.4,1.4,7.7,9.6,16.5,22,3.6,4.7,5.8,8,7.2,9.9h0c2.5,5.5,5.2,6.6,7.2,7.2,2.2,3.3,4.4,6.9,6.9,10.5,1.1,1.4,2.5,3.3,3.6,5.5,2.5,3.6,5.8,6.1,9.6,7.2,1.4,3.6,3,6.3,5.2,9.9.8,1.4,1.7,2.8,2.5,4.1,1.7,1.4,0,1.1,3,3.9,3,3.6,5.2,6.6,6.6,9.4,4.1,6.9,8.5,11,14.3,15.7,3.3,3.9,5.8,6.9,8.3,9.4,0,.6,0,1.1.3,1.7l.6,2.2,3.3,7.4,26.4,34.1.8,2.5c.8,2.5,2.5,5,4.4,6.6,1.9,10.2,10.2,17.3,17.9,20.6l3,3h0c0,.6.3.8.6,1.4-.6,5.2.8,10.2,4.4,14.3,2.8,3,4.7,5.5,5.8,7.4,3.3,4.4,6.1,6.9,11,11.3-1.9,6.6,0,13.8,5.2,18.4,3.9,3.6,6.3,6.3,6.9,7.4,1.4,2.2,4.4,7.7,8.5,15.7,2.2,4.1,6.1,7.2,10.5,8.5h.6c1.7,7.4,4.1,9.6,7.7,15.7l1.9,4.7,1.1,2.5,5.8,10.2c3,6.3,6.3,12.4,15.7,17.1,1.9.8,4.1,1.4,6.6,1.7,2.2,7.7,9.4,12.9,17.3,12.9h2.2c9.9-1.4,18.4-6.1,26.7-12.4,6.9-6.3,14.9-9.6,16.8-26.1v-4.1c-.8-3.3-1.4-5.8-1.7-7.4v-1.7c0-2.2.6-4.7,1.7-7.7,2.8-7.2.6-14.9-4.4-19.5,2.2-2.5,3.6-5.8,4.1-9.1.8-6.6-1.9-13.5-7.7-17.3l5-8.8c2.2-4.1,2.8-8.8,1.7-13.2l-1.4-5.5v-6.6l-1.4-9.9v-9.4c.3-5,0-5.5-.6-8.8,0-.6,0-1.1-.3-1.7.3-.8.8-1.7,1.1-2.5.6-3,1.4-1.4,1.9-9.1v-3l-2.8-13.8v-11.6l-.8-3.3-1.1-5.2v-1.4l.6-2.8h0v-19.5l1.7-15.1v-1.9l-1.9-8.3-5.8-11.8c3-1.9,6.9-5.8,8.3-15.7v-.6l-.6-5-2.8-9.6s.8-1.4,1.4-1.9c2.5-4.4,3-9.4,1.4-14.3l-.8-2.8.8-36.3.6-2.8c1.1-4.7,0-9.4-2.5-13.5h-.6s.8-7.2,3.3-16.2l.6-5.2-1.4-37.1c3.3-18.7,4.7-23.7,5.2-30.5,0-6.9-1.7-10.5-3.6-17.6-.8-4.4-6.3-17.3-21.5-17.9-11.8,1.4-9.4,3-13.8,4.7-2.8,1.7-6.3,3.9-10.5,6.9-4.7,2.8-8.8,5.2-11.8,7.2-3.6,2.5-3.3,1.7-8.3,6.1-5.2,6.6-5.8,10.5-6.6,14.3-1.1,5,0,10.2,3.3,14.3-.6,2.8-.3,5.5.6,8.3.6,2.2,1.4,5,2.2,7.7v9.4c1.1,2.8,1.7,4.7,1.9,6.1q.2.9,0,0c-.3-1.4-.3,1.7-.6,3-1.1,5,0,10.2,2.5,14.3,0,1.4-.6,2.8-.6,5,.3,5.5,1.1,7.7,2.8,19l.6,20.4.8,20.6-.8,30.3v1.1c0,.6-.3,1.4-.6,2.2,0,.3-.6,1.9-.6,5.2s.3,4.4.8,5.5c0,.6-.3,1.4-.6,1.9-.8,3.6-1.4,6.9-1.4,10.5s.3,7.2.8,10.5c0,1.4.3,2.5.3,3.3-1.1,5.8-1.7,7.2-2.2,12.9,0,5.2.8,7.2,1.9,12.9l-.6,17.6v3.3c.8,4.4,1.4,8,1.9,10.2v.8c-.8,3.9-1.1,4.7-1.4,9.6,0,7.4,1.9,14,5,20.6-1.4,3.3-2.5,7.2-2.8,11.8,0,4.4.6,7.7,1.9,19.3v2.5c0,2.8,0,6.3-.8,10.5,0,1.4-.3,2.8-.6,4.1-.6-.6-.8-1.1-1.4-1.7-.8-.8-1.4-1.4-1.9-1.9,1.1-6.3-1.4-12.7-6.3-16.8-1.1-.8-3.6-3.6-6.6-8.3l-1.9-2.5-16.8-19c-4.4-6.6-7.7-11.6-9.9-15.1-1.4-1.9-2.5-3.3-3.3-4.7-1.7-1.4,0-1.1-3-3.6-1.7-1.7-3-3-4.7-4.1-1.9-2.8-4.4-5-7.2-6.3l-6.1-7.7c-2.2-2.8-5.2-5-8.5-6.1v-.6l-3-6.3-9.6-12.4-6.3-9.4-5.8-7.4c-2.8-5.5-4.4-9.1-8.8-13.8l-7.7-6.9h0c-1.4-1.7-4.7-6.3-9.4-13.2-1.1-1.7-2.8-3.9-5.5-7.4-2.5-3-5.8-5.5-9.4-6.6-1.7-1.7-3.9-3-6.1-3.9v-2.2c-2.2-14.3-4.7-12.1-8-18.4l-23.4-32.5c-1.4-1.9-2.2-3-2.8-3.9h0c-1.9-7.2-6.1-13.8-11.3-19.5-3-3-8.3-9.6-14.9-19.5-6.1-8.5-9.4-15.4-9.1-15.4-2.2-6.9-8.3-11.6-14.9-12.7-1.4-1.9-2.8-3.9-4.4-5.5l-2.5-6.3c-1.4-3.9-4.1-7.2-7.7-9.1-.6-.3-1.4-1.1-2.8-1.9,0-.3-.6-.6-.8-.8,0-4.1-1.4-8.3-4.1-11.6-1.4-1.7-2.2-3-2.8-3.9v-1.1c.6-5-1.4-10.2-4.7-13.8-1.9-2.2-4.4-3.9-7.2-4.7-1.9-3.3-4.7-6.1-8.3-7.4-5-2.2-10.7-2.2-15.7.3-5.8,3-10.5,5.5-14.6,8.5l-2.2,1.7s-5.2,5-14.3,13.5l-3.9,3.6-3.6,4.1v.6s-2.2,1.1-3,1.7-1.7,1.1-2.8,1.9c-.6.6-1.1.8-2.2,1.9-.6,1.1-1.9,1.4-3.6,4.7-1.9,3.6-3.3,8-3,11.8,0,2.2.3,4.4.8,6.3h0l-1.9-2.5Z"/>
      <path class="st1" d="M6187.6,1449.7c-3.6-6.1-12.4-9.9-17.9-9.4-8.8.8-11,2.8-14,4.7-3,.8-9.9,2.5-19.5,4.4h-8.5l-3.9.6c-3.6.8-6.9,2.2-10.2,4.1-1.9,1.1-3.3,2.5-4.7,3.6-2.5-.8-5.2-1.7-8.8-1.7-6.1,0-11.8,2.2-16,5.2-5.2-4.1-12.1-5.2-18.4-2.8-1.9-.6-3.6-.8-5.8-.8h-4.1c-4.1-.8-1.9-1.1-9.9-1.9-2.2,0-3.9,0-5.8.6h-1.7l-44.3.6h-5.8c-3,.6-5.5.8-6.9,1.1h0c-1.9,0-6.6-.3-13.5-1.1,0,0-2.2-.3-4.1-.3s-3,0-5.8.8c-2.2.3-3.9.8-5,.8h-19.5l-26.1-2.2h-5.5c-3.3.8-5.8,1.9-7.7,3-1.4-.8-3-1.4-4.7-1.7-4.7-.8-9.6,0-13.8,2.8l-.8.6h0c-1.7-.8-.3-.8-6.3-2.5-4.7-.6-6.3-.6-9.6-.6h-7.2l-6.9-.8h-5.2l-16.5,3.6c.8-3,1.4-6.3,1.4-9.6l-1.4-21.7v-16.5l-.8-5.2c-.3-1.4-.8-2.2-.8-3.3.3-1.1.8-3,1.7-5.2,2.2-6.3.8-13.5-3.9-18.4.8-3.3.8-6.6-.3-9.9h-.3s0-1.9.3-5.8l.6-14,.8-3.9.6-4.4v-7.7l.6-5.8v-5.2l-.8-5v-8.5l-.8-2.5-1.1-5.5c1.4-3.6,1.7-7.4.6-11-.6-1.9-1.4-3.9-2.5-5.5.8-2.2,1.4-4.7,1.4-6.9v-4.7c0-5,0-7.7-1.7-13.5-.6-1.7-1.1-3.3-1.7-4.7,1.7-3.3,3-7.2,3-11.8-.6-6.3,1.4-5-2.2-15.7-.3-.6-.6-1.1-.8-1.7,1.7-2.5,3-5,4.1-10.5v-4.7l-1.1-12.9v-25.9h3.9l4.1-.8,3.3-.8h11.6l4.7,1.1,4.7.6,19.8-.6,15.4,2.5h5.5l15.7-2.2h3.6l8.3.6,6.9,1.7h6.3c4.4-.3,7.7-.8,10.2-.8s1.9,0,2.5-.3c1.7,0,5.2.6,10.5,1.4h4.1c4.7-.6,7.7-.8,11.3-1.4.8.3,2.5,1.7,8.3,1.9,2.2,0,6.1,0,11.3-3.6,4.1,3,9.6,5,14.9,4.7,5.8,0,8-1.1,12.9-2.5,4.1-1.1,7.7-3.6,10.2-7.2,0,0,.6-.8,1.9-1.7,4.7-2.8,8-7.4,9.1-12.7.8-1.1,1.9-2.2,3-4.1,4.4-4.7,3.3-7.7,4.7-9.9.8-3,.8-5.8,1.1-9.1.6-9.1-5.8-17.1-14.6-19-3.3-.6-6.6-1.1-10.2-1.1-11,1.1-12.7,4.1-17.6,6.9-2.5-1.9-5.5-3-8.5-3.3-4.4-.6-8.5.6-12.1,3-3.3,0-6.3,1.1-8.8,2.8-2.2,0-4.1-.3-5.8-.3s-3.9,0-6.3.8c-4.4.8-12.4,1.7-22.8,1.9-7.7.3-13.5.6-17.1.6s-5.5,0-7.7.3c-4.7.3-8.3.6-9.6.6-3-.6-4.7-1.1-5.8-1.4-3-.3.6-.3-6.3-.8-4.4,0-7.2.6-12.7,1.7-1.4.3-2.5.6-4.1.6s-3.6,0-5.8-.3c-6.6-1.1-13.2-1.7-19.8-1.7l-8-1.1-11.6-.6-14.6-2.8c-2.2,0-4.1-.6-5.8-.6,0-1.1.6-3,1.1-5.2,1.1-4.7,0-9.6-2.5-13.8,3-3.6,4.4-8,4.1-12.7,0-2.2,0-5.2-.3-8.8h17.3c1.4,0,2.5,0,3,.3h0c1.9.6,3,.8,3.9,1.1,2.8.3-1.7.3,6.9,1.1h3l5.8-1.1,24.8,1.4,7.4-1.1,2.2-.8h8.5l2.5.3,12.9-1.4h3.6l9.9.6,16,1.7h5.5l12.9-3h8l13.2-1.1c6.9.8,11,1.4,15.1,1.4h11.8c3.3,1.4,5.8,2.5,10.7,3.3,3.9.6,7.7.8,11.8,1.1h2.8c1.4,0,2.8,0,3.9-.6,8-1.7,10.7-5.2,15.1-8,1.9-1.7,3-2.8,4.1-3.3h0l11.6-6.6,4.7-3.9,2.5-3c4.4-5.5,8-11.8,8.3-19.8.6-8.8-5.5-16.8-14.3-18.7-5.8-1.1-7.4-1.9-13.2-2.2-5,0-5.5.6-13.5,1.7l-13.2,1.7c-12.1,2.5-20.1,4.1-25.6,5.2-2.8.6-5,1.1-6.3,1.1h0s-3.3,0-6.6-.8c-2.8-.6-5.8-.8-8.5-.8s-5.8,0-8.8.8c-8,.8-17.3,1.7-27.2,1.9-3.3,0-6.3,1.1-9.1,2.8-2.5-1.4-5.5-2.2-8.8-2.5l-48.4-.6h-1.7c-3.6,0-6.6.6-9.1,1.4l-5.2-1.4-9.9-1.7c-7.7-2.8-10.2-4.1-19-5-5.8,0-10.7,1.4-15.4,3.6h-.8s-2.2-1.7-3.9-2.8c-4.7-3.3-10.7-4.4-16.2-2.5h-6.1c-14.6-1.4-20.9-2.2-25-2.2s-5.8,0-8.8,1.4c-6.3-2.2-13.2-.8-18.2,3.6-2.5,2.2-4.4,3.6-5.8,4.4-2.5,1.7-4.7,3.3-6.3,5.2-3.9,1.1-7.2,3.3-9.6,6.3-4.7,6.3-6.6,12.9-7.2,19.5-.8,8.5,4.4,16.5,12.7,19.3,2.8.8,5.5,1.4,8.3,1.7.8,2.2,1.9,4.4,3.3,6.1,0,1.9.6,4.4.8,7.2.8,8.8,1.4,14.9,1.4,17.3v30.5c0,4.1,1.1,7.7,2.5,11-.6,2.2-.8,4.4-1.1,6.9,0,3.6.3,7.2,1.1,10.7.3,1.9.8,3.6,1.7,5.2v1.1c0,2.2,0,3.6.6,5.5h0s.3,4.7.6,9.4c0,2.5.3,6.1,1.1,11.8.3,3.6,1.9,7.2,4.4,9.9-2.8,3.6-4.1,7.7-3.9,12.4,0,1.9.6,3.9,1.4,5.8v.8c-1.4,5.5-.3,11,3,15.4l8.3,11-4.7,3.6c-5.2,3.9-7.7,10.5-6.9,16.8l2.5,19.5c-.6,4.1-.8,8-.8,12.1s.8,6.6,2.8,9.4c-1.1,2.5-1.4,5.5-1.1,8.5.6,4.7,2.8,9.1,6.1,12.1l-1.4,4.7-3.6,4.7c-2.2,3-3.6,6.9-3.6,10.7h0v17.1c0,3.6,1.1,7.2,3,10.2,0,.3-.3.8-.6,1.1l-.6,1.9c-1.9,8.3-3.3,14.9-3.6,21.5,0,13.2-.3,23.9-1.1,33v5c-.8,1.4-1.7,4.4-2.8,10.2v9.9c-.8,2.5-1.9,4.4-2.8,6.3-5,1.4-9.1,5.2-11.3,10.2-1.7,4.1-3.3,8.3-3.3,14.3s0,3.9.3,6.1c.8,7.4,6.1,13.8,13.2,15.7,4.4,1.1,7.4,1.9,12.7,2.2,7.4-.6,9.6-1.7,20.4-4.1l11.3-.6h2.2c4.7-1.1,8-1.7,10.5-1.9h1.7c6.1,1.4,7.7,2.2,13.8,2.5,6.3,0,13.2-1.9,18.4-5.8,1.4-.8,2.8-1.7,4.1-2.5.3.3.8.8,1.1,1.1.3.6.8.8,1.9,1.7,1.9.6,0,2.8,11.8,4.4l5.2-1.1h1.7c.6,0,1.4,0,2.8.8l3.3,1.1h.8l4.4.8h6.3c4.1,0,8-1.4,11-3.9,1.4.3,3,.6,5.5.6l15.4-1.1h8.8l23.9-.6s1.9.3,3.6.6c5.2,1.1,10.5-.3,14.6-3.6h1.1c5.5.8,9.9,1.7,12.9,2.2,4.7.6,2.2.6,8.3,1.1,3.9,0,6.9-.6,11.8-1.1,1.4,0,5-.3,9.1-.3h12.1c11.3,1.9,13.5,2.8,19.8,3.3,3.6,0,6.6-.8,9.4-1.7,2.8.6,5.5.6,8.3,0h0l10.2,1.1h11.3l7.2,1.4h2.5l10.7.8,8.3,1.7c5.2,1.1,10.7,0,14.9-3.6l5-3.9,1.7,1.4c4.1,3.9,9.9,5.2,15.7,4.1l6.1-1.1c13.5,0,27.2-2.8,36.9-14.9l2.8-5.5c2.8-2.5,5-5.5,6.1-9.4s1.1-3.9,2.2-5.8c1.9-4.7,3.6-7.2,3.9-14.6,0-3.9-.3-8.8-4.1-14.3"/>
      <path class="st1" d="M1757.1,1237.9h-6.6s-1.4,3.6-2.5,6.6c-3.6,8.3-5.8,13.8-6.6,22,0,3.3-.6,5.2-1.4,6.6-2.8,5.5-4.1,8.5-5.5,11.3-.8,1.9-1.1,3.3-1.4,4.1-8.8,11.3-12.9,16-16.5,22.8,0,.6-.6,1.1-.8,1.7l-11,10.7-2.5,3-5.5,8.3-11,9.1c-14,12.1-22.3,19.3-22.8,19.8,0,0-3,1.7-7.4,3.9l-2.2,1.4c-8,5.8-14.6,9.4-18.2,10.7-1.9.8-3.9,1.7-7.2,3.3-2.5,1.1-4.4,2.8-6.1,4.7h0l-5,1.9-8.8,5h-.3l-6.1.8c-3,1.1-6.3,2.8-14.6,6.3l-6.6,1.9-4.7,1.9s-9.6,5-23.1,10.5l-7.7,2.5-2.2.8-5.2,2.5c-1.4,0-5.5.6-10.7.6h-2.5c-5.8,0-11,.3-17.3,3-1.7,1.1-3,1.9-4.4,3l-21.2.6s-.6,0-1.7-.3h-1.7c-1.1-8.5-1.7-14.6-1.7-14.6,0-8.5,0-14.3-1.4-20.1-.6-2.8-.8-5.5-1.1-8,0-1.1,0-2.2-.6-3.3,1.7-3.3,3-7.2,3-12.4s0-3.9-.6-5.8c-1.7-10.2-2.5-17.3-2.5-17.3v-2.5c.8-5,1.1-4.7,1.4-9.9,0-2.2,0-3.6-.3-5.2l-.6-1.7h0s-.8-13.2-.6-30.8v-38.8l-.8-2.5c0-1.1-.6-2.5-1.1-3.6,0-4.1.8-9.6,1.9-15.7.8-4.7,0-9.4-2.5-13.2-5.5-8.8-9.9-15.7-13.2-20.6.3,0,.6-.6,1.1-.8,3-2.5,5.8-5.2,9.4-8.8s6.1-11,4.7-16.8c-.6-2.5-1.7-4.4-3-6.3,0-1.4.3-2.5.3-3.9,0-5-.8-6.6-1.7-11.3v-6.6l-.3-5,.8-16.8-.6-5.8s-.3-1.4-.6-1.9c.3-.8.8-1.9,1.4-3l1.4-8.8-.6-8.3.6-14.6-.6-4.4-1.1-4.7c-.8-7.7-1.9-13.5-4.1-19.5,0-.3,0-.6-.3-.8.8-3.6,1.7-7.4,1.9-11.6l1.7-6.1c2.2.3,4.4.6,6.6.6h15.1l20.1-.8,24.2,1.7h9.6c5,1.1,4.4,1.1,9.4,1.4,2.8,0,5.2-.6,7.2-1.1.3.3.8.6,1.4,1.1,8.8,4.4,7.4,2.8,12.1,4.1,3.6.8,8.5,1.7,14.9,3l14,3,19,3.3,8,2.5,2.8.6,10.5,1.4,4.4,1.7,6.3,1.9,15.4,8.3,6.1,3,5.5,4.7,2.2,1.7,9.6,5.8c4.1,3.3,7.2,6.1,9.9,8,1.4,1.1,2.8,1.9,4.1,3,2.2.6,1.1,2.2,8.5,3.3,1.1,2.5,2.8,4.7,4.7,6.6,4.7,3.3,6.3,6.1,12.4,8.3,0,0,0,.6.3.8,1.9,4.1,3.6,6.9,8.3,15.4,1.9,3.3,4.1,6.6,6.1,9.4v2.2c.6,7.2,1.4,8.5,3,13.5v5.2l.8,2.5c1.4,6.9,2.5,12.1,2.5,15.1.3,4.1,2.2,8,4.7,11-1.9,2.2-3.6,4.7-4.1,7.7-1.1,4.4-1.7,8.8-2.2,14.9l-1.9,12.1v2.5l-.3,11.3,6.3,1.1,1.4-.8ZM1828.9,1225.5c1.4-7.2,2.2-15.1,2.5-25.3l1.1-18.2v-5l-1.7-6.3-.6-17.1-.6-4.1-3.6-13.2-.6-9.4-1.1-5.2-5.5-16-1.4-6.3h0c-2.5-11.8-6.1-10.5-9.4-15.7-5.5-5.2-9.1-9.4-11.6-12.1-1.9-2.2-4.1-3.9-6.6-5.2-1.1-5.2-4.7-9.6-9.6-12.1s-5.8-3.6-11.3-7.7l-12.1-8-8.3-6.9c-2.5-1.7-5-3.6-8.5-6.3l-8.3-3.6h-.8c-6.3-4.1-8-3.9-12.7-5.5-4.1-1.1-9.4-2.5-16-3.9l-20.1-8.8c-3.3-1.4-7.2-1.9-10.7-1.1-.6-.3-.8-.6-1.4-.8-5.2-2.8-7.7-5.8-17.9-6.6h-5s-1.9-1.1-8-1.7c-3,0-5.5.8-7.7,1.7-2.5-1.7-5.5-2.8-8.5-3-2.8,0-6.3-.8-11-1.9l-4.1-.6h-9.4l-32.5-4.7h-2.5c-2.8,0-6.3-.3-10.2-.6-3,0-6.1.3-8.8,1.4-1.7-.6-3.6-1.1-5.2-1.4h-4.4c-8.3-1.1-16.5-1.4-24.5-1.4s-4.1.3-5.8,1.1c-2.5-1.1-5.5-1.9-9.9-2.5h-1.9l-43.7,1.4h-1.9l-4.1,1.1c-3.6-1.7-5.5-2.8-13.5-3.9l-13.5.6h-12.1c-5.2,0-9.9,2.2-13.5,6.1l-1.7,1.7c-3,.8-5.8,2.5-8,4.7-8.3,3-17.9,13.5-17.3,25,0,5.2,1.4,9.4,3,12.9,3,6.6,9.4,10.7,16.5,10.7h7.2c0,1.9,0,3.3.3,4.1,0,5,.6,10.2,1.9,15.7v6.9l.8,3.3c2.5,10.7,4.1,18.2,4.1,19.5.3,3,1.4,6.1,3,8.5-1.7,3-2.5,6.3-2.5,9.6l1.9,47-1.4,12.1v3.9c0,4.4,1.9,8.8,5,12.7-.6,2.2-1.1,4.7-1.1,7.7v6.9c.6,3.6.8,10.2.8,19.5v6.3c0,3.3.6,6.6,1.4,9.9-.6,1.7-.8,3.3-.8,5.2v7.2c0,1.9.3,4.1,1.1,6.1-.6,2.2-.8,4.7-1.1,7.7,0,2.5,0,2.8.3,4.7s.3,2.8.3,4.1v38c-.3,5.5-.3,9.4,1.9,14.9,0,.6.3.8.6,1.4-2.5,5.2-1.9,11.6,1.1,16.8l6.9,11.3c-3.6,1.9-6.6,4.7-8.3,8.5-2.2,4.7-2.5,10.2-.3,14.9.6,1.1.8,2.2,1.1,3-2.2,10.7-3,11-3.6,18.7l.6,5,.8,3.6h0l-2.8,17.1v10.2c-.6,1.4-1.1,2.5-1.7,3.9-1.4.6-3,1.4-4.7,1.9-7.2,3-9.6,3.6-14.3,6.3-6.1,3.3-10.5,12.4-9.9,18.4,0,5,1.4,11.8,6.9,17.3,5.5,5.5,12.4,6.9,17.1,6.9h.3c2.2,0,4.7-.3,6.9-1.1l32.2-1.4c2.8.3,5.8.6,9.6.6h6.6l18.7-1.4,12.9-.6,3.6-.6,7.7-1.9h5.8l8.8-1.4,3.9-.6,3.3-.8,4.1-1.4,13.8-1.4,4.4-1.1,22.8-8.3c4.7-1.4,8.8-2.2,11-2.5,9.6-1.7,16.5-4.7,26.7-9.6,1.4-.6,2.8-1.4,3.9-1.7,5.8-2.5,6.6-1.4,14.6-6.6,0,0,.3,0,.6-.3,9.6-1.1,8-2.5,9.6-2.8,3.6-2.5,5.2-4.1,9.9-8,8.5-2.5,10.2-2.2,17.1-5.8l2.2-1.7.6-.6c5.2.6,10.7-1.1,14.9-5.2,1.9-1.9,3.3-3,4.1-3.9,0,0,.3-.3.6-.3l15.1-8,1.9-1.4c8.3-5.8,14-10.5,18.7-15.1,0,0,.3-.6.6-.8,5-.3,9.6-2.8,12.9-6.9.3-.6,1.7-1.9,3.9-3.3,6.3-4.1,12.1-8.8,17.1-13.5.8-1.1,1.9-1.9,2.5-3,7.4-1.7,7.7-4.1,9.9-5.5,1.9-1.7,3.3-3.3,5-5.2l6.9-8.3,3-5.2v-1.1l8.8-9.1,3.9-6.6h0l4.1-5.5,2.2-3.6c4.1-8.8,7.4-15.1,8.3-16.2,2.5-3.6,3.6-7.7,3.6-11.8,4.1-2.8,5.8-6.1,7.2-8,2.5-4.1,3.9-8,5.2-12.7.3-1.1.6-1.1.6-1.1,0-.8.8-1.9,1.4-3.6,1.7-4.7,3-9.4,3-14.3v-1.4c0-.6.6-1.1.8-1.7,2.8-8,5-14.3,6.1-19.8"/>
      <path class="st1" d="M1857.2,1025.3c-.8,8.5,4.4,16.5,12.4,19.3,2.8.8,5.5,1.4,8.3,1.7.8,2.2,1.9,4.4,3.6,6.1,0,1.9.6,4.4.8,7.2.8,8.8,1.4,14.9,1.4,17.3v30.5c0,4.1.8,7.7,2.5,11-.6,2.2-.8,4.4-.8,6.9,0,3.6.3,7.2.8,10.7.3,1.9.8,3.6,1.7,5.2v1.1c0,1.9,0,3.6.6,5.2h4.7-4.7c0,1.4.3,4.7.6,9.6,0,2.8.3,6.1,1.1,11.8.6,3.6,1.9,7.2,4.4,9.9-2.8,3.6-4.1,7.7-3.9,12.4,0,1.9.6,3.9,1.4,5.5v.8c-1.4,5.2-.3,11,3,15.4l8.3,11-4.7,3.6c-5.2,4.1-7.7,10.5-6.9,16.8l2.5,19.5c-.8,4.1-1.1,8.3-1.1,12.1s1.1,6.6,2.8,9.6c-1.1,2.5-1.4,5.5-1.1,8.5.6,4.7,2.8,8.8,6.3,11.8l-1.4,4.7-3.6,4.7c-2.2,3.3-3.6,6.9-3.6,10.7h0v17.1c0,3.6,1.1,7.2,3,9.9,0,.3-.3.8-.6,1.1l-.6,1.9c-1.9,8.5-3.3,15.1-3.6,21.5,0,12.9-.3,23.7-1.1,32.7,0,1.4-.3,2.8-.3,4.1v1.7c-.8,1.7-1.7,4.4-2.8,9.9v9.9c-1.1,2.5-1.9,4.4-2.8,6.1-5,1.7-9.1,5.2-11.3,10.2-1.7,4.1-3.3,8.3-3.3,14.3s0,3.9.3,5.8c.8,7.4,6.1,13.8,13.2,15.7,4.4,1.1,7.4,1.9,12.7,2.2,7.2-.6,9.6-1.7,20.4-4.1l11-.6h2.2c4.7-.8,8-1.7,10.5-1.9.8,0,1.4,0,1.9-.3,5.8,1.7,7.7,2.2,13.5,2.5,6.3,0,13.2-1.9,18.4-5.5,1.4-.8,2.8-1.9,4.1-2.8.3.3.8.8,1.1,1.1.3.3.8.8,1.9,1.7,1.9.6,0,2.8,11.8,4.4l5.2-1.1h1.7c.6,0,1.4,0,2.8.8l3.3,1.1h.8l4.4.8h6.3c4.1,0,8-1.4,11-3.9,1.4,0,3,.6,5.2.6l15.4-1.1h8.8l24.2-.3c.8,0,1.9.3,3.6.6,5.2.8,10.5-.3,14.6-3.6h1.1c5.5.8,9.9,1.7,12.9,2.2,5,.8,2.2.6,8.3,1.1,3.9,0,6.9-.6,11.8-1.1,1.4,0,5-.3,9.1-.3,7.4,0,12.1.3,12.1.3,11,1.9,13.2,2.8,19.8,3.3,3.6,0,6.6-.8,9.4-1.7,2.8.6,5.5.6,8.3,0h0l10.2,1.1h11.3l7.2,1.4h2.5l10.7.6,8,1.7c5.2,1.1,10.7,0,14.9-3.6l5-3.9,1.4,1.4c4.1,3.9,9.9,5.5,15.7,4.4l6.1-1.4c13.5,0,27.2-2.8,36.9-14.9l2.8-5.5c3-2.5,5-5.8,6.1-9.4.6-1.7,1.1-3.6,1.9-5.5,1.9-4.7,3.6-7.2,4.1-14.6,0-3.9-.3-8.8-4.1-14.3-3.6-6.1-12.1-9.9-17.9-9.4-8.8.8-11,2.8-14,4.7-3,.8-9.9,2.5-19.8,4.7h-8.3l-3.9.6c-3.6.8-6.9,2.5-10.2,4.1-1.9,1.1-3.3,2.5-4.7,3.6-2.5-.8-5.2-1.7-8.8-1.7-6.1,0-11.8,2.2-16,5.2-5-4.1-12.1-5.2-18.4-2.8-1.9-.6-3.6-.8-5.8-.8h-4.1c-4.1-.8-1.9-1.1-9.9-1.9-2.2,0-3.9,0-5.8.6h-1.7l-44.3.6h-5.8c-3,.6-5.5.8-6.9,1.1h0c-1.9,0-6.3-.6-13.5-1.1h-5.8s-2.5,0-5,.8c-1.9.3-3.3.6-4.1.8h-19.5l-26.1-2.2h-5.5c-3.6.8-6.1,1.9-8,3-1.4-.8-3-1.4-4.7-1.7-4.7-.8-9.6,0-13.8,2.8l-.8.6h0c-1.9-.8-.3-.6-6.3-2.5-4.7-.6-6.3-.6-9.4-.6h-7.4l-6.6-.6h-5.2l-16.5,3.6c.8-3,1.4-6.1,1.4-9.6l-1.4-21.7v-16.5l-1.1-5.2c-.3-1.1-.6-2.2-.8-3,.3-1.4.8-3,1.7-5.2,2.2-6.3.8-13.5-3.9-18.4.8-3.3.8-6.6-.3-9.9h0v-5.8l.6-14,.8-4.1.6-4.4v-7.7l.6-6.1v-5.2l-.8-5v-8.5l-.8-2.5-1.1-5.8c1.4-3.6,1.7-7.4.6-11-.6-1.9-1.4-3.9-2.5-5.5.8-2.2,1.4-4.4,1.4-6.9v-4.7c0-4.7,0-7.7-1.7-13.8-.6-1.7-1.1-3.3-1.4-4.7,1.7-3.3,3-7.2,3-11.8-.6-6.3,1.4-5.2-2.2-15.7-.3-.6-.6-1.1-.8-1.7,1.7-2.5,3-5,4.1-10.7v-4.4l-1.1-12.4v-26.4h3.6l4.1-.8,3.3-1.1h11.6l4.7,1.1,4.7.6,20.1-.6,15.4,2.5h5.5l15.7-2.2h3.6l8.5.6,6.9,1.7h6.3c4.4-.3,7.7-.8,10.2-1.1h2.2c1.7,0,5.2.6,10.5,1.4h4.1c4.4-.6,7.7-.8,11-1.4.6,0,2.5,1.7,8.3,1.9,2.2,0,5.8.3,11.3-3.6,4.1,3,9.6,5,14.9,4.7,5.8,0,8-1.1,12.9-2.5,4.1-1.1,7.7-3.6,10.2-7.2,0,0,.6-.8,1.9-1.7,5-2.8,8.3-7.4,9.1-12.7.8-.8,1.9-2.2,2.8-3.9,4.4-4.7,3.6-7.7,4.7-9.9.6-3,.8-5.8,1.1-9.1.6-9.1-5.8-17.1-14.6-18.7-3.6-.6-6.9-1.1-10.2-1.1-11,1.1-12.7,4.1-17.6,6.9-2.5-1.9-5.2-3-8.5-3.3-4.1-.6-8.5.6-12.1,2.8h0c-3.3,0-6.3,1.1-8.8,2.8-2.2,0-4.1-.3-5.8-.3s-3.9,0-5.8.8c-4.4.8-12.7,1.7-23.4,1.9-7.7.3-13.5.6-17.1.6s-5.5,0-7.7.3c-4.4.3-8,.6-9.6.6-2.5-.6-4.4-.8-5.8-1.4-3-.3.6-.3-6.3-.8-4.4,0-7.4.6-12.7,1.4-1.4.3-2.5.6-4.1.6s-3.6,0-5.8-.3c-6.3-1.1-13.2-1.7-19.8-1.7l-8-1.1-11.6-.6-14.6-2.8c-2.2,0-4.1-.3-5.8-.6,0-1.1.6-3,1.1-5.2,1.1-4.7,0-9.6-2.5-13.8,3-3.6,4.4-8.3,4.1-12.7,0-2.2,0-5-.6-8.5h19.8c1.9.6,3,.8,3.9,1.4,2.8.6-1.9,0,6.9,1.1h2.8l5.8-1.1,25,1.4,7.4-1.1,2.2-.8h8.5l2.5.3,12.7-1.4h3.6l9.9.6,16,1.7h5.5l13.2-3h8l13.2-1.1c7.2.8,11,1.4,15.1,1.4h11.6c3.3,1.4,5.8,2.5,10.7,3.3,3.9.3,7.7.8,12.1,1.1h1.9c.6,0,1.7,0,3.9-.3,8.8-1.4,11.6-5.2,16-8.3,1.9-1.7,3-2.8,3.9-3.3h.3l11.6-6.9,4.7-3.9,2.8-3c4.4-5.5,7.7-12.1,8.3-19.5.6-8.8-5.5-16.8-14-18.7-5.8-1.1-7.7-1.9-13.2-2.2-5,0-5.5.6-13.2,1.7l-13.2,1.7c-12.1,2.5-20.1,4.1-25.6,5.2-2.8.6-5,.8-6.3,1.1h0s-3.3,0-6.9-.8c-2.8-.3-5.8-.6-8.5-.6s-5.8,0-8.8.8c-8,.8-17.6,1.7-27.2,1.9-3.3,0-6.3,1.1-9.1,2.8-2.5-1.4-5.5-2.2-8.8-2.2l-48.1-.6h-1.9c-3.6,0-6.6.6-9.4,1.7l-5.2-1.4-9.9-1.9c-7.7-2.8-10.2-4.4-18.7-5-5.8,0-11,1.4-15.7,3.6h-.8s-2.2-1.7-3.9-2.8c-4.7-3.3-10.7-4.4-16.2-2.5h-6.1c-14.6-1.4-20.9-2.2-25-2.2s-5.8,0-8.8,1.4c-6.1-2.2-13.2-.8-17.9,3.3-2.5,2.2-4.7,3.6-5.8,4.4-2.5,1.7-4.7,3.3-6.6,5.2-3.9,1.1-7.2,3.3-9.6,6.6-4.7,6.1-6.6,12.9-7.2,19.5"/>
      <path class="st1" d="M2325.4,1406c7.2,9.6,7.7,11.3,13.5,16.8h0c1.1,5.2,4.1,9.6,8.8,12.1l26.7,22.3,5.8,3.3c11,3.6,14.3,5.2,21.2,6.3h1.9c2.5,3.9,6.1,6.6,10.5,8,3,.8,6.6,1.9,10.5,2.8.6,0,2.8,1.4,6.3,3l8,1.9c1.9,0,3.3.3,4.4.8,3.3,1.4,6.3,2.8,8.8,4.1,4.4,2.2,9.4,2.8,13.8,1.1,2.8,2.2,6.3,3.9,10.2,4.1h19.5c1.4.6,2.5,1.1,3.6,1.7,2.8.8,1.1,1.9,10.2,2.8h.3c5,0,9.4-1.4,13.8-3.3,2.2.6,4.4.8,6.6.6h7.2c1.4.6,3.6,1.1,6.3,1.9l6.6.8,9.9-.8h10.5l6.3-1.1,13.8-2.2,3.3-.8c3.9-1.4,13.5-3.9,27-6.6l12.7-1.7c9.4-1.7,15.7-5,28.3-11,13.2-6.6,24.5-12.9,33.8-19.3,2.5-1.7,4.4-3.9,5.8-6.3,8.5-1.4,12.7-6.3,15.1-9.1.8-1.4,4.7-5.2,9.9-10.7l9.9-10.7,4.4-3.6,3-3.6,8.3-12.4c3.6-4.1,7.7-9.6,11.6-15.1.8-1.7,2.8-4.4,6.3-8.8,3.3-4.1,4.4-9.4,3.6-14.3l3.3-5,3-9.4v-1.9c2.8-4.7,4.7-9.6,8-17.3l1.4-5.8v-1.7c3.9-4.7,5-10.7,3.3-16.5,1.9-4.4,3.6-8.8,3.6-14.6v-23.1c0-6.3-1.4-12.1-3.6-22.6,0-10.7-3-21.5-8.3-30.8-1.1-1.9-2.2-3.3-3.9-4.7,0-.8-.3-1.7-.6-2.5-1.4-3.6-1.7-5.8-5.2-10.5h0c-.6-.6-1.1-1.1-1.7-1.9h0c-5.2-5.5-9.4-7.7-16.5-12.1-.8-.6-2.5-1.4-4.7-3-3-1.9-1.4-1.9-9.1-5.5l-28.1-9.4-7.4-3.9c-7.7-3.9-14.3-4.7-24.5-6.3-.8-.3-2.2-.8-4.1-1.1-4.1-1.1-8.5-.8-12.4.8-2.2,1.1-4.4,1.9-6.1,2.8h-1.4c-.3-.6-.8-.8-1.1-1.4-3.3-3.6-8.3-5.5-12.9-5.5h-54.7l-6.9-.6c-2.5,0-5,0-7.7.8-.6,0-1.1-.3-1.4-.6-8.8-2.2-14.9-3.6-21.7-3.9-2.2,0-4.1,0-5.5.6h-1.9l-15.1-3h-6.3l-7.2.8c-6.1-2.2-12.7-1.1-17.3,2.8-5.2-5.8-11.6-9.9-18.7-12.4l-11.6-3.3c-1.7-1.1-6.1-4.7-11.8-10.2-.3-.3-.6-.6-.8-.8-.8-6.9-1.4-11.8-1.4-13.8s1.4-7.4,6.9-15.1c3-3.9,5.2-5.2,8.3-6.3,3.6-1.1,6.6-3.3,8.8-6.1,5.8,0,11-2.5,14.9-7.2,2.8-3,5-4.7,11-5.8,5.2-.8,9.9-3.9,12.7-8.3l18.2-7.2c3-1.4,5.8-3.3,7.7-5.8h.6l9.9-.6,18.7-6.3,20.9-3.9,3.6-1.1c3-1.1,5.8-1.9,9.4-2.2,3.9,2.8,8.5,3.9,13.2,3,6.1-.8,11-4.7,13.8-10.2.6-1.4,1.1-2.5,1.7-3.3h3.3c2.2,3,4.1,5.2,5.5,6.9.8.8,1.4,1.7,2.5,2.8,2.5.8-1.1,3.3,13.5,5.8h6.1l10.2,3.3,6.1.8h4.1s.8.6,1.7.8c5.5,3,11.8,3,17.3.3,3.6-1.9,6.1-3.6,9.4-6.3.3,0,1.9-1.4,4.4-3.3,1.4-.8,3.6-2.8,7.7-5.8,5.5-4.1,8-11.3,6.6-18.2l-1.9-9.1c-1.4-6.6-6.3-12.1-12.9-13.8-12.1-3.3-21.7-5.5-29.4-6.6l-5.5-1.4-3.3-.6-12.1-1.1c-7.2-.6-8.5-.8-11.6-.8l-21.7,1.9-43.5,4.1h-1.9l-8.5,1.9-31.6,8.5c-6.3,1.7-14.3,4.1-24.2,7.7-5.2,1.9-10.7,4.7-19.3,9.1l-36.3,16-9.4,5-7.2,3.6-3.9,2.5-12.4,10.5-9.1,6.9-3,2.8c-6.6,7.7-13.5,15.4-20.1,23.4h0c-2.5,2.8-2.2,3-3,4.4-1.9,3.6-3.6,7.4-6.3,14.3l-1.1,4.4-1.4,9.9c-3.3,3.3-5,7.7-5,12.7s1.7,11.3,4.1,15.7v2.5c0,9.4,3.6,16.2,7.7,23.7,7.2,11.8,14.3,20.9,22.8,27.8,6.3,4.7,12.7,7.7,23.1,12.4l5.2,2.8,8.3,1.9h6.3l3.9.8c.8.6,1.9,1.1,3.6,1.9,7.2,3.3,13.2,4.4,20.9,5.5l8,3,6.1,1.1c14.3-2.5,11-5.2,13.5-5.8.6-.6,1.1-1.4,1.7-1.9,2.8,4.1,7.4,7.2,12.7,8,6.1.8,11.6-1.4,15.7-5.2,2.8,3.3,5.5,3.9,6.1,4.4,4.4,1.7,5.2,1.7,5.5,1.7h17.9s1.1,0,4.1.3c3.3.3,5.8.6,8.8.6s6.9-.3,11-2.2c2.5,1.4,5.8,2.5,10.7,2.8,4.7,0,6.6-.6,14-1.7h1.9l13.8,3,4.4.6s2.5-.3,3.6-.6c1.9.6,4.1,1.4,6.9,2.5l5.5,1.9,3.6.8c7.4,1.1,12.9,2.2,16.8,3.3,0,0,1.7.6,5,3l2.8,1.4c5.5,2.5,9.9,4.4,12.7,5.8,1.4.8,2.5,1.1,3,1.7h.6s.3.3.6.3c0,1.4.6,3,.8,4.4,5.5,16,8.8,27.2,9.4,30,.3,1.9.8,3.6,1.7,5.2,0,1.9,0,3.9-.3,5.8-.6,1.9-1.9,7.2-4.1,14.3l-.8,3c-.3,3-.8,5.8-1.1,7.2,0,.8-.3,1.4-.3,1.7-1.4,3.6-3,2.2-4.7,13.8,0,3.6.8,6.1,1.7,8.3l-.8,2.8s0,.8-.3,1.1c-3,2.8-5.2,6.6-5.8,11v1.4c-4.4,7.7-7.4,9.4-9.4,20.4h0v1.1c-.6.8-1.1,1.7-1.9,2.5l-1.4,2.2-3,5.2-2.8,2.5-3.3,3.6c-4.1,6.1-6.9,10.2-8,11.6-1.7,1.7-4.7,4.1-8.8,8-8.5,5.5-13.8,9.1-15.7,10.2,0,0-1.4.6-3.9,1.4s-7.7,2.8-13.8,4.7l-2.5,1.1-6.1,3h-2.8l-4.4,1.1c-5.5,1.9-9.6,3.3-12.4,4.1h-.6c-1.1,0-3-.3-5-.3-5.2,0-11,2.5-14.9,5.8-1.1-.3-2.2-.6-3.6-.8h-4.7c-8.3,1.4-14,2.2-19,3.3l-1.9-.6-5-.8c-7.4.8-4.4.8-7.2,1.4h-12.4l-26.4-1.1s-11.3-2.2-29.2-5.8c-5.5-2.8-8.5-3.9-10.2-4.7-4.4-1.4-6.9-1.9-10.7-2.5l-5.2-3.3-2.8-1.4-28.6-11.6c-1.9-1.4-6.9-5.2-13.5-11.3-1.1-3.6-1.9-6.6-2.8-9.1-.6-1.4-1.1-2.8-1.9-4.4-1.4-1.4-.8-3.3-5.8-6.9h0c-1.7-1.1-3.9-2.8-7.2-3.9v-9.6l-.8-3,.6-3.9c.6-4.1,0-8.5-2.5-12.1l-3.9-6.3c-2.2-3.3-4.1-6.1-6.6-8.5-4.1-4.7-11-6.9-16-6.6-2.2,0-4.1,0-5.8.3-8,1.1-14.3,7.4-15.4,15.4v.6c-1.4,1.9-3.3,4.1-6.1,7.4l-3,5.2-2.2,6.3c-3.9,7.4-5.5,8-8,17.6-.8,5.8,1.1,11.3,5.2,15.4,1.7,1.4,4.1,4.4,6.9,8.8"/>
      <path class="st1" d="M3273.3,1465.9h0ZM2821.9,1044.5c2.8.8,5.5,1.4,8.3,1.7.8,2.2,1.9,4.4,3.6,6.1,0,1.9.6,4.4.8,7.2.8,8.8,1.4,14.9,1.4,17.3v30.5c0,4.1.8,7.7,2.5,11-.6,2.2-.8,4.4-1.1,6.9,0,3.6.3,7.2,1.1,10.7.3,1.9.8,3.6,1.7,5.2v1.1c0,1.9,0,3.6.6,5.2h4.7-4.7c0,1.4.3,4.7.6,9.6,0,2.8.3,6.1,1.1,11.8.6,3.6,1.9,7.2,4.4,9.9-2.8,3.6-4.1,7.7-3.9,12.4,0,1.9.6,3.9,1.4,5.5v.8c-1.4,5.2,0,11,3,15.4l8.3,11-4.7,3.6c-5.2,3.9-7.7,10.5-6.9,16.8l2.5,19.3c-.8,4.1-1.1,8.3-1.1,12.4s1.1,6.6,2.8,9.6c-1.1,2.5-1.4,5.5-1.1,8.3.6,4.7,2.8,9.1,6.1,11.8l-1.4,4.7-3.3,4.7c-2.2,3-3.6,6.9-3.6,10.7h0v17.1c0,3.6,1.1,7.2,3,10.2,0,.3-.3.8-.6,1.1l-.6,1.9c-1.9,8.3-3.3,14.9-3.6,21.5,0,12.7-.3,23.4-1.1,32.2,0,1.7-.3,3.3-.3,4.7v1.4c-.8,1.7-1.9,4.4-2.8,9.9v9.9c-.8,2.5-1.9,4.4-2.8,6.1-5,1.7-9.1,5.2-11.3,10.2-1.7,4.1-3.3,8.3-3.3,14.3s0,3.9.3,6.1c.8,7.4,6.1,13.8,13.2,16,4.4,1.1,7.4,1.9,12.7,2.2,7.4-.6,9.6-1.7,20.4-4.1h11l2.2-.6c4.7-.8,8-1.4,10.5-1.7h1.9c5.8,1.7,7.7,2.2,13.8,2.5,6.3,0,13.2-1.9,18.4-5.5,1.4-.8,2.8-1.9,4.1-2.5.3.3.8.8,1.1,1.1.3.6.8.8,1.7,1.7,1.9.6,0,2.8,11.8,4.4l5-1.4h1.7c.8,0,1.4,0,2.8.8l3.3,1.1h.8l4.4.8h6.1c4.1,0,8-1.4,11-3.9,1.4,0,3,.6,5.2.6l15.7-1.1h8.8l23.9-.3c.8,0,2.2.3,3.9.6,5.2,1.1,10.5-.3,14.6-3.6h1.1c5.5.8,9.9,1.7,12.9,2.2,5,.6,2.2.6,8.3,1.1,3.9,0,6.9-.6,11.8-1.1,1.4,0,5-.3,9.1-.3h12.1c11.3,1.9,13.5,2.8,19.8,3.3,3.6,0,6.6-.8,9.4-1.7,2.8.6,5.5.6,8.3,0h.3l9.9,1.1h11.3l7.2,1.4h2.5l10.7.6,8.3,1.7c5.2,1.1,10.7,0,14.9-3.6l5-3.9,1.7,1.4c4.1,3.9,9.9,5.5,15.4,4.4l6.1-1.1c13.8,0,27.2-3,37.1-14.9l2.8-5.2c3-2.5,5.2-5.8,6.1-9.4.6-1.7,1.1-3.6,2.2-5.5,1.9-4.7,3.6-7.2,3.9-14.6,0-3.9-.3-8.5-4.1-14.3-3.6-6.1-12.4-9.9-17.9-9.4-8.8,1.1-11,2.8-14,4.7-3,.8-9.9,2.5-19.8,4.7h-8.5l-3.9.6c-3.6.8-7.2,2.5-10.2,4.1-1.9,1.1-3.3,2.5-4.7,3.6-2.5-.8-5.2-1.7-8.8-1.7-6.1,0-11.8,2.2-16,5.2-5-4.1-12.1-5.2-18.4-2.8-1.9-.6-3.9-.8-5.8-.8h-4.1c-4.1-.8-1.9-1.1-9.9-1.9-2.2,0-4.1.3-5.5.6h-1.9l-44.3.6h-6.1c-3,.6-5.5.8-6.9,1.1h0c-1.9,0-6.6-.6-13.5-1.1-.3,0-2.2-.3-4.1-.3s-3,0-6.3.8c-1.9.3-3.6.6-4.7.8h-19.5l-26.1-2.2h-5.5c-3.6,1.1-6.1,2.2-8,3.3-1.4-.8-3-1.4-4.7-1.7-4.7-.8-9.6,0-13.8,2.8l-.8.6h0c-1.9-.8-.3-.6-6.1-2.5-5-.6-6.3-.6-9.6-.6h-7.2l-6.9-.6h-5.2l-16.5,3.6c.8-3,1.4-6.1,1.4-9.6l-1.4-21.7v-16.5l-1.1-5.2c-.3-1.1-.8-2.2-.8-3,.3-1.4.8-3,1.7-5.2,2.2-6.3.8-13.5-3.9-18.4.8-3.3.8-6.6-.3-9.9h0v-5.8l.6-14,.8-3.9.6-4.4v-7.7l.6-6.1v-5.2l-.8-5-.6-8.5v-2.5l-1.4-5.5c1.4-3.6,1.4-7.4.6-11-.6-1.9-1.4-3.9-2.5-5.5.8-2.2,1.4-4.4,1.4-6.9v-4.7c0-4.7,0-7.7-1.9-13.8-.6-1.7-1.1-3-1.4-4.7,1.7-3.3,3-7.2,3-11.8-.6-6.3,1.4-5.2-2.2-15.7-.3-.6-.6-1.1-.8-1.7,1.7-2.5,3-5,4.1-10.7v-4.4l-1.4-12.4v-26.4h3.9l4.1-.8,3.3-.8h11.6l4.7,1.4,4.7.6h20.1l15.4,1.9h5.5l15.7-2.2h3.6l8.5.6,6.9,1.7h6.3c4.4-.3,7.7-.8,10.2-.8s1.9,0,2.5-.3c1.7,0,5.2.6,10.5,1.4h4.1c4.7-.6,7.7-.8,11-1.4.6.3,2.5,1.7,8.3,1.9,2.2,0,5.8.3,11.3-3.6,4.1,3,9.4,5,14.9,4.7,5.8,0,8-1.1,12.9-2.5,4.1-1.1,7.7-3.6,10.2-7.2,0,0,.6-.8,1.9-1.7,5-2.8,8-7.4,9.1-12.7.8-.8,1.9-2.2,2.8-4.1,4.4-4.7,3.3-7.7,4.7-9.9.6-3,.8-5.8,1.1-9.1.6-9.1-5.8-17.1-14.6-18.7-3.6-.8-6.6-1.1-10.2-1.1-11,1.1-12.7,4.1-17.6,6.9-2.5-1.9-5.5-3-8.5-3.3-4.4-.6-8.5.6-12.1,2.8-3.3,0-6.3,1.1-8.8,2.8-2.2,0-4.1-.3-6.1-.3s-4.1,0-6.3.8c-4.4.8-12.4,1.7-22.6,1.9-7.7.3-13.5.6-17.1.6s-5.5,0-8,.3c-4.4.3-8,.6-9.6.6-2.5-.6-4.4-1.1-5.8-1.4-3-.6.6-.3-6.3-.8-4.1,0-7.4.6-12.7,1.4-1.7.3-2.5.6-4.1.6s-3.6,0-5.8-.3c-6.3-.8-12.9-1.4-19.5-1.7l-8.5-1.1-11.6-.6-14.6-2.8c-2.2,0-4.1-.3-5.8-.6,0-1.1.6-3,1.1-5.2,1.1-4.7,0-9.6-2.5-13.8,3-3.6,4.7-8.3,4.1-12.7,0-2.2,0-5-.3-8.5h4.4c5.5,0,9.9,0,12.7.3h2.8c1.9.6,3,1.1,4.1,1.4,2.8.6-1.9.3,6.9,1.1h3l5.8-1.1,25,1.4,7.4-1.1,2.2-.8h11.3l12.7-1.4h3.6l9.9.6,16,1.7h5.2l13.2-2.8h8l13.2-1.1c6.9.8,11,1.4,15.1,1.4h11.6c3.3,1.4,5.8,2.5,10.7,3.3,3.9.3,7.7.8,12.1,1.1h2.8s1.9,0,3.6-.6c8.5-1.4,11.3-5.2,15.7-8.3,1.9-1.7,3-2.8,3.9-3.3h.3l11.3-6.6,4.7-3.9,2.5-3c4.7-5.5,8-11.8,8.3-19.5.6-8.8-5.5-16.8-14-18.7-5.8-1.1-7.7-1.9-13.2-2.2-5,0-5.5.6-13.2,1.7l-13.2,1.7c-12.1,2.5-20.1,4.1-25.6,5.2-2.8.6-5,.8-6.3,1.1h0s-3.3,0-6.6-.8c-2.8-.6-5.8-.8-8.5-.8s-5.8,0-8.8.8c-8,.8-17.6,1.7-27.2,1.9-3.3,0-6.3,1.1-9.1,2.8-2.8-1.4-5.5-2.2-8.8-2.5l-48.4-.6h-1.7c-3.3,0-6.3.6-9.1,1.4l-5.2-1.4-9.9-1.9c-7.7-2.8-10.2-4.1-19-5-5.8,0-10.7,1.4-15.7,3.6h-.8s-2.2-1.4-3.9-2.8c-4.7-3.6-10.7-4.4-16.2-2.8h-6.1c-14.6-1.4-20.9-2.2-25-2.2s-5.5.3-8.8,1.4c-6.1-2.2-13.2-.8-18.2,3.3-2.5,2.2-4.4,3.6-5.8,4.4-2.5,1.7-4.7,3.3-6.3,5.2-3.9,1.1-7.2,3.3-9.9,6.6-4.7,6.1-6.6,12.9-7.2,19.5-1.1,8.5,4.1,16.5,12.4,19.3"/>
      <path class="st1" d="M3380.8,1057.2c0-3.6,0-6.6.3-9.1h1.1l.6.6c6.3,8.8,14,8.5,17.3,8.8,6.6,0,12.4-2.2,17.1-5,3.9-2.2,7.2-3.6,9.4-4.4.6,0,1.1-.3,1.4-.6,1.4.3,2.8.6,3.6.8.8,0,1.1,0,1.4.3h0c6.1,2.5,6.1,3.6,15.7,4.7,7.2-.8,7.2-1.1,10.7-2.2,3.3,0,6.1,0,8.5-.6,2.8,1.4,6.1,2.5,10.7,2.5h15.4l10.7,3.6,5.8,1.1h1.4c2.5,1.1,5,2.2,7.7,2.5,2.8.8,6.1,1.7,9.4,3,2.2.8,4.1,1.7,7.7,2.8l.6,2.2s1.9,3.3,3.9,6.6c.3.6.8,1.1,1.1,1.7,0,3.9.8,5.5,1.4,7.4h-.3l-4.4,4.7c-1.4,1.9-2.5,3.6-3.3,5-1.7.6-3,1.4-4.1,1.9l-4.1,2.8c-1.9,1.7-4.4,4.1-8.3,8.3l-8.5,6.6-2.5,2.2c-4.1,4.7-7.4,7.7-8,8-.8.6-6.9,3.6-15.7,7.7l-48.7,27c-6.3,4.1-10.5,6.6-14.3,8.5l-12.1,7.7-3,.6-3,.8c-7.4,3-12.9,4.1-12.9,4.1-2.5,0-4.7.8-6.9,1.9h0v-3.3l-.6-12.7v-8.5c-.6-8.8-.8-16-.8-22s-1.4-8.3-4.1-11.6c1.1-2.5,1.7-5,1.7-7.4h-.3c1.7-3.6,3.3-6.9,3.3-12.7s0-3.6-.3-5.8v-12.4l-1.9-7.7c-1.1-2.2-2.2-3.9-3.3-5.2,1.9-4.7,3-7.2,3.6-14.6M3297.2,1463.2c-2.5,4.4-2.8,9.4-1.4,14,1.4,4.7,4.7,8.5,9.1,10.7,4.4,1.9,7.2,4.1,15.1,4.4h.8c9.4,0,18.2-3.9,25-9.9,6.6.3,13.2-3,16.8-8.8,0-.6.6-.8.6-1.1.6-.3,1.4-.8,2.5-1.4,4.7-2.5,9.9-6.3,13.8-13.2,2.5-4.7,5.2-9.9,5.5-17.9v-13.2s-.3,0-.3-.3c1.4-4.4,1.1-9.1-1.1-13.2.8-2.2,1.1-4.7,1.1-7.2v-18.7c0-2.2,0-4.1-1.1-7.7,0-.8-.6-1.9-.8-2.8v-.3c1.9-5.2,1.1-11-1.9-15.4.6-1.7,1.1-3.6,1.4-5.2,1.9-3.9,3.9-8,3.9-13.8s-.3-5.2-1.1-12.7v-18.2l-.3-4.4-1.4-5c0-10.2-.3-16.5-.6-19.8-.3-3.6-.3-6.6-.3-9.4v-2.5c.8-4.7,1.4-6.3,1.4-11v-2.5l-1.4-9.9v-6.6c9.4-3.6,16.8-6.6,21.7-8.5h0c2.2,1.9,5.5,4.4,9.1,8,3.3,3,7.4,8,11.8,14.3l16.5,22.3c3.6,6.3,5.8,10.2,8.8,13.8,2.8,3.6,6.6,5.8,11,6.6,0,4.7,1.9,8.8,5.2,12.1,2.8,3,5.2,5.8,7.2,8.5,2.8,3.6,6.1,6.3,9.6,8.5,5.2,8.5,9.1,14.6,17.1,20.1l1.9,1.1s1.4.6,1.9.8c2.5,12.4,9.1,23.7,18.4,32.7,1.7,1.9,3.9,3.9,6.1,5.5.6,1.9,1.4,4.1,2.5,5.8,6.9,10.7,11.6,17.9,16.2,23.1l1.9,1.7c-1.9,7.4,1.1,15.7,8,20.1l6.9,4.4c.6,2.5,1.7,5.2,3.6,8.8,5.5,8.8,9.1,15.1,10.2,17.1,1.9,4.1,5.2,7.4,9.4,9.4.8.3,1.7.8,1.9.8,1.4,1.4,2.8,2.5,4.4,3.9,3,1.1.6,3.6,13.2,5.2,10.2-1.1,7.2-1.9,8.8-2.2,2.2-1.4,3.3-2.2,5.8-3.9l5-1.9c6.3-2.5,10.7-3.6,11-3.6,5.8-1.4,7.4-1.1,13.2-3.9l8.5-5c1.9-.8,4.7-2.2,6.6-3,.8-.6,1.7-.8,2.5-1.4,1.4-1.1.6.3,5.2-3.9,4.1-4.7,6.6-10.5,6.6-16.2,0-8.3-4.7-14.3-8-17.3-5-4.7-11.8-6.1-18.2-3.9l-3.9-.6-6.6,1.1s-2.2-1.4-3-1.9c-.3-.8-.6-1.4-.8-1.9-.6-.8-.8-1.7-1.4-2.5-1.4-.8,0-1.4-3-3.9-4.7-4.7-9.6-5.8-13.2-6.1-.6-2.5-1.4-4.7-2.2-6.9-3.9-7.4-8.3-12.1-20.4-28.6-4.7-6.3-9.9-11.3-16-15.4-1.9-1.1-3.6-1.9-5-2.8-.8-6.9-2.5-9.6-4.4-14.6-3-6.6-5.8-8.8-11.6-16.5l-6.6-9.9c-11.8-14.6-18.7-23.9-19.5-25.6-5.2-9.9-6.3-12.9-9.6-18.2-2.5-2.5-3.9-4.1-4.7-5l-.3-.3c-1.4-2.8-2.8-5.2-5.2-7.7-1.1-1.4-2.2-2.5-3.6-3.3-.6-2.2-1.7-4.4-3-6.3-1.9-2.5-3.6-5-5.2-7.4-2.5-3.3-3.9-5.5-6.6-8.5-2.8-2.5-5.5-5-8.8-6.6-1.7-3.3-2.5-5.5-6.3-9.6l-6.3-7.2-3.3-6.9c2.8-.8,5.5-1.7,8.3-3,6.6-4.1,11-8.5,15.4-13.8.8-.3,1.7-.6,3-.8,3.6-.8,6.6-2.8,9.1-5.2,3-.6,6.1-2.2,8.5-4.4h0c2.2-.6,4.7-1.4,8-3.3,6.1-4.4,7.4-6.6,12.1-11.6,1.9-2.5,2.2-2.2,2.2-2.2,1.4-.6,2.5-1.4,3.6-1.9,3.6,0,7.2-1.1,10.2-3l8-5.5c3.3-2.2,5.8-5.5,7.2-9.4h0c1.7-1.4,4.7-3.3,8-5.8l2.2-1.9c10.2-9.9,16-15.7,17.6-17.6,1.1-1.1,1.7-1.9,2.2-2.5,5.2-3.9,9.4-8.5,12.7-13.5,3.6-7.2,5.8-6.3,7.4-19,0-3.6-1.4-8.3-3.9-11.8.3-3.6.6-6.9.6-10.2-1.4-14.9-9.1-18.7-14.9-23.4q-.8-.6-1.1-.8c-1.1-1.4-3.9-3.3-7.4-5-3.3-4.1-7.7-7.2-11.8-8.5-8.3-3.3-16.2-5.8-24.5-6.9l-7.2-1.1h-9.4l-3.6-.8-3-.6-8.5-1.1-11.6-1.9c-8-.6-12.9-1.4-15.1-1.9-5.2-1.4-10.7,0-14.9,2.8l-10.2-.6-4.1-.8h-2.5c-23.7-.8-39.3-1.9-43.2-2.5-2.8-.3-2.8-.8-7.4-.8h-2.5c-7.7,1.1-13.8,1.7-17.6,2.2-1.9,0-3.6.3-4.4.6h0s-3.3,0-6.6-.6c-2.5-.3-6.6-.8-13.2-1.4-3.3,0-6.3.3-9.1,1.7-2.8-1.9-6.9-3.6-12.9-4.4-8.8.8-7.4,1.7-11,2.8-2.5,1.1-5.5,2.5-9.6,4.4-3,1.4-5.8,3-8.3,5h0c-5.2,0-11.8,1.9-16.2,6.1-5.8,4.1-9.6,13.2-9.4,20.6,0,9.1,5.2,14.9,8.8,17.9,1.1.8,2.5,1.7,3.6,2.5v5c-.3,5,1.7,9.9,5.2,13.2l9.9,9.9c-.6,1.7-.8,3.3-.8,5l-.8,15.7-10.5,17.3-2.5,9.4c.8,8.8,1.9,7.2,2.2,9.1.6,1.1,1.4,2.5,2.2,3.3-1.4,2.8-1.9,6.1-1.7,9.1.6,6.6.8,12.1.8,16.5s0,4.1-.3,7.2c0,2.8,0,5.5,1.1,8-.8,1.7-1.4,4.4-2.2,8.8v2.2l2.8,21.2c0,1.1-.6,6.9-1.1,16.2,0,1.7-.3,4.1-.3,6.3,0,5.8.6,12.1,1.9,20.4.3,2.2,1.1,4.4,2.2,6.3-1.1,2.5-1.9,5.8-1.9,9.6v32.7l-3.6,31.1v1.9c0,5.8.6,11,2.5,16.5-2.8,3-4.4,6.6-4.7,10.7-.6,7.2,3,13.8,9.1,17.3.3,0,.6.3,1.1.6-.6.3-1.1.6-1.9.8-8.8,4.4-12.7,15.1-8.3,24.2l.8,1.4.8,1.1c-.8,6.3-2.2,14.9-4.1,25.6v2.5c-.6,3.3-.6,6.1-.8,7.7h0c-1.1,2.2-3.3,7.2-6.6,14l-.8,1.7.3-.8Z"/>
      <path class="st1" d="M3648.7,1033.5s0,.6.3.8c3.3,7.2,10.7,11,18.7,10.2,5.5-.8,9.6-1.1,11.3-1.1h.6c6.9,1.7,9.6,2.5,15.4,2.8h22.6c3.3-.6,6.1-1.1,8-1.4h1.9c1.7.6,4.1,1.1,7.4,1.7,4.1.8,8.3.3,11.8-1.4l8.3-3.9,1.1-.6,5.8,1.9,6.1,1.1h3c5,3.3,11.3,3.9,17.1,1.7h0l14.6,1.1h4.4c3.6-.8,6.1-1.1,7.7-1.4h1.4c5,.3,9.9.8,14,.8s5.5.3,7.7.6c.6.8,1.4,1.9,1.9,2.8-1.9,3.3-3.3,7.2-4.4,12.1l1.4,7.4v1.1c-.6,2.5-1.4,5.5-1.7,10.2,0,7.7,1.9,16,6.1,22.8v1.1c0,1.7,0,3.6.6,5.8-1.7,2.2-2.8,5-3,7.7-.8,5.8,1.1,11.8,5.5,16,0,0,.6.6.8.6-2.8,3.6-5,8.3-5.8,15.1v46.2l-.6,5c-.6,4.7.8,9.4,3.6,13.2-.3,1.9-.6,3.9-.6,6.1,0,5.8,1.1,8,2.2,12.9v.8h0v3c-.8,2.2-1.4,3.9-1.7,5.2-.6,3.3-.8-.6-1.7,8.3,0,2.8,0,3.6.6,7.2l1.1,11.3c.6,3.9,1.1,5.8,1.1,7.2h0c0,1.4,0,4.1-.8,7.7-.8,4.1-1.4,7.2-1.4,11v38.2l-.8,2.8c-1.4,5.2-.6,10.5,2.5,14.9-1.7,2.8-2.5,5.8-2.5,8.8s0,7.4-.6,13.8v14l-.8,9.6v1.4c0,2.5.3,4.4.8,6.3-.6,1.1-1.4,2.2-1.9,3.6-2.5,7.2-2.2,10.7-2.2,16.5l-.8,6.9-.8,12.4-1.4,5.5-.6,5v4.4c-.8,3.9-1.4,4.7-1.9,10.7.6,9.9,4.7,14.9,8.3,19.8,3.6,4.4,8.8,6.6,14,6.6s5.2-.6,7.4-1.7c4.4-1.9,9.1-5,16.5-9.6h.3c5.2,0,9.9-2.2,13.5-6.1l2.2-2.5h0c5-1.4,6.6-1.1,12.9-5l2.8-2.2c6.1-8,4.1-8.5,5.5-11.3.6-2.5,1.1-5.2,1.7-8.5l-.6-7.4c-.8-3.9-1.7-6.6-2.2-8.5,0-.6,0-1.1-.3-1.7,0-1.4,0-3,.3-4.7,1.4-12.1,2.5-18.7,2.5-24.2v-.6c-.8-13.5-1.1-20.9-1.1-20.9h0c.6-3.6.6-.3,1.1-7.7-.8-8.3-1.1-5.8-2.2-10.2v-2.5c0-1.4-.3-2.8-.8-4.1.6-1.9.8-4.1.6-6.3v-2.5c.3-1.1,1.1-3.6,2.2-6.3,1.4-3.9,1.7-8.3.6-12.1-.8-2.2-1.4-4.1-1.7-5.2v-.8c0-.8,0-5.5-.6-12.4l-.6-9.4s.6-5.5,1.4-11c.8-4.1,0-8.5-2.2-12.1,0-1.4,0-2.8-.3-4.1,0-2.2-.3-3.9-.6-5.5,2.5-4.1,3.6-9.1,2.2-14-1.4-5.8-5.5-10.5-11-12.7-2.2-.8-3.9-1.7-5.2-2.5,1.9-1.4,4.4-3.3,8.3-5.2,6.1-3.3,9.6-9.6,9.4-16.5,0-4.7-1.9-9.1-5.2-12.4,4.1-5.5,5.2-11.8,5-15.7,0-2.5,0-3.9-.6-8.5-.3-3.3-.6-7.2-.8-12.1l-.8-12.7c-1.1-12.9-1.7-21.2-1.7-22.3,0-1.9,0-3.6.3-4.7.6-5.2,1.1-8.3,1.1-11.8-.3-7.7-2.5-10.7-4.4-15.1,0,0,0-.3-.3-.6v-.6c.8-1.4,1.4-2.2,1.9-3,.3-.6.6-.8.8-1.7.3-2.2.8,2.2,2.2-8.8-1.1-12.7-7.7-15.4-9.9-17.3-1.9-1.4-3.9-2.2-5.8-3,.6-.8,1.4-1.9,1.9-3,1.9-3.6,3.6-6.3,4.7-8,0,0,0-.3.3-.6,2.5-2.2,4.4-4.1,6.3-6.1,0-.3.3-.8.6-.8,8,.6,11.6,1.1,14.9,1.1h0c3.9,0,7.7-.6,11-1.7l7.4.6h4.1l2.5,1.1c5.8,2.2,12.4,1.1,17.1-2.5l1.9,1.1c3.6,2.2,8,3,12.1,2.5l7.4-1.1c16,.8,22.8,1.4,25.6,1.4s6.6,0,10.2-.8c5.8-.8,10.2-1.4,13.2-1.7,1.7,0,2.8-.3,3.3-.3h0c1.7,0,4.1,0,7.2.8,4.7,1.1,8.3,1.9,13.5,2.2,4.1,0,5.5-.6,10.5-1.1h1.9s3.3.8,5.8,1.4c3.6.6,5.8.8,8.8.8,6.6,0,13.2-1.7,19-4.7,4.7-3,6.3-2.2,12.7-9.1l4.1-5.5h.6c4.7-2.2,8.3-6.1,9.9-11l.8-.6c5.8-5.2,7.7-13.5,4.7-20.6-2.5-7.2-11.8-14.9-20.4-15.4l-9.1,1.4-4.7,1.9-3.9.8c-2.2.6-4.1,1.4-5.8,2.5-3.6-1.9-7.7-3-10.5-2.8-5,0-7.7,1.4-10.2,2.5-3.6,1.9-6.6,3.3-8.5,4.4h-2.5c-3.3-2.5-7.2-4.1-11.6-4.1h-3.9l-13.8,3c-1.4,0-4.1-.3-7.4-.8-5.2-.8-10.2.8-14,4.1-1.9-.6-2.5-.3-3-.3h-14.3l-12.9.8h-21.5c-1.1,0-3-.6-5.8-1.1h-7.4l-4.4.6c-8.5-1.7-11.6-2.5-17.3-2.8-6.3,0-11.6,1.7-16.5,4.1-1.1-.3-1.9-.6-3-.8-5.2-1.7-9.6-1.9-16.8-2.8-3-.8-1.9-1.1-9.4-1.9-4.1,0-7.4.8-10.5,2.2-.8,0-2.5.6-3.6,1.1l-30.8-1.9c-4.7-.3-8.3-.6-11.3-.6-5.5,0-12.4.6-21.7,1.7h-2.5l-9.1-1.1-29.4-2.2c-5-.3-11.6-1.4-19.5-2.5l-5.8-.8c-8.5-5.2-17.6-8.5-27.5-8.5s-16.8,1.7-24.5,6.1c-11.8,7.2-20.6,11.6-20.9,11.6-4.4,1.4-8,4.4-10.2,8.5-.6.8-.8,1.4-.8,1.7h0c-3.6,4.4-7.7,6.3-8.8,18.2,0,3,.8,6.1,2.2,8.8"/>
      <path class="st0" d="M629.9,895.2s-45.9-91-45.9-225.3,64.1-233,318.8-414.5c137-97.6,697.6-351.3,356.8-217-340.8,134.2-667,243.4-739.1,408.7-31.1,71.2-30.5,147.2-19.5,210.4,14.3,83.3,129,237.9,129,237.9"/>
      <path class="st0" d="M883.8,368.7c-32.7,64.9-29.4,132.6,7.4,151.3s93.5-18.4,126.5-83.3c33-64.6,29.7-132.3-7.4-151.3-37.1-18.7-93.5,18.4-126.5,83.3"/>
      <path class="st0" d="M1476.3,1986.4c-365.8-130.1-307.8-303.4-378.2-477.8,76.7-131.5,9.4-207.1-75.9-283-93-82.5-76.5-164.8-76.5-164.8,0,0-31.1,91.9,24.8,195.8,28.6,53.4-11.8,129.3-97.6,204.4-10.7-52-17.3-116.4-17.3-186.2s53.4-421.9,156.2-493.2c134.2-93,274-96.5,459.6-127.6,185.9-31.1,398.8-175.5,398.8-175.5-480.3,177.4-1113.2,23.1-1185.5,260.5-57.5,189,30.8,490.2,177.7,730.8-104,87.2-268.2,172.2-456.6,218.1C49.5,1774.8,0,2650.4,0,2650.4c0,0,258-629.9,330.4-691.8,56.7-48.7,411.5-179.6,617-308.6,23.7,53.6,68.8,139.7,153.2,226.7,156,160.4,414.5,327.9,448.1,377.9l61.9,93s31.4-302.6-134.2-361.4"/>
      <path class="st0" d="M4197.7,1698.6c-225.6-31.1-467.9-56.9-720.9-75.6-954.2-71-1765.9-20.1-2061.3,112.2,502-74,1394.3-82.2,2410.7-6.6,103.4,7.7,205.2,16,305.9,25,60,7.2,127.1,13.5,199.7,18.7,124.9,9.4,266.5,16.2,418.6,19.8,77.3,1.9,157.1,2.8,238.8,2.8,584.8,0,1070.3-47.6,1169.3-110.6-316,17.6-711.9,28.1-1142.1,28.1s-571.3-5-818.6-13.5"/>
    </g>
  </g>
</svg>