<svg width="48" height="48" viewBox="0 0 48 48" fill="none" xmlns="http://www.w3.org/2000/svg">
<rect y="2" width="48" height="43" fill="white"/>
<path d="M34.4524 29.5535C34.6659 29.5535 34.6659 28.9786 34.6659 28.9786C34.9452 23.9191 34.6824 19.5002 34.6824 19.5002C34.5345 17.8411 33.976 17.7261 33.976 17.7261H34.8795C34.8302 17.2661 34.6988 16.9376 34.6988 16.9376C32.7604 11.336 31.6105 8.85547 31.6105 8.85547C30.0335 13.2908 29.015 16.8883 29.015 16.8883C28.9165 17.2825 28.8672 17.7753 28.8672 17.7753C30.9698 17.7261 31.4298 18.0875 31.4298 18.0875C32.7111 18.6131 32.7768 20.1901 32.7768 20.1901C32.8261 21.6686 31.9719 22.2764 31.9719 22.2764C31.282 22.917 30.1978 23.0484 30.1978 23.0484C31.6926 26.3667 33.1218 28.4201 33.1218 28.4201C33.976 29.7835 34.4524 29.5535 34.4524 29.5535Z" fill="#0468FF"/>
<path d="M17.8894 18.7115C16.0167 18.5801 15.1789 20.0421 15.1789 20.0421C14.5219 20.9948 14.5547 23.2782 14.5547 23.2782C14.4233 26.2843 15.1625 27.4671 15.1625 27.4671C16.0496 29.0605 17.5116 29.0441 17.5116 29.0441C19.7128 29.1098 20.4192 27.4342 20.4192 27.4342C21.0927 25.9558 20.9613 23.2782 20.9613 23.2782C20.912 21.0277 20.2385 20.0421 20.2385 20.0421C19.4664 18.6129 17.8894 18.7115 17.8894 18.7115Z" fill="#0468FF"/>
<path d="M23.618 8.17856C23.618 8.17856 23.2894 7.2258 22.3038 7.25865C22.3038 7.25865 21.9095 7.16009 19.6426 7.25865C19.6426 7.25865 18.8705 7.25865 18.9198 8.27713V10.8726C18.9198 10.8726 20.234 10.9383 22.2381 10.8397C22.2381 10.8397 22.5995 10.8069 22.9445 10.6919L22.7309 12.4003C22.7309 12.4003 22.6652 12.1375 19.0841 12.2525C19.0841 12.2525 18.9527 12.2525 18.9198 12.3839C18.9198 12.3839 18.8541 13.8623 18.9198 15.735C18.9198 15.735 19.0184 16.5235 19.9876 16.5235C19.9876 16.5235 23.2566 16.6056 23.9629 16.2278C23.9629 16.2278 24.275 16.1785 24.7186 15.39C24.7186 15.39 24.735 15.6529 24.505 17.7391H27.1005C27.1005 17.7391 27.429 17.6898 27.429 17.4106C27.429 17.4106 27.5769 17.0984 26.9691 15.5543C26.9691 15.5872 25.8849 12.6631 23.618 8.17856Z" fill="#0468FF"/>
<path d="M45.7822 0H2.2505C1.00205 0 0 1.00205 0 2.23408V45.7657C0 46.9977 1.00205 47.9998 2.23408 47.9998H45.7657C46.9977 47.9998 47.9998 46.9977 47.9998 45.7657V2.23408C48.0162 1.00205 47.0142 0 45.7822 0ZM38.8828 40.7226C38.8828 40.7226 38.8171 41.4947 38.4393 41.4783C38.4393 41.4783 38.3078 41.6425 34.891 41.429C34.891 41.429 34.1354 41.2483 31.4085 41.4126C31.4085 41.4126 32.0163 41.2647 32.1149 39.7041C32.1149 39.7041 32.2791 35.2853 32.197 30.3736C32.197 30.3736 32.2298 29.6508 31.7206 29.6015C31.7206 29.6015 31.2442 29.6672 30.965 29.2237C30.965 29.2237 29.4701 26.1847 28.4845 23.7535C28.3695 23.4742 28.2709 23.195 28.1724 22.9486C28.1724 22.9486 27.9424 22.6529 28.4023 22.735C28.4023 22.735 29.4372 22.7514 30.045 22.1601C30.045 22.1601 30.9485 21.2894 30.6693 20.156C30.6693 20.156 30.62 19.1539 29.6015 18.8911C29.6015 18.8911 28.7473 18.5954 27.4003 18.8747C27.4003 18.8747 26.9239 18.9404 26.9075 19.5153V28.6816C26.9075 28.6816 26.7596 29.6672 27.9095 29.5851H29.4701C29.4701 29.5851 29.9958 29.503 29.8151 29.9629L29.5851 31.08C29.5851 31.08 29.5358 30.8993 28.9609 30.8664C28.9609 30.8664 28.4023 30.6693 25.7904 30.8171C25.7904 30.8171 25.1826 30.8007 25.1662 31.1621V34.7268H27.7945C27.7945 34.7268 29.4044 34.7596 29.6179 34.6446L29.2894 36.353C29.2894 36.353 29.0759 36.1395 28.5666 36.1723C28.5666 36.1723 27.7781 36.0081 25.1498 36.1231L25.1826 39.9998C25.1826 39.9998 25.1662 41.3304 25.7904 41.4783C25.7904 41.4783 24.4106 41.2976 22.3901 41.4783C22.3901 41.4783 23.08 41.2483 23.1621 40.2298C23.1621 40.2298 23.4742 35.6302 23.3428 31.3756C23.3428 31.3756 23.4414 29.6179 22.735 29.4208H23.8192C23.8192 29.4208 24.657 29.5687 24.8213 27.6796C24.8213 27.6796 24.9855 25.9547 25.0019 23.7863C25.0019 22.5872 24.9691 21.2566 24.8377 20.0246C24.8377 20.0246 24.8541 18.1026 23.6056 17.9876L19.3182 17.9712C19.3182 17.9712 21.0102 18.464 21.8315 19.5153C21.8315 19.5153 23.0471 20.8623 23.0471 23.3921C23.0471 23.3921 23.0636 23.5399 23.0636 23.8028C23.0964 24.7227 23.0471 27.121 21.848 28.3695C21.848 28.3695 21.5358 29.0759 19.581 29.5851C19.581 29.5851 18.7268 29.9136 18.7432 31.2771C18.7432 31.2771 18.6447 35.4824 18.7432 40.6076C18.7432 40.6076 18.7432 41.2319 19.4989 41.544C19.4989 41.544 18.1683 41.2811 15.7207 41.4618C15.7207 41.4618 16.2628 41.4126 16.427 40.6569C16.427 40.6569 16.7556 39.852 16.7884 35.4331V31.2606C16.7884 31.2606 16.8049 29.7822 15.9342 29.5687C15.9342 29.5687 14.3244 29.3223 13.5852 28.4188C13.5852 28.4188 12.501 27.6138 12.4517 24.3449C12.4517 24.3449 12.4353 24.1477 12.4188 23.8192C12.4024 23.0636 12.4517 21.5358 13.0431 20.3202C13.0431 20.3202 13.7494 18.5133 15.9835 18.0862C15.9835 18.0862 15.1786 16.6242 9.93836 8.6899V16.8706C9.93836 16.8706 10.0205 17.7412 10.9733 17.8233H13.3223C13.3223 17.8233 12.8788 17.9219 9.87265 23.2114C9.87265 23.2114 9.72481 23.4414 9.52768 23.8028C9.21557 24.3941 8.78846 25.2812 8.82132 25.8397V28.583C8.82132 28.583 8.82132 29.2894 9.83979 29.4372H11.8439C10.7269 29.5194 10.7433 30.4557 10.7433 30.4557C10.5133 34.661 10.6776 39.737 10.6776 39.737C10.6447 40.2955 11.5154 40.3612 11.5154 40.3612C11.5154 40.3612 13.4373 40.4762 14.0944 40.3284C14.0944 40.3284 14.8172 40.2462 15.2114 39.6384L14.965 41.0676C14.965 41.0676 14.9322 41.3961 14.4394 41.4947C14.4394 41.4947 14.1601 41.659 12.1396 41.4618C12.1396 41.4618 10.1848 41.314 7.96711 41.4454C7.96711 41.4454 8.82132 41.1826 8.80489 39.4413C8.80489 39.4413 8.8706 35.8109 8.80489 31.3592C8.80489 31.3592 8.75561 29.5851 7.58929 29.6508L5.97944 29.6672C5.97944 29.6672 6.98149 29.3715 7.01434 28.2709V25.3305C7.01434 25.0841 6.94864 24.3449 6.42297 23.4742C5.94659 22.6693 5.25665 20.9773 4.0082 19.4825C2.77617 18.0205 1.74127 17.8398 1.74127 17.8398H4.53386C4.53386 17.8398 5.19094 18.0369 5.94659 19.0061C6.39012 19.581 8.32851 23.2278 8.32851 23.2278L10.3983 19.581C10.3983 19.581 11.1211 18.0205 10.0205 17.9055H7.35931C7.35931 17.9055 8.34493 17.9055 8.39421 16.9034C8.39421 16.9034 8.70633 11.6303 8.45992 7.8357C8.45992 7.8357 8.47635 6.50511 7.91783 6.12728H11.4168C11.4168 6.12728 11.3347 6.83365 12.3367 8.45992L16.887 15.6878V7.93426C16.887 7.93426 16.9527 6.20942 16.1806 6.078C16.1806 6.078 17.5112 6.17657 24.6077 6.09443C24.6077 6.09443 25.0512 5.96301 25.3633 6.93221C25.3633 6.93221 26.0533 9.23199 28.3366 13.6837C28.3366 13.6837 29.2894 11.1704 30.4886 7.06363C30.4886 7.06363 30.7514 6.22585 30.3243 6.06158C30.3243 6.06158 31.3099 6.22585 32.8048 6.06158C32.8048 6.06158 32.7227 6.4394 33.889 9.46197C33.889 9.46197 34.2832 10.464 35.8274 14.2587C35.8274 14.2587 36.8458 11.6796 38.0286 7.58929C38.0286 7.58929 38.5543 6.40654 37.8807 6.16014C37.8807 6.16014 38.6364 6.29155 40.3777 6.14371C40.3777 6.14371 39.9177 6.34084 36.1888 17.7905H37.1744C37.1744 17.7905 36.7473 17.8398 36.698 18.6447C36.698 18.6447 36.698 20.3695 36.698 23.8028C36.698 25.2155 36.698 26.9403 36.698 28.9444C36.698 28.9444 36.6816 29.7001 37.3879 29.6344H38.3736C38.3736 29.6344 39.0635 29.6015 38.9485 29.8644L38.6692 31.1785C38.6692 31.1785 38.505 30.8664 37.9136 30.8664C37.9136 30.8664 37.3715 30.7186 34.8582 30.7843C34.8582 30.7843 34.2504 30.7514 34.2504 31.2771V34.5296C37.0594 34.5461 36.5994 34.5461 36.5994 34.5461C38.275 34.5953 38.39 34.4803 38.39 34.4803L38.1272 36.0902C38.1272 36.0902 37.9629 35.9259 37.3551 35.9095C37.3551 35.9095 36.7966 35.8109 34.2504 35.8766V39.5399C34.2504 39.5399 34.2668 40.1477 35.0881 40.1805C35.0881 40.1805 35.8438 40.3941 37.3551 40.197C37.3551 40.197 38.8992 40.2955 39.2113 39.3099L38.8828 40.7226ZM41.8725 29.5851C41.4126 29.6508 41.0347 29.1087 41.0347 29.1087C37.0758 22.9814 36.8623 22.965 36.8623 22.965C39.507 19.8439 41.0676 18.119 41.0676 18.119C41.429 17.7248 42.0696 17.7412 42.0696 17.7412H43.7288C43.236 17.9219 42.316 18.9239 42.316 18.9239C40.6898 20.4845 38.9814 22.505 38.9814 22.505C43.236 29.2401 44.2216 29.5851 44.2216 29.5851H41.8725Z" fill="#0468FF"/>
</svg>
