<svg xmlns="http://www.w3.org/2000/svg" id="Layer_3" viewBox="0 0 1440 541.28"><defs><style>.st0{fill:#48a697}</style></defs><path d="M265.71 425.44v-38.41c0-1.24.65-1.95 1.82-1.95h1.62c1.17 0 1.82.72 1.82 1.95v16.73h23.81v-16.73c0-1.24.65-1.95 1.82-1.95h1.69c1.17 0 1.75.72 1.75 1.95v38.41c0 1.17-.58 1.95-1.75 1.95h-1.69c-1.17 0-1.82-.78-1.82-1.95v-17.06h-23.81v17.06c0 1.17-.65 1.95-1.82 1.95h-1.62c-1.17 0-1.82-.78-1.82-1.95M324.52 423.69c2.86 0 6.49-.78 9.99-3.71 1.17-.98 2.01-.85 2.79 0l.65.59c.97 1.04.52 1.95-.13 2.61-3.89 3.78-9.41 5.01-13.3 5.01-8.89 0-17.2-6.19-17.2-16.93 0-9.83 7.01-17.19 16.35-17.19 4.61 0 8.5 1.63 11.29 4.36 3.18 3.13 4.87 7.42 4.87 12.05 0 1.24-.91 2.08-2.21 2.08h-25.05c.58 7.16 6.03 11.13 11.94 11.13Zm-11.87-15.43h21.93c-.39-2.67-1.43-4.95-2.99-6.51-1.88-2.08-4.61-3.19-7.92-3.19-5.9 0-10.19 3.78-11.03 9.7ZM373.38 407.41v18.1c0 1.24-.52 1.89-1.69 1.89h-1.3c-1.17 0-1.75-.78-1.75-1.89v-2.41c-2.73 3.19-6.81 5.08-11.16 5.08-7.53 0-12.59-4.23-12.59-10.61s5.52-10.87 13.76-10.87c3.83 0 7.07 1.04 9.8 2.34v-2.6c0-4.75-3.57-7.88-8.89-7.88-3.05 0-6.62.98-9.8 3.39-1.04.78-1.82.39-2.47-.46l-.39-.52c-.84-1.11-.39-2.21.52-2.86 4.54-3.19 8.24-4.04 12.39-4.04 8.57 0 13.56 4.75 13.56 13.35Zm-4.86 8.14v-2.08c-2.08-1.04-5.71-2.54-9.67-2.54-5.32 0-8.83 2.73-8.83 6.71 0 3.71 3.24 6.12 8.05 6.12 5.19 0 10.45-3.13 10.45-8.2ZM383.24 425.51v-42.32c0-.98.58-1.56 1.75-1.89l1.36-.33c1.43-.39 2.01.39 2.01 1.76v42.78c0 1.11-.65 1.89-1.75 1.89h-1.62c-1.1 0-1.75-.78-1.75-1.89M415.36 426.42c-1.62 1.11-3.5 1.76-5.97 1.76-5.71 0-9.73-3.52-9.73-10.42v-18.95h-3.63c-1.1 0-1.82-.65-1.82-1.76v-.78c0-1.11.71-1.76 1.82-1.76h3.63v-9.11c0-.98.58-1.56 1.75-1.89l1.36-.33c1.43-.39 2.01.39 2.01 1.76v9.57h8.24c1.17 0 1.88.65 1.88 1.76v.78c0 1.11-.71 1.76-1.88 1.76h-8.24v18.75c0 4.23 2.01 6.06 5.13 6.06 1.3 0 2.27-.46 3.37-1.11 1.3-.78 2.01-.33 2.6.65l.39.72c.71 1.17-.2 2.08-.91 2.54M450.2 407.6v17.91c0 1.11-.65 1.89-1.75 1.89h-1.62c-1.1 0-1.75-.78-1.75-1.89v-17.45c0-5.73-3.5-9.44-9.02-9.44s-9.54 3.71-9.54 9.44v17.45c0 1.11-.65 1.89-1.75 1.89h-1.62c-1.1 0-1.75-.78-1.75-1.89v-42.32c0-.98.58-1.56 1.75-1.89l1.36-.33c1.43-.39 2.01.39 2.01 1.76v15.89c2.34-2.86 5.9-4.56 10.45-4.56 8.18 0 13.24 5.6 13.24 13.54ZM476.61 425.44v-38.41c0-1.24.71-1.95 1.95-1.95h13.56c9.67 0 15.05 4.69 15.05 12.96s-5.39 12.83-15.05 12.83h-10.25v14.58c0 1.17-.65 1.95-1.82 1.95h-1.62c-1.17 0-1.82-.78-1.82-1.95Zm16.61-19.01c5.45 0 8.5-3 8.5-8.33s-3.05-8.4-8.5-8.4h-11.36v16.73zM539.68 407.41v18.1c0 1.24-.52 1.89-1.69 1.89h-1.3c-1.17 0-1.75-.78-1.75-1.89v-2.41c-2.73 3.19-6.81 5.08-11.16 5.08-7.53 0-12.59-4.23-12.59-10.61s5.52-10.87 13.76-10.87c3.83 0 7.07 1.04 9.8 2.34v-2.6c0-4.75-3.57-7.88-8.89-7.88-3.05 0-6.62.98-9.8 3.39-1.04.78-1.82.39-2.47-.46l-.39-.52c-.84-1.11-.39-2.21.52-2.86 4.54-3.19 8.24-4.04 12.39-4.04 8.57 0 13.56 4.75 13.56 13.35Zm-4.87 8.14v-2.08c-2.08-1.04-5.71-2.54-9.67-2.54-5.32 0-8.83 2.73-8.83 6.71 0 3.71 3.24 6.12 8.05 6.12 5.19 0 10.45-3.13 10.45-8.2ZM565.85 396.8l-.26 1.04c-.39 1.3-1.36 1.43-2.34 1.17-.78-.26-1.49-.39-2.27-.39-4.8 0-7.66 4.3-7.66 10.16v16.73c0 1.11-.58 1.89-1.75 1.89h-1.62c-1.1 0-1.75-.78-1.75-1.89v-29.1c0-1.17.65-1.89 1.75-1.89h1.3c1.1 0 1.75.72 1.75 1.89v2.73c1.75-3.12 4.54-5.08 8.44-5.08 1.49 0 2.21.13 3.31.39.91.26 1.56.78 1.1 2.34ZM589.63 426.42c-1.62 1.11-3.5 1.76-5.97 1.76-5.71 0-9.73-3.52-9.73-10.42v-18.95h-3.63c-1.1 0-1.82-.65-1.82-1.76v-.78c0-1.11.71-1.76 1.82-1.76h3.63v-9.11c0-.98.58-1.56 1.75-1.89l1.36-.33c1.43-.39 2.01.39 2.01 1.76v9.57h8.24c1.17 0 1.88.65 1.88 1.76v.78c0 1.11-.71 1.76-1.88 1.76h-8.24v18.75c0 4.23 2.01 6.06 5.13 6.06 1.3 0 2.27-.46 3.37-1.11 1.3-.78 2.01-.33 2.6.65l.39.72c.71 1.17-.2 2.08-.91 2.54M624.41 407.6v17.91c0 1.11-.58 1.89-1.75 1.89h-1.62c-1.1 0-1.75-.78-1.75-1.89v-17.45c0-5.73-3.5-9.44-9.02-9.44s-9.54 3.71-9.54 9.44v17.45c0 1.11-.58 1.89-1.75 1.89h-1.62c-1.1 0-1.75-.78-1.75-1.89v-29.1c0-1.17.65-1.89 1.75-1.89h1.3c1.1 0 1.75.72 1.75 1.89v2.67c2.27-3.13 5.97-5.01 10.77-5.01 8.18 0 13.24 5.6 13.24 13.54ZM647.8 423.69c2.86 0 6.49-.78 9.99-3.71 1.17-.98 2.01-.85 2.79 0l.65.59c.97 1.04.52 1.95-.13 2.61-3.89 3.78-9.41 5.01-13.3 5.01-8.89 0-17.2-6.19-17.2-16.93 0-9.83 7.01-17.19 16.35-17.19 4.61 0 8.5 1.63 11.29 4.36 3.18 3.13 4.87 7.42 4.87 12.05 0 1.24-.91 2.08-2.21 2.08h-25.05c.58 7.16 6.03 11.13 11.94 11.13Zm-11.87-15.43h21.93c-.39-2.67-1.43-4.95-2.99-6.51-1.88-2.08-4.61-3.19-7.92-3.19-5.9 0-10.19 3.78-11.03 9.7ZM688.22 396.8l-.26 1.04c-.39 1.3-1.36 1.43-2.34 1.17-.78-.26-1.49-.39-2.27-.39-4.8 0-7.66 4.3-7.66 10.16v16.73c0 1.11-.58 1.89-1.75 1.89h-1.62c-1.1 0-1.75-.78-1.75-1.89v-29.1c0-1.17.65-1.89 1.75-1.89h1.3c1.1 0 1.75.72 1.75 1.89v2.73c1.75-3.12 4.54-5.08 8.44-5.08 1.49 0 2.21.13 3.31.39.91.26 1.56.78 1.1 2.34ZM690.43 422.97c-.65-.85-1.04-1.82.13-2.73l.45-.46c.91-.78 1.75-1.04 2.79.06 2.14 2.41 5 3.84 8.24 3.84 3.96 0 6.68-1.82 6.68-4.69 0-3.71-3.63-5.01-7.72-6.71-4.61-1.89-9.22-3.91-9.22-9.18s4.35-9.05 10.97-9.05c3.5 0 7.07 1.17 9.86 4.17.78.78 1.17 1.69.13 2.8l-.46.46c-.71.72-1.69 1.17-2.79.13-2.4-2.34-4.15-3.13-6.88-3.13-3.44 0-5.65 1.69-5.65 4.17 0 2.6 2.6 3.84 6.16 5.4 5.58 2.41 10.77 4.3 10.77 10.87 0 5.6-4.67 9.25-11.62 9.25-4.15 0-8.96-1.76-11.87-5.21ZM62.73 313.43c-2.99-3-3.99-6.34-.67-9.68l3.83-4.51c3-3.17 6.32-4.01 9.65-.83 6.82 7.68 18.63 12.35 27.95 12.35 11.98 0 19.47-5.18 19.47-12.69 0-10.85-12.15-12.19-26.79-17.2-13.81-4.51-31.61-12.35-31.61-32.05 0-18.36 16.14-31.22 39.43-31.22 14.97 0 27.12 5.18 35.44 12.86 3.16 2.67 4.49 6.01 1.16 9.52l-3.83 4.51c-2.83 3.01-5.99 3.84-9.48.83-5.82-5.18-13.31-9.35-22.96-9.35s-16.8 4.67-16.8 11.52c0 8.18 8.82 11.35 18.3 14.52 18.3 6.18 40.1 11.52 40.1 35.89 0 20.37-18.14 32.22-41.1 32.22-16.8 0-32.61-6.01-42.09-16.7ZM241.75 250.16v68.78c0 28.05-19.47 40.9-43.92 40.9-16.14 0-27.45-6.01-35.61-14.69-2-2.17-2.83-4.17.17-7.18l4.49-5.34c1.83-1.84 4.16-2.84 7.16.17 5.32 5.51 13.31 10.35 23.96 10.35 12.81 0 23.29-6.51 23.29-20.7v-11.69c-5.49 6.18-13.31 10.18-23.63 10.18-19.8 0-32.94-13.69-32.94-33.72v-22.54c0-1.84-.83-2.67-2.16-2.67-1.5 0-3.33 1-4.83 1.17-2 .67-3.66-.33-4.82-3.67l-1.5-7.01c-1.16-3.34-.5-5.01 2.33-6.51 5.16-2.84 10.48-3.51 13.98-3.51 12.31 0 18.3 7.35 18.3 20.87v20.87c0 10.52 6.32 17.7 16.47 17.7s17.14-7.18 17.14-18.2v-33.56c0-4.01 2.16-6.34 6.16-6.34h9.65c3.99 0 6.32 2.34 6.32 6.34ZM345.57 278.21v43.41c0 4.01-2.33 6.51-6.32 6.51h-9.65c-3.99 0-6.16-2.5-6.16-6.51v-41.74c0-10.85-6.49-18.36-17.64-18.36-10.48 0-17.97 7.18-17.97 18.36v41.74c0 4.01-2.33 6.51-6.32 6.51h-9.65c-3.99 0-6.16-2.5-6.16-6.51v-56.93c0-1.84-.83-2.67-2.16-2.67-1.5 0-3.33 1-4.83 1.17-1.83.67-3.66-.17-4.82-3.67l-1.5-7.01c-1.16-3.51-.5-5.68 2.33-7.18 3.49-2 8.15-2.84 11.65-2.84 8.49 0 15.97 4.01 17.8 13.86 5.66-8.18 14.47-13.86 26.95-13.86 20.8 0 34.44 14.69 34.44 35.73ZM405.46 313.43c6.49 0 13.81-1.84 21.13-7.51 3-2.34 5.32-2.84 7.99 0l3.99 4.01c3.16 3.17 1.83 5.68 0 7.68-8.49 8.68-23.29 12.69-35.11 12.69-24.96 0-45.26-17.2-45.26-43.91 0-25.21 18.47-43.91 43.59-43.91 12.65 0 23.29 4.51 30.45 11.69 7.82 7.68 12.14 18.7 12.14 30.38 0 4.67-1.83 6.84-6.82 6.84h-57.57c1.33 14.19 12.65 22.04 25.46 22.04Zm-25.29-35.72h42.59c-.83-5.18-2.83-9.52-5.99-12.69-3.66-4.01-8.98-6.18-15.31-6.18-11.48 0-19.63 7.35-21.3 18.87ZM517.93 250.66l-2.16 8.35c-1.16 4.17-3.83 4.67-6.49 3.84-2.33-.83-4.99-1.34-7.49-1.34-10.81 0-16.97 8.35-16.97 20.37v39.73c0 4.01-2.33 6.51-6.32 6.51h-9.65c-3.99 0-6.16-2.5-6.16-6.51v-56.93c0-1.84-.83-2.67-2.16-2.67-1.5 0-3.33 1-4.83 1.17-1.83.67-3.66-.17-4.82-3.67l-1.5-7.01c-1.16-3.51-.5-5.68 2.33-7.18 3.49-2 8.15-2.84 11.65-2.84 7.99 0 15.14 3.67 17.47 12.35 4.99-7.68 12.65-12.35 23.13-12.35 3.99 0 7.15.5 10.48 1.5 2.49.83 4.82 2.17 3.49 6.68M616.59 252.5l-1.5 7.01c-1.16 3.51-2.99 4.34-4.82 3.67-1.5-.17-3.33-1.17-4.83-1.17-1.33 0-2.16.83-2.16 2.67v54.59c0 28.05-19.97 40.9-44.42 40.9-17.14 0-29.62-6.18-38.43-15.69-2.5-2.5-3-5.68.17-8.85l3.66-4.34c2.33-2.17 5.32-3.01 8.65.17 5.66 6.18 14.31 11.35 26.12 11.35 12.81 0 23.79-6.51 23.79-20.7v-9.68c-6.65 5.34-15.31 8.68-25.12 8.68-22.79 0-39.93-16.86-39.93-39.23s17.14-39.4 40.1-39.4c11.15 0 20.63 4.17 27.45 10.68 2.83-7.51 9.82-10.68 17.3-10.68 3.49 0 8.15.83 11.65 2.84 2.83 1.5 3.49 3.67 2.33 7.18Zm-32.44 29.38c0-13.02-9.15-22.37-22.3-22.37s-22.13 9.35-22.13 22.37 8.99 22.2 22.3 22.2 22.13-9.35 22.13-22.2M713.76 250.16v68.78c0 28.05-19.47 40.9-43.92 40.9-16.14 0-27.45-6.01-35.61-14.69-2-2.17-2.83-4.17.17-7.18l4.49-5.34c1.83-1.84 4.16-2.84 7.16.17 5.32 5.51 13.31 10.35 23.96 10.35 12.81 0 23.29-6.51 23.29-20.7v-11.69c-5.49 6.18-13.31 10.18-23.63 10.18-19.8 0-32.94-13.69-32.94-33.72v-22.54c0-1.84-.83-2.67-2.16-2.67-1.5 0-3.33 1-4.83 1.17-2 .67-3.66-.33-4.82-3.67l-1.5-7.01c-1.16-3.34-.5-5.01 2.33-6.51 5.16-2.84 10.48-3.51 13.98-3.51 12.31 0 18.3 7.35 18.3 20.87v20.87c0 10.52 6.32 17.7 16.47 17.7s17.14-7.18 17.14-18.2v-33.56c0-4.01 2.16-6.34 6.16-6.34h9.65c3.99 0 6.32 2.34 6.32 6.34ZM379.16 213.26c-2.87-4.44-1.61-10.37 2.81-13.25l63.95-41.64c13.82-9 17.76-27.6 8.79-41.46s-27.51-17.82-41.32-8.82l-63.95 41.64c-4.42 2.88-10.33 1.62-13.2-2.82s-1.61-10.37 2.81-13.25L403 92.02c22.65-14.75 53.03-8.26 67.72 14.46 7.1 10.97 9.5 24.1 6.77 36.96s-10.25 23.87-21.19 30.99l-63.95 41.64c-4.43 2.84-10.33 1.62-13.2-2.82Z" class="st0"/><path d="M394.75 61.65c2.87 4.44 1.61 10.37-2.81 13.25l-63.95 41.64c-13.82 9-17.76 27.6-8.79 41.46s27.51 17.82 41.32 8.82l63.95-41.64c4.42-2.88 10.33-1.62 13.2 2.82s1.61 10.37-2.81 13.25l-63.95 41.64c-22.65 14.75-53.03 8.26-67.72-14.46-7.1-10.97-9.5-24.1-6.77-36.96s10.25-23.87 21.19-30.99l63.95-41.64c4.43-2.84 10.33-1.62 13.2 2.82ZM832.62 203.16v-52.69h10.09l22.43 37.18h-5.34l22.05-37.18h10.01l.15 52.69h-11.44l-.08-35.15h2.11l-17.61 29.58h-5.5l-17.99-29.58h2.56v35.15zM916.62 193.38h28.68v9.79h-40.8v-52.69h39.82v9.79h-27.7v33.12Zm-.9-21.68h25.37v9.48h-25.37zM955.01 203.16v-52.69h10.09l31.09 37.94h-4.89v-37.94h12.04v52.69h-10.01l-31.16-37.94h4.89v37.94h-12.04ZM1015.83 203.16v-52.69h23.94c5.72 0 10.76 1.09 15.13 3.27s7.78 5.23 10.24 9.15c2.46 3.91 3.69 8.56 3.69 13.92s-1.23 9.95-3.69 13.89-5.87 7-10.24 9.18-9.41 3.27-15.13 3.27h-23.94Zm12.19-10.01h11.14c3.51 0 6.56-.67 9.15-2 2.58-1.33 4.59-3.22 6.02-5.68s2.14-5.34 2.14-8.66-.71-6.26-2.14-8.69-3.44-4.31-6.02-5.64-5.63-2-9.15-2h-11.14zM1090.12 193.38h28.68v9.79H1078v-52.69h39.82v9.79h-27.7v33.12Zm-.9-21.68h25.37v9.48h-25.37zM1128.51 203.16v-52.69h12.19v42.75h26.42v9.94zM1190.98 204.07c-4.21 0-8.25-.56-12.12-1.69s-6.98-2.6-9.33-4.4l4.14-9.18c2.26 1.61 4.93 2.92 8.02 3.95s6.21 1.54 9.37 1.54c2.41 0 4.35-.24 5.83-.71 1.48-.48 2.57-1.14 3.27-2a4.5 4.5 0 0 0 1.05-2.94c0-1.4-.55-2.52-1.66-3.35-1.1-.83-2.56-1.5-4.37-2.03s-3.8-1.03-5.98-1.51a72 72 0 0 1-6.55-1.77c-2.18-.7-4.18-1.61-5.98-2.71-1.81-1.1-3.27-2.56-4.4-4.37s-1.69-4.11-1.69-6.92c0-3.01.82-5.76 2.45-8.24s4.09-4.47 7.38-5.95 7.41-2.22 12.38-2.22c3.31 0 6.57.39 9.79 1.17 3.21.78 6.05 1.95 8.51 3.5l-3.76 9.26c-2.46-1.4-4.92-2.45-7.38-3.12q-3.69-1.02-7.23-1.02c-3.54 0-4.29.28-5.8.83-1.5.55-2.58 1.27-3.24 2.14-.65.88-.98 1.9-.98 3.05 0 1.35.55 2.45 1.66 3.27s2.56 1.49 4.37 2 3.8 1 5.98 1.5 4.37 1.08 6.55 1.73 4.18 1.53 5.98 2.63 3.27 2.56 4.4 4.37 1.69 4.09 1.69 6.85c0 2.96-.83 5.67-2.48 8.13-1.66 2.46-4.13 4.44-7.41 5.95-3.29 1.5-7.44 2.26-12.46 2.26M1247.28 204.07c-4.17 0-8.02-.68-11.55-2.03-3.54-1.36-6.6-3.26-9.18-5.72a26.1 26.1 0 0 1-6.02-8.66c-1.43-3.31-2.15-6.92-2.15-10.84s.71-7.53 2.15-10.84c1.43-3.31 3.45-6.2 6.06-8.66s5.67-4.37 9.18-5.72 7.33-2.03 11.44-2.03 7.99.68 11.48 2.03 6.52 3.26 9.11 5.72c2.58 2.46 4.6 5.33 6.06 8.62s2.18 6.91 2.18 10.88-.73 7.54-2.18 10.88c-1.46 3.34-3.48 6.22-6.06 8.66-2.58 2.43-5.62 4.33-9.11 5.68s-7.29 2.03-11.4 2.03Zm-.07-10.39q3.54 0 6.51-1.2c1.98-.8 3.73-1.96 5.23-3.46s2.67-3.29 3.5-5.34c.83-2.06 1.24-4.34 1.24-6.85s-.41-4.79-1.24-6.85-1.98-3.84-3.46-5.34-3.22-2.66-5.23-3.46-4.19-1.2-6.55-1.2-4.53.4-6.51 1.2-3.73 1.96-5.23 3.46-2.67 3.29-3.5 5.34c-.83 2.06-1.24 4.34-1.24 6.85s.41 4.73 1.24 6.81 1.98 3.88 3.46 5.38c1.48 1.51 3.22 2.66 5.23 3.46s4.19 1.2 6.55 1.2M1285.22 203.16v-52.69h10.09l31.09 37.94h-4.89v-37.94h12.04v52.69h-10.01l-31.16-37.94h4.89v37.94h-12.04ZM858.21 294.39c-4.17 0-8.02-.68-11.55-2.03-3.54-1.36-6.6-3.26-9.18-5.72a26.1 26.1 0 0 1-6.02-8.66c-1.43-3.31-2.15-6.92-2.15-10.84s.71-7.53 2.15-10.84c1.43-3.31 3.45-6.2 6.06-8.66s5.67-4.37 9.18-5.72 7.33-2.03 11.44-2.03 7.99.68 11.48 2.03 6.52 3.26 9.11 5.72c2.58 2.46 4.6 5.33 6.06 8.62s2.18 6.91 2.18 10.88-.73 7.54-2.18 10.88c-1.46 3.34-3.48 6.22-6.06 8.66-2.58 2.43-5.62 4.33-9.11 5.68s-7.29 2.03-11.4 2.03Zm-.07-10.39q3.54 0 6.51-1.2c1.98-.8 3.73-1.96 5.23-3.46s2.67-3.29 3.5-5.34c.83-2.06 1.24-4.34 1.24-6.85s-.41-4.79-1.24-6.85-1.98-3.84-3.46-5.34-3.22-2.66-5.23-3.46-4.19-1.2-6.55-1.2-4.53.4-6.51 1.2-3.73 1.96-5.23 3.46-2.67 3.29-3.5 5.34c-.83 2.06-1.24 4.34-1.24 6.85s.41 4.73 1.24 6.81 1.98 3.88 3.46 5.38c1.48 1.51 3.22 2.66 5.23 3.46s4.19 1.2 6.55 1.2M896.15 293.49V240.8h22.81c4.72 0 8.78.77 12.19 2.3s6.05 3.73 7.9 6.59c1.86 2.86 2.78 6.27 2.78 10.24s-.93 7.29-2.78 10.12c-1.86 2.84-4.49 5.01-7.9 6.51s-7.48 2.26-12.19 2.26h-16.03l5.42-5.34v20.02h-12.19Zm12.19-18.67-5.42-5.72h15.36c3.76 0 6.57-.82 8.43-2.45s2.79-3.88 2.79-6.74-.93-5.17-2.79-6.77-4.67-2.41-8.43-2.41h-15.36l5.42-5.8v29.88Zm21.3 18.67-13.17-19.12h13.02l13.32 19.12zM961.63 293.49v-42.75h-16.86v-9.94h45.92v9.94h-16.86v42.75h-12.19ZM1009.43 293.49h-12.19V240.8h12.19zm24.84-21.6h-25.74v-10.31h25.74zm-.9-31.09h12.19v52.69h-12.19zM1083.65 294.39c-4.17 0-8.02-.68-11.55-2.03-3.54-1.36-6.6-3.26-9.18-5.72a26.1 26.1 0 0 1-6.02-8.66c-1.43-3.31-2.15-6.92-2.15-10.84s.71-7.53 2.15-10.84c1.43-3.31 3.45-6.2 6.06-8.66s5.67-4.37 9.18-5.72 7.33-2.03 11.44-2.03 7.99.68 11.48 2.03 6.52 3.26 9.11 5.72c2.58 2.46 4.6 5.33 6.06 8.62s2.18 6.91 2.18 10.88-.73 7.54-2.18 10.88c-1.46 3.34-3.48 6.22-6.06 8.66-2.58 2.43-5.62 4.33-9.11 5.68s-7.29 2.03-11.4 2.03Zm-.08-10.39q3.54 0 6.51-1.2c1.98-.8 3.73-1.96 5.23-3.46s2.67-3.29 3.5-5.34c.83-2.06 1.24-4.34 1.24-6.85s-.41-4.79-1.24-6.85-1.98-3.84-3.46-5.34-3.22-2.66-5.23-3.46-4.19-1.2-6.55-1.2-4.53.4-6.51 1.2-3.73 1.96-5.23 3.46-2.67 3.29-3.5 5.34c-.83 2.06-1.24 4.34-1.24 6.85s.41 4.73 1.24 6.81 1.98 3.88 3.46 5.38c1.48 1.51 3.22 2.66 5.23 3.46s4.19 1.2 6.55 1.2M1121.58 293.49V240.8h22.81c4.72 0 8.78.77 12.19 2.3s6.05 3.73 7.9 6.59c1.86 2.86 2.78 6.27 2.78 10.24s-.93 7.3-2.78 10.16c-1.86 2.86-4.49 5.06-7.9 6.59s-7.48 2.3-12.19 2.3h-16.03l5.42-5.5v20.02h-12.19Zm12.2-18.67-5.42-5.8h15.36c3.76 0 6.57-.8 8.43-2.41s2.79-3.84 2.79-6.7-.93-5.17-2.79-6.77-4.67-2.41-8.43-2.41h-15.36l5.42-5.8v29.88ZM1188.05 283.7h28.68v9.79h-40.8V240.8h39.82v9.79h-27.7v33.12Zm-.91-21.67h25.37v9.48h-25.37zM1226.44 293.49V240.8h23.94c5.72 0 10.76 1.09 15.13 3.27s7.78 5.23 10.24 9.15c2.46 3.91 3.69 8.56 3.69 13.92s-1.23 9.95-3.69 13.89-5.87 7-10.24 9.18-9.41 3.27-15.13 3.27h-23.94Zm12.19-10.01h11.14c3.51 0 6.56-.67 9.15-2 2.58-1.33 4.59-3.22 6.02-5.68s2.14-5.34 2.14-8.66-.71-6.26-2.14-8.69-3.44-4.31-6.02-5.64-5.63-2-9.15-2h-11.14zM1288.61 293.49V240.8h12.19v52.69zM1338.51 294.39c-4.06 0-7.84-.67-11.33-2s-6.51-3.22-9.07-5.68-4.55-5.34-5.98-8.66c-1.43-3.31-2.15-6.95-2.15-10.91s.71-7.6 2.15-10.91c1.43-3.31 3.44-6.2 6.02-8.66s5.61-4.35 9.07-5.68 7.25-1.99 11.37-1.99c4.57 0 8.69.79 12.38 2.37q5.535 2.37 9.3 6.96l-7.83 7.23c-1.81-2.06-3.81-3.6-6.02-4.63s-4.62-1.54-7.23-1.54c-2.46 0-4.72.4-6.77 1.2-2.06.8-3.84 1.96-5.34 3.46s-2.67 3.29-3.5 5.34c-.83 2.06-1.24 4.34-1.24 6.85s.41 4.79 1.24 6.85 1.99 3.84 3.5 5.34c1.5 1.51 3.29 2.66 5.34 3.46 2.06.8 4.32 1.2 6.77 1.2 2.61 0 5.02-.51 7.23-1.54s4.21-2.6 6.02-4.7l7.83 7.23c-2.51 3.06-5.61 5.4-9.3 7-3.69 1.61-7.84 2.41-12.46 2.41M1385.48 294.39c-4.21 0-8.25-.56-12.12-1.69s-6.98-2.6-9.33-4.4l4.14-9.18c2.26 1.61 4.93 2.92 8.02 3.95s6.21 1.54 9.37 1.54c2.41 0 4.35-.24 5.83-.71 1.48-.48 2.57-1.14 3.27-2a4.5 4.5 0 0 0 1.05-2.94c0-1.4-.55-2.52-1.66-3.35-1.1-.83-2.56-1.5-4.37-2.03s-3.8-1.03-5.98-1.51a72 72 0 0 1-6.55-1.77c-2.18-.7-4.18-1.61-5.98-2.71-1.81-1.1-3.27-2.56-4.4-4.37s-1.69-4.11-1.69-6.92c0-3.01.82-5.76 2.45-8.24s4.09-4.47 7.38-5.95 7.41-2.22 12.38-2.22c3.31 0 6.57.39 9.79 1.17 3.21.78 6.05 1.95 8.51 3.5l-3.76 9.26c-2.46-1.4-4.92-2.45-7.38-3.12q-3.69-1.02-7.23-1.02c-3.54 0-4.29.28-5.8.83-1.5.55-2.58 1.27-3.24 2.14-.65.88-.98 1.9-.98 3.05 0 1.35.55 2.45 1.66 3.27s2.56 1.49 4.37 2 3.8 1 5.98 1.5 4.37 1.08 6.55 1.73 4.18 1.53 5.98 2.63 3.27 2.56 4.4 4.37 1.69 4.09 1.69 6.85c0 2.96-.83 5.67-2.48 8.13-1.66 2.46-4.13 4.44-7.41 5.95-3.29 1.5-7.44 2.26-12.46 2.26M849.18 384.72c-3.86 0-7.3-.63-10.31-1.88s-5.39-2.96-7.15-5.12-2.63-4.64-2.63-7.45c0-2.61.58-4.96 1.73-7.04s2.98-4.04 5.49-5.87 5.7-3.62 9.56-5.38c2.81-1.3 5.02-2.46 6.62-3.46 1.61-1 2.73-1.97 3.39-2.9.65-.93.98-1.87.98-2.82 0-1.3-.44-2.36-1.32-3.16s-2.17-1.21-3.88-1.21c-1.81 0-3.21.45-4.21 1.36-1 .9-1.51 2.06-1.51 3.46q0 1.125.45 2.22c.3.73.88 1.56 1.73 2.48s2.06 2.12 3.61 3.58l27.78 25.74-6.4 7.45-30.63-28.45c-1.76-1.61-3.16-3.11-4.22-4.52-1.05-1.4-1.82-2.79-2.3-4.14a12.6 12.6 0 0 1-.71-4.22c0-2.56.68-4.82 2.03-6.77 1.36-1.96 3.26-3.47 5.72-4.55s5.34-1.62 8.66-1.62c3.06 0 5.71.49 7.94 1.47s3.99 2.37 5.27 4.18 1.92 3.96 1.92 6.47c0 2.21-.55 4.23-1.66 6.06q-1.65 2.745-5.16 5.16-3.495 2.415-9.15 4.89c-2.56 1.16-4.58 2.27-6.06 3.35s-2.55 2.17-3.2 3.27-.98 2.33-.98 3.69q0 1.875 1.17 3.39c.78 1 1.87 1.78 3.27 2.33s3.06.83 4.97.83c3.06 0 5.87-.71 8.43-2.14s4.73-3.56 6.51-6.4c1.78-2.83 3.05-6.29 3.8-10.35l9.41 2.94c-1.05 5.12-2.94 9.56-5.65 13.32s-6.05 6.67-10.01 8.73-8.41 3.09-13.32 3.09ZM926.03 384.72c-4.21 0-8.25-.56-12.12-1.69s-6.98-2.6-9.33-4.4l4.14-9.18c2.26 1.61 4.93 2.92 8.02 3.95s6.21 1.54 9.37 1.54c2.41 0 4.35-.24 5.83-.71 1.48-.48 2.57-1.14 3.27-2a4.5 4.5 0 0 0 1.05-2.94c0-1.4-.55-2.52-1.66-3.35-1.1-.83-2.56-1.5-4.37-2.03s-3.8-1.03-5.98-1.51a72 72 0 0 1-6.55-1.77c-2.18-.7-4.18-1.61-5.98-2.71-1.81-1.1-3.27-2.56-4.4-4.37s-1.69-4.11-1.69-6.92c0-3.01.82-5.76 2.45-8.24s4.09-4.47 7.38-5.95 7.41-2.22 12.38-2.22c3.31 0 6.57.39 9.79 1.17 3.21.78 6.05 1.95 8.51 3.5l-3.76 9.26c-2.46-1.4-4.92-2.45-7.38-3.12q-3.69-1.02-7.23-1.02c-3.54 0-4.29.28-5.8.83-1.5.55-2.58 1.27-3.24 2.14-.65.88-.98 1.9-.98 3.05 0 1.35.55 2.45 1.66 3.27s2.56 1.49 4.37 2 3.8 1 5.98 1.5 4.37 1.08 6.55 1.73 4.18 1.53 5.98 2.63 3.27 2.56 4.4 4.37 1.69 4.09 1.69 6.85c0 2.96-.83 5.67-2.48 8.13-1.66 2.46-4.13 4.44-7.41 5.95-3.29 1.5-7.44 2.26-12.46 2.26M956.74 383.81v-52.69h22.81c4.72 0 8.78.77 12.19 2.3s6.05 3.73 7.9 6.59c1.86 2.86 2.78 6.27 2.78 10.24s-.93 7.3-2.78 10.16c-1.86 2.86-4.49 5.06-7.9 6.59s-7.48 2.3-12.19 2.3h-16.03l5.42-5.5v20.02h-12.19Zm12.19-18.66-5.42-5.8h15.36c3.76 0 6.57-.8 8.43-2.41s2.79-3.84 2.79-6.7-.93-5.17-2.79-6.77-4.67-2.41-8.43-2.41h-15.36l5.42-5.8v29.88ZM1011.09 383.81v-52.69h12.19v52.69zM1035.77 383.81v-52.69h10.09l31.09 37.94h-4.89v-37.94h12.04v52.69h-10.01l-31.16-37.94h4.89v37.94h-12.04ZM1108.71 374.03h28.68v9.79h-40.8v-52.69h39.82v9.79h-27.7v33.12Zm-.9-21.68h25.37v9.48h-25.37zM778.49 72.58h5.91v402.57h-5.91z" class="st0"/></svg>