<?xml version="1.0" encoding="UTF-8"?><svg id="a" xmlns="http://www.w3.org/2000/svg" viewBox="0 0 1647.1004 668.7174"><defs><style>.b{fill:#2b2b2b;stroke-width:0px;}</style></defs><path class="b" d="M275.0206,428.2567c-.4268-4.3407-.7938-8.6882-1.291-13.0209-1.9321-16.8359-3.8965-33.6682-5.8661-50.4997-1.8841-16.1007-3.8061-32.197-5.6809-48.2988-1.9598-16.8316-3.8829-33.6674-5.8225-50.5013-.2868-2.4891-.4325-5.0044-.8887-7.4621-2.0671-11.1378-.3237-22.0117,2.1063-32.8508.4494-2.0047.8759-4.0146,1.4373-6.5934,1.8791-.1264,3.7593-.2528,5.8422-.3928-1.1822,4.9234-2.45,9.1359-3.1781,13.4397-2.0383,12.0483-.9817,24.1113.3389,36.1415,1.8814,17.1396,3.8328,34.2716,5.8196,51.3994,2.1736,18.7381,4.4289,37.4667,6.6346,56.2011,1.637,13.9042,3.3242,27.8032,4.8509,41.7196,1.0205,9.302,2.4422,18.3914,8.1704,26.2572,1.2274,1.6855,1.5424,4.0355,2.4984,6.6929-21.572,2.7655-42.7654,4.2707-63.9064,6.4064,18.6086-5.1144,37.578-8.2865,57.2041-10.8249-.3794-1.6158-.685-2.9173-1.0542-4.4899-20.6821,2.4975-40.9782,4.9483-61.7269,7.4537-.1611-1.4688-.4007-2.7161-.419-3.9665-.1763-12.0873-.2866-24.1755-.4742-36.2625-.1486-9.5795-.3248-19.1592-.592-28.7359-.1702-6.0998-1.4752-11.3639-3.99-16.4959-1.1692,3.1394-2.3376,5.734-3.1124,8.4412-7.3365,25.6355-14.5837,51.2966-21.9153,76.9335-1.3302,4.6512-2.9268,9.2263-4.4322,13.9362-4.258-2.8631-5.0351-4.9265-3.6316-9.885,3.3697-11.9051,6.8371-23.7824,10.2294-35.6812,5.9774-20.9662,11.9939-41.9217,17.8427-62.9239,1.4118-5.0697,2.232-10.3041,2.789-15.6093-7.2721,18.9918-13.3247,38.3612-19.3434,57.7396-6.0254,19.4-11.9519,38.8307-18.1849,59.1039-2.986-4.1526-5.8355-7.6716-8.2075-11.4873-13.9313-22.4102-27.7322-44.9014-41.626-67.335-2.5386-4.0989-5.3026-8.0581-8.7144-11.8889,0,.9092-.1194,1.8368.0175,2.7249,3.3438,21.6964,6.7315,43.3861,10.0679,65.0836.7155,4.6532,1.0856,9.3647,1.9321,13.9913,1.0758,5.8796,3.5723,11.2191,7.1438,16.0148,1.5352,2.0614,2.4601,4.2771,2.667,6.7835-7.8065,2.9215-51.9426,7.7953-63.2968,6.912,2.8375-2.055,5.6721-2.7413,8.4483-3.1935,8.1402-1.3259,16.3291-2.3497,24.4805-3.6107,7.7053-1.1921,15.3873-2.5351,23.0184-3.8016.6967-4.2212-.071-5.1537-3.7137-4.5687-18.3267,2.9436-36.6495,5.912-54.9753,8.8614-.7113.1144-1.4394.1238-2.7862.2328.0952-1.5714-.176-3.0746.3154-4.2622,3.9432-9.5295,3.4834-19.279,1.8721-29.1607-4.0782-25.0105-8.0977-50.0306-12.0985-75.0536-3.6987-23.1335-7.3325-46.2774-11.0161-69.4133-1.2738-8.0006-2.5137-16.0086-3.9527-23.9801-1.034-5.7277-3.3683-10.9144-6.8883-15.6311-1.633-2.1881-2.6304-4.8506-4.2371-7.9096,5.6635-.9991,10.6905-1.9105,15.7264-2.7691,9.7306-1.6591,19.4801-3.2123,29.1937-4.9644,4.4189-.7971,8.1321.5106,11.5948,3.043,5.7729,4.2218,10.5176,9.4482,14.6799,15.2157,1.983,2.7478,3.8787,5.5653,5.6887,8.4303,14.959,23.6797,29.88,47.3834,44.8378,71.0638,1.8799,2.9763,3.9069,5.8597,6.3485,9.5073.7207-1.9138,1.2735-3.1524,1.6598-4.4409,10.6164-35.4172,21.2511-70.8291,31.7982-106.267,3.4752-11.6765,6.0564-13.6786,18.2561-14.7061,8.3632-.7044,16.6672-2.0855,25.0181-2.9717,5.243-.5564,10.5239-.7565,16.1189-1.1392-.2847,1.2539-.3774,2.1167-.6744,2.9023-4.3347,11.4693-4.7884,23.3369-3.3327,35.3137,1.1551,9.5037,2.9065,18.9345,4.0866,28.4358,1.3074,10.527,2.2088,21.1037,3.3903,31.6473,1.8546,16.5498,3.7508,33.0953,5.7133,49.6326,1.8756,15.8056,3.7941,31.6067,5.8287,47.3924.715,5.5478,1.7968,11.0502,2.8057,16.556.1233.6729.8354,1.2379,1.2747,1.8529l1.2823-.4137ZM121.509,441.018c-3.7035-29.0867-6.8138-58.2665-13.5026-86.885,2.0306,29.3491,6.5235,58.312,13.5026,86.885Z"/><path class="b" d="M803.8227,421.327c-13.2184,3.9953-44.9694,2.7749-52.4823-1.7901,4.5709,0,9.2252-.2707,13.8368.0573,9.1474.6508,18.261.5835,27.3707-.3832,4.384-.4653,5.1191-1.6931,3.5385-5.4134-7.0827.4038-14.1081,1.0431-21.1414,1.147-9.573.1414-19.1526-.0858-28.728-.2378-3.8568-.0613-6.1866-2.5118-7.7921-5.6833-1.7291-3.4155-3.284-6.9199-4.8867-10.3986-10.4178-22.6141-20.8158-45.2375-31.256-67.8413-1.3298-2.8792-2.8673-5.6625-5.1084-8.3331-.0788,1.2357-.2418,2.4725-.224,3.7067.3358,23.2862.6511,46.5727,1.0731,69.8574.1161,6.4029,1.5562,12.5063,4.5758,18.2657,1.4053,2.6805,2.1116,5.7276,3.3448,9.1997-22.0944.5964-43.5027,1.5383-64.8167-2.2159,9.5368-1.5497,19.1699-1.0668,28.7571-1.413,9.541-.3446,19.0834-.648,28.574-.9677.4462-4.8406.1888-5.1637-4.368-4.891-13.2362.7923-26.4677,1.6646-39.7041,2.4527-6.1482.3661-12.3037.6097-18.7837.9248,0-1.4462-.0918-2.5654.0138-3.6656,1.5624-16.2786,3.6922-32.526,4.5567-48.8407.653-12.3266-.2097-24.7411-.5646-37.1117-.5831-20.3262-1.2126-40.652-1.99-60.9715-.6589-17.2244-1.3742-34.4514-2.4767-51.6508-.266-4.1493-2.0261-8.2382-3.3423-12.2755-1.4479-4.4413-3.1765-8.7911-4.9476-13.6312,8.9317-.5143,17.1493-1.0877,25.3763-1.4319,7.6552-.3204,15.3204-.4093,22.9818-.5755,4.3284-.0939,7.6534,1.4652,9.7632,5.5074,7.9067,15.1482,15.8051,30.3024,23.904,45.3481,8.7311,16.22,17.681,32.3221,26.5456,48.4701.5414.9861,1.1717,1.9234,2.2718,3.7167.2702-1.8198.5289-2.7345.5234-3.6476-.111-18.4273-.26-36.8543-.3827-55.2816-.0353-5.3056.0225-10.6118-.0225-15.9172-.0796-9.3978-2.3334-18.0873-8.4481-25.4953-.1693-.2052-.1804-.5411-.2915-.9012,1.0818-2.166,3.1519-1.6875,4.9763-1.6914,13.1246-.0277,26.2491-.0153,39.3737-.0155,4.8664,0,9.7329,0,14.5993,0,1.2939,0,2.5878,0,4.162,0-.2325,1.1322-.2764,1.8709-.5344,2.5252-5.7993,14.7016-6.7461,30.0287-6.2893,45.6246.4786,16.3405,1.1051,32.665.845,49.045-.4332,27.2641.1472,54.5456.4034,81.8187.0817,8.6897.4262,17.379.7876,26.0628.1016,2.4395.6904,4.8587,1.1928,8.1984,1.1311-1.2396,1.9086-1.7089,2.0378-2.3161.241-1.1321.1229-2.3444.123-3.5233.0036-23.1524.0391-46.3049-.01-69.4572-.0332-15.6268-.1987-31.2533-.2842-46.88-.1082-19.7554-.0994-39.5122-.3417-59.2659-.0895-7.2976,2.1053-13.9061,4.8648-20.4647,1.1943-2.8384,3.8468-3.2503,6.7408-4.6421-.3107,1.2381-.3602,1.9424-.6526,2.5248-4.2731,8.5112-5.6584,17.696-5.6794,27.0259-.0492,21.9651.2119,43.9311.3939,65.8964.1576,19.0155.3679,38.0306.5765,57.0456.1811,16.5066.3451,33.0137.6125,49.519.114,7.0374,2.6847,13.5336,4.8792,20.0925.5549,1.6586,1.2403,3.2736,1.9731,5.1892ZM689.7816,399.0808c.3138-.0502.6277-.1004.9416-.1505,3.7613-12.1006-.0766-88.9354-5.0695-98.1799,0,1.2047-.026,2.0759.0038,2.9452.5185,15.1383,1.0477,30.2762,1.5665,45.4145.4937,14.4041.941,28.81,1.5052,43.2113.0887,2.2635.6888,4.5068,1.0525,6.7595Z"/><path class="b" d="M1056.7101,393.6559c2.1141-2.2213.8208-4.121.3629-5.7868-2.6156-9.514-5.3691-18.9908-8.1447-28.46-1.8222-6.2165-3.6603-12.4317-5.6741-18.5877-2.22-6.786-.8924-12.4512,4.7021-17.0428,2.5054-2.0564,4.9451-4.196,7.3598-6.359,3.4331-3.0753,5.5196-6.8086,5.7099-11.5419.4795-11.9187,1.0856-23.8323,1.5547-35.7513.649-16.4884,1.2158-32.9799,1.8291-49.4697.0364-.9792.1732-1.9546.2689-2.9931,4.306,1.2858,5.8143,3.1518,5.8336,7.7497.0221,5.3015-.1804,10.608-.4267,15.9057-.9856,21.1914-2.3021,42.3724-2.9129,63.574-.2521,8.7487-3.9502,15.1636-10.1432,20.6644-1.4324,1.2723-2.9291,2.4721-4.3907,3.7119-4.2993,3.6467-5.4615,8.2391-3.9569,13.5541,1.6045,5.6682,3.2949,11.3122,4.9621,16.9625,3.6263,12.2905,7.3478,24.5538,10.8568,36.8776,1.7228,6.0508,4.6885,11.4197,8.0856,16.6204,1.1221,1.7178,2.1541,3.4947,3.3167,5.3904-2.4853,1.8862-5.1161,2.4089-7.9615,2.2848-8.685-.3788-17.3732-.6893-26.056-1.1128-10.5947-.5167-21.1854-1.1167-31.7772-1.693-1.4378-.0782-2.8716-.2282-4.192-.3356-.1515-.606-.3527-.941-.2581-1.1001,4.4857-7.5466,4.1337-15.325,1.6244-23.439-4.569-14.7738-8.8491-29.6373-13.2364-44.4671-.6264-2.1175-1.0649-4.2968-1.7921-6.377-1.0892-3.1163-3.1725-5.4976-6.5262-5.9529-4.3584-.5917-8.7918-1.1169-13.168-.9628-5.1194.1803-6.7314,1.9599-7.3948,7.0203-.42,3.2054-.6156,6.4527-.7034,9.6869-.3598,13.2565-1.1891,26.533-.7604,39.7669.2987,9.2153,2.3602,18.3739,3.6445,27.5564.2023,1.4471.4594,2.8865.7839,4.9069-18.4581,1.5582-36.4214-.9576-54.436-2.2387-.0165-.3494-.033-.6989-.0495-1.0483,3.2899-.3657,6.5812-1.0479,9.8697-1.036,8.6905.0313,17.3791.4467,26.0702.5408,4.3861.0475,8.7764-.27,13.6041-.4378-.4081-2.048-.7088-3.5562-1.0192-5.1137-4.7026.441-9.0759,1.2107-13.4445,1.186-9.128-.0516-18.2521-.5987-27.3809-.7951-6.3198-.136-12.6451-.0229-18.9678-.0314-.5598-.0007-1.1195-.0772-1.8612-.132-.2359-2.6872-.0425-5.031,1.34-7.2936,3.219-5.2685,4.7808-11.0968,5.0536-17.2128.3874-8.682.6485-17.3723.7946-26.0619.3989-23.7255.6593-47.4533,1.071-71.1786.3092-17.8261.7878-35.6492,1.1509-53.4744.1951-9.5747.3755-19.1507.4307-28.7269.0373-6.4481-1.5328-12.5085-4.6605-18.2114-1.0106-1.8426-1.3216-4.0689-2.177-6.8491,3.5517-.3069,6.4272-.8365,9.2851-.7539,12.5175.3616,25.0294.9081,37.5441,1.3733,20.465.7608,40.9296,1.5415,61.3967,2.2467,6.3314.2181,12.6704.2078,19.0057.3205,9.5421.1697,17.0447,4.2498,22.4222,12.0634,5.2159,7.579,8.1973,15.7854,7.6099,25.2679-1.321,21.3208-2.2895,42.6634-3.4322,63.9955-.2204,4.1131-.3749,8.2467-.9296,12.3205-.6859,5.037-3.2657,9.0419-7.4059,12.1049-2.361,1.7467-4.5282,3.7662-6.7066,5.7465-3.4527,3.1389-4.6025,7.0804-3.7879,11.6279.1813,1.0126.3869,2.028.681,3.0122,5.4409,18.2031,10.8951,36.4022,16.3545,54.5999.2942.9803.6588,1.9395,1.1552,3.3894ZM1009.4569,280.1598c.7781-13.2278,1.3698-25.9335,1.8433-38.469-.8929-.2926-1.1641-.4585-1.4357-.4593-11.6332-.0333-23.2671-.1304-34.8993-.0344-4.7903.0395-6.28,1.6824-6.3085,6.5083-.0594,10.0142-.0277,20.0289.0054,30.0433.0027.8196.2993,1.6383.4503,2.4112h40.3445ZM956.677,329.083c-.3559,1.5584-.7899,2.9582-.9852,4.3905-2.6772,19.6365-2.8495,39.322-.8267,59.0157.3042,2.9625.3255,6.1768,2.5526,9.5183.2537-2.3554.5383-3.9349.5767-5.5203.424-17.5067.8003-35.0145,1.218-52.5213.0525-2.2038.138-4.4213.4352-6.6016.5492-4.0306,2.3904-5.6789,6.3751-5.9224,1.1739-.0717,2.3553-.0221,3.5333-.0228,4.7121-.0029,9.4244.01,14.1363-.0143,1.3108-.0068,2.8539.1603,2.3773-2.3218h-29.3927ZM1010.8873,237.8931c.0659-.4944.1319-.9888.1978-1.4833-1.4417-.4829-2.8619-1.3-4.3286-1.3943-9.391-.6035-18.7913-1.0637-28.1902-1.5383-4.2594-.2151-8.5213-.4108-12.7844-.5141-4.5873-.1111-6.7911,1.837-7.3838,6.3834-.0947.7259-.0796,1.4685-.0834,2.2036-.0537,10.302-.1054,20.604-.1457,30.9061-.004,1.0283-.1563,2.1326.1572,3.0686.5374,1.6037,1.1139,3.4658,3.9193,2.7569.0659-1.4144.1868-2.838.1896-4.2618.0177-8.9756.0011-17.9513.0113-26.927.0103-9.0128,1.7324-10.5352,10.5688-10.2171,12.6199.4543,25.2477.6888,37.8721,1.0171Z"/><path class="b" d="M1182.5521,394.1831c1.6462-22.6832,3.1036-42.8206,4.5704-62.9573,1.2637-17.345,2.5296-34.6898,3.8099-52.0336,1.1934-16.167,2.3852-32.3341,3.6247-48.4976.3585-4.6744,1.9318-8.9701,4.9779-12.5499,10.9776-12.9007,24.6373-19.5135,41.8169-16.9194,21.0174,3.1736,42.1195,5.0605,63.3756,5.4741,13.2912.2587,23.9873,6.3802,33.0627,15.7054,1.1297,1.1608,2.1375,2.4396,3.2578,3.6101,2.6898,2.8104,4.082,6.1978,3.9238,10.0263-.2493,6.0317-.6036,12.0697-1.2175,18.0739-2.2489,21.9913-4.5884,43.9736-6.959,65.9522-3.1924,29.5985-6.4454,59.1904-9.6712,88.7853-.4993,4.5807-2.2528,8.5436-5.865,11.513-4.6649,3.8346-9.3549,7.6399-14.0915,11.3853-4.537,3.5876-9.7717,4.5032-15.4286,3.9696-18.4886-1.744-36.9874-3.3774-55.4758-5.1223-8.5094-.8031-17.0475-1.4862-25.4837-2.7955-3.3559-.5209-6.7738-2.1368-9.6344-4.0466-6.0634-4.0481-10.847-9.4868-14.8126-15.623-3.2705-5.0604-4.3908-10.5525-3.7803-13.95ZM1242.1163,383.8127c13.5721,1.1133,26.555,2.1783,39.9085,3.2738,4.0636-42.1738,8.0835-83.8948,12.1254-125.8433-2.1091-.5494-3.6208-1.1253-5.1799-1.316-5.118-.6258-10.25-1.1443-15.3825-1.6422-4.9864-.4837-9.9758-.9497-14.9719-1.315-4.6844-.3425-6.0034.8277-6.6194,5.5664-.038.2923-.0587.5868-.0852.8805-1.1151,12.3262-2.2996,24.6465-3.3294,36.9798-1.7899,21.4365-3.505,42.8794-5.2056,64.3233-.4877,6.1478-.8171,12.3082-1.2601,19.0927ZM1235.4437,381.9889c.4729-3.0292,1.0379-5.5975,1.2531-8.1947,1.5565-18.7806,3.0419-37.567,4.5505-56.3515,1.5203-18.9314,3.0126-37.8652,4.5766-56.793.5948-7.1985,2.4576-8.7173,9.5373-8.1479.1465.0118.2909.0484.4374.0616,10.7049.959,21.4085,1.9325,32.1164,2.8567,1.5065.13,3.0338.018,4.5141.018.1952-2.3314-1.0878-2.5141-2.2186-2.6715-5.3865-.7499-10.7687-1.5648-16.1768-2.1207-8.3458-.8578-16.7018-1.6728-25.0724-2.2126-4.7419-.3058-6.1753.9259-6.8276,5.5469-.7399,5.2408-1.1651,10.5307-1.5938,15.8101-1.3224,16.2883-2.5662,32.583-3.8688,48.873-1.5488,19.3695-3.1239,38.737-4.6959,58.1046-.1835,2.2602.3839,4.0617,3.4685,5.221Z"/><path class="b" d="M526.7104,374.3309c.1994,3.7465.516,10.2219.8974,16.6933.3083,5.2321-.9092,9.9235-4.504,13.8937-3.8562,4.259-7.5913,8.629-11.4952,12.8432-3.447,3.721-7.756,5.6468-12.8754,6.0335-22.4821,1.6977-44.9556,3.5085-67.4346,5.2486-4.701.3639-9.4146.5629-14.1172.9079-4.731.3471-9.0382-.9223-13.1055-3.2207-5.6886-3.2146-10.8505-7.1168-15.2542-11.9549-3.4611-3.8025-5.5158-8.1887-6.0296-13.4371-2.1535-22.0005-4.5569-43.9764-6.7233-65.9756-1.9787-20.0923-3.7497-40.205-5.652-60.3049-1.0135-10.7097-1.8125-21.4519-3.2598-32.1046-1.3025-9.587,1.1897-17.6073,7.3692-24.9648,8.8856-10.5795,19.9834-16.0323,33.7818-16.624,14.2717-.612,28.5356-1.5274,42.779-2.621,6.8932-.5293,13.7245-1.8281,20.5965-2.676,11.4625-1.4143,22.0012,1.2958,31.5149,7.6966,11.98,8.0601,12.6683,9.0403,13.9266,22.7001.9325,10.1223,1.3989,20.2879,2.0603,30.4349,1.3995,21.4684,2.8033,42.9366,4.1814,64.4064,1.0761,16.7651,2.116,33.5325,3.3438,53.0255ZM479.5256,377.7685c-3.1501-42.3859-6.2459-84.0401-9.3732-126.1175-2.2421-.175-4.1138-.5042-5.9689-.4282-3.9715.1626-7.9361.5143-11.9005.8256-6.1666.4843-12.3423.8892-18.4918,1.5405-4.0948.4336-5.0078,1.631-4.9741,5.7801.0179,2.2077.175,4.4183.3614,6.6199,1.3423,15.853,2.6699,31.7075,4.0767,47.5548,1.5632,17.609,3.1897,35.2123,4.8238,52.8149.4462,4.8067,1.0187,9.6017,1.5894,14.9261,13.3274-1.1757,26.3143-2.3214,39.8571-3.5162ZM467.3328,246.5522c.1155-.4157.231-.8314.3465-1.2471-.7606-.4419-1.493-1.1941-2.2872-1.2661-2.1926-.1986-4.4215-.2658-6.6174-.1136-10.4333.7233-20.8609,1.531-31.2893,2.3245-1.6148.1229-3.2436.2198-4.8305.5174-3.7267.6987-5.0355,2.2111-5.1479,6.0139-.052,1.7588.135,3.5303.2927,5.2889,1.6053,17.9002,3.2311,35.7986,4.8428,53.6982,1.5852,17.6065,3.1552,35.2144,4.7449,52.8205.3443,3.8131.7228,7.6236,1.1264,11.4309.228,2.1512.8477,4.0271,4.1629,4.2956,0-1.8724.1219-3.5675-.0191-5.2404-1.224-14.532-2.4629-29.0629-3.7606-43.5885-1.6123-18.0476-3.295-36.0889-4.9258-54.1348-.5833-6.4547-1.1981-12.9088-1.625-19.3746-.3756-5.6892.9601-7.3941,6.7741-8.1322,5.6918-.7226,11.4399-.9991,17.1623-1.4847,7.0173-.5954,14.0334-1.2046,21.05-1.8079Z"/><path class="b" d="M1457.8595,225.9057c6.0931.5875,11.3753.8869,16.5931,1.6348,29.0255,4.1599,58.0354,8.4286,87.0506,12.66,10.7889,1.5734,21.5771,3.1507,32.3669,4.7183,9.1292,1.3262,10.683,3.226,9.286,12.1648-2.0019,12.8103-4.1773,25.5935-6.2954,38.3855-.0697.4205-.322.8108-.563,1.3937-4.4647.7686-8.9864.6136-13.4923-.0563-18.3616-2.7302-36.7068-5.5735-55.0843-8.1912-3.2871-.4682-6.6984-.0665-10.5588-.0665-1.7352,11.9619-3.4149,23.5416-5.137,35.4127,16.6397,4.4953,32.8693,7.0711,49.64-.2313-1.8557,20.8152-4.6141,40.7297-9.0858,60.9284-15.8793-2.3145-31.5425-4.5975-47.8215-6.9703-1.8125,12.5436-3.5905,24.8492-5.4182,37.4989,2.0536.3265,3.744.6066,5.4378.8627,11.218,1.6962,22.4374,3.3831,33.6551,5.0812,11.7407,1.7772,23.4715,2.0988,35.192-.1803.8475-.1648,1.7184-.2096,3.2692-.3909-2.637,17.1148-5.2225,33.8951-7.8913,51.2161-46.7671-6.6648-93.107-13.2687-139.8171-19.9253.3843-1.0026.5549-1.8088.9654-2.4649,7.1103-11.3642,10.5813-23.9406,12.1081-37.0942,1.291-11.1222,2.0089-22.313,3.4003-33.4208,1.7027-13.5927,3.9628-27.1147,5.7628-40.6963,2.0908-15.7743,3.9165-31.5837,5.9102-47.3712,1.3475-10.6703,2.5595-21.3654,4.2593-31.9811,1.2841-8.0196,1.2708-15.8149-1.2664-23.5787-.9079-2.7784-1.5058-5.6582-2.466-9.3377ZM1580.6256,289.4587c-24.3587-3.6488-48.0087-7.1914-72.0091-10.7866-1.0899,4.4112-2.168,8.3714-3.0372,12.377-1.7868,8.2334-2.8632,16.5463-2.2113,24.9988.1586,2.0561.3306,4.144,2.0718,6.6633,2.2245-13.7883,4.3005-26.656,6.4176-39.7788,3.628.4704,6.8213.8627,10.0085,1.3013,17.9442,2.4693,35.8864,4.954,53.8317,7.4154,1.0151.1392,2.1068.3341,3.0583.0923.5694-.1447.9358-1.0889,1.8698-2.2826ZM1490.2428,412.8039c3.1018.2557,2.9855-1.663,3.2212-3.1344.9772-6.1001,1.869-12.214,2.8337-18.3162.9361-5.9221,1.9233-11.8361,2.9233-17.9703,3.4456.4067,6.4916.7534,9.5341,1.1277,8.6154,1.0599,17.227,2.153,25.8476,3.1679,1.0088.1187,2.0655-.1704,3.394-.2989-.4291-.9306-.5498-1.584-.7735-1.6215-14.0129-2.3452-28.034-4.6402-42.5013-7.0131-1.3006,14.9894-6.0261,29.0268-4.4791,44.0588Z"/><path class="b" d="M1164.4771,551.5077h32.7078v10.0643c-1.4134.6204-2.9655,1.4621-4.6181,1.9896-2.4984.7978-3.6617,2.3901-4.3871,4.9268-5.7502,20.1027-11.6564,40.1607-17.5159,60.2321-.4125,1.4129-.8339,2.8233-1.3276,4.4936h-16.9268c-4.9103-17.7334-9.8101-35.4284-14.9549-54.0088-5.5453,18.5794-10.8263,36.2729-16.1372,54.0669h-16.506c-1.6273-5.7664-3.2913-11.5364-4.8829-17.3263-4.2543-15.4773-8.5573-30.9421-12.6493-46.4624-.868-3.2927-2.2446-5.5719-5.6922-6.405-1.2602-.3045-2.41-1.0658-3.7535-1.6848v-9.7785h34.0324c.9177,2.6307,1.0003,4.0428.4238,9.8519-2.4829,1.1278-5.1298,2.3301-8.0878,3.6736,3.1392,13.2166,6.2537,26.3288,9.3682,39.4411.3223.0319.6444.0637.9667.0956,5.4318-17.3711,10.2948-34.9217,15.7844-52.6436,5.2659-.3548,10.4908-.707,15.9026-1.0717,5.1106,18.1744,10.1021,35.9252,15.0935,53.6761.3377-.0244.6754-.0489,1.0131-.0733,3.478-13.1124,6.9561-26.2248,10.4685-39.4664-3.0303-1.3105-5.5749-2.411-8.3216-3.5988v-9.9921Z"/><path class="b" d="M704.8493,551.0984v10.3724c-1.8506.816-3.6905,1.7252-5.6028,2.4411-1.7032.6377-2.6247,1.5586-2.6169,3.5372.0672,17.0974.0587,34.1951.0913,51.2926.0008.4193.2149.8381.4083,1.5453,2.5939.9561,5.317,1.9599,8.1224,2.9941v9.9853h-34.5006v-10.1335c2.8245-.9519,5.7092-1.9241,8.5635-2.8861v-40.7627c-.1639-.045-.3278-.09-.4917-.1351-5.0602,10.5299-10.1203,21.0598-15.2984,31.8351-4.2703.2855-8.4767.5667-12.9063.8628-4.9578-10.2392-9.8174-20.2756-14.6579-30.2727-.9099,3.0302-1.2232,25.525-.4816,38.3295,2.6581.9613,5.5102,1.9928,8.6378,3.1239v10.0592h-33.061v-9.9965c2.7602-1.0237,5.481-2.0329,8.3492-3.0966v-55.1175c-2.805-1.2153-5.6042-2.4281-8.3638-3.6238v-9.9029h30.3702c5.443,12.0273,11.129,24.5914,17.1602,37.9184,1.1985-2.3611,2.1214-4.0917,2.9668-5.8594,4.511-9.4317,9.0774-18.8384,13.454-28.3323,1.2557-2.7239,2.7613-4.0031,5.9746-3.8814,5.4347.2059,10.8911-.1832,16.339-.2889,2.3405-.0454,4.6826-.0076,7.5436-.0076Z"/><path class="b" d="M1259.2044,561.4935v-9.7187c11.027-.5671,21.9372-.7647,33.103-.6894v10.3405c-2.6073,1.1198-5.2894,2.2717-8.3649,3.5925v68.1523h-20.1207c-9.7874-16.506-19.7307-33.275-29.871-50.3763-1.1649,3.5805-1.4205,32.0708-.4587,37.5215,2.6033.916,5.3535,1.8838,8.3339,2.9326v9.551c-3.2228.8509-28.1867,1.0559-33.6505.2479v-9.8036c2.6694-.9522,5.4008-1.9266,8.3082-2.9636v-55.1929c-2.6157-1.1545-5.4095-2.3876-8.3745-3.6964v-9.6447c3.9366-.1841,7.8531-.4179,11.7732-.5363,3.8284-.1156,7.6772.0917,11.4855-.2231,3.5053-.2899,5.5402.9116,7.324,4.0494,8.3711,14.7257,17.0142,29.2968,25.5723,43.916.7076,1.2087,1.5045,2.3651,2.7843,4.3656.2066-2.0817.4064-3.1746.4091-4.268.0242-10.0219-.0897-20.0454.0788-30.0645.0493-2.9341-.6531-4.7725-3.6565-5.5433-1.544-.3963-2.9774-1.2241-4.6755-1.9485Z"/><path class="b" d="M814.0116,623.1637c2.8943-1.0094,5.5179-1.9242,8.3295-2.9047v-55.1506c-2.6602-1.1552-5.4663-2.3737-8.3944-3.6453v-9.8396h28.391c9.7216,16.6045,19.7913,33.8034,29.861,51.0024.2412-.0866.4826-.1732.7238-.2598v-37.3604c-2.3399-1.0528-4.9799-2.2407-7.846-3.5304v-9.9483h32.8762c.053,1.4535.1381,3.1518.1706,4.8512.0309,1.611.0067,3.223.0067,5.0381-1.6093.6986-3.0645,1.3493-4.5343,1.9649-3.8635,1.6182-4.0175.6862-4.017,6.071.0012,11.3481.0002,22.6963.0001,34.0444,0,8.2532.0001,16.5064,0,24.7596,0,1.5935-.0001,3.1871-.0001,5.2054-6.4766,0-12.4901.1356-18.4863-.128-1.049-.0461-2.3005-1.6034-2.9899-2.7456-5.4045-8.9531-10.6934-17.9759-16.0205-26.9757-4.1185-6.9578-8.2407-13.9135-12.4827-21.0753-1.0986,3.1083-1.4181,30.6181-.5121,37.7318,2.6064.8973,5.362,1.846,8.3445,2.8728v9.6297c-2.9696.9064-27.7047,1.1279-33.4202.2384v-9.8461Z"/><path class="b" d="M579.9235,596.8874c3.4665,6.8202,6.8858,13.0173,9.7721,19.4535,1.4146,3.1542,3.3461,4.9845,6.6264,5.6634.9938.2056,1.9226.7257,3.1344,1.2011v9.7935c-3.49,1.0442-7.1655.3432-10.7753.4715-3.5231.1253-7.0542.0272-10.7566.0272-2.5232-5.5261-4.9584-10.8733-7.4061-16.2147-1.4117-3.0809-2.75-6.2001-4.286-9.2184-3.3603-6.6025-4.9883-7.3729-12.9696-6.3217v18.3911c2.4493.9712,5.1449,2.0401,8.0263,3.1827v9.8838h-35.1757v-9.9138c1.8846-.6925,3.7518-1.5419,5.7074-2.0523,2.031-.53,2.8999-1.549,2.8921-3.7113-.0597-16.6673-.0536-33.3349-.0099-50.0023.005-1.9193-.7462-2.9563-2.5364-3.5746-2.0685-.7144-4.0552-1.6653-6.0918-2.5197v-9.7088c3.8495-.1799,7.4868-.4549,11.127-.4995,9.1429-.112,18.2876-.2002,27.4305-.1389,5.3507.0358,10.5644,1.036,15.4401,3.355,6.9236,3.2931,10.9752,8.6812,11.8639,16.3836,1.2325,10.6831-1.5221,19.5797-11.2042,25.4454-.3686.2233-.6872.5291-.8085.6241ZM552.9777,588.3561c5.3825.4474,10.0653.8044,14.5131-1.1956,4.7017-2.1143,7.0441-6.4894,6.5295-11.8644-.4922-5.1409-3.686-9.2536-8.5289-9.8624-3.9802-.5004-8.0733-.102-12.5137-.102v23.0244Z"/><path class="b" d="M989.4366,593.2516c.0388-8.4372,1.4297-16.9867,5.259-24.4948,5.5721-10.9253,15.8784-17.4472,27.9243-18.8409,5.6273-.6511,11.1571-.354,16.641.984,18.393,4.4887,27.6348,25.4883,26.4969,43.2799-1.3846,21.648-17.4115,40.1172-39.7745,41.0294-9.8294.4009-19.9342-3.2809-26.5761-10.5378-7.4-8.0852-9.901-19.5899-9.9697-30.5501-.0018-.2897-.0021-.5797-.0007-.8697ZM1046.231,591.7701c.2651-14.6453-14.9208-40.1339-30.9808-22.3799-2.803,3.0986-4.1685,7.2332-5.0024,11.3275-1.7678,8.6797-1.4521,17.7764.9133,26.3126.8385,3.0258,1.9628,6.0404,3.9304,8.4878,15.1235,18.8099,30.9046-10.8005,31.1394-23.7479Z"/><path class="b" d="M750.5527,551.2572h18.7431c.6433,1.6379,1.3696,3.3669,2.007,5.1281,7.1127,19.6549,14.3213,39.2764,21.2173,59.0072,1.304,3.731,3.0737,6.1268,6.9984,6.7922.8537.1447,1.6553.5974,2.7515,1.0101v10.0678h-36.6642v-10.0379c2.5837-.8866,5.1881-1.7802,8.1981-2.8131-.8548-2.8178-1.6502-5.4398-2.4937-8.2207h-25.8848c-.884,2.7259-1.7255,5.3205-2.6232,8.0886,3.1677,1.0898,5.9111,2.0337,8.763,3.0149v9.9463h-35.1937v-10.0466c1.6688-.5442,3.2871-1.2441,4.9778-1.5834,2.6244-.5268,3.8485-2.1336,4.7368-4.5555,7.4015-20.1766,14.9066-40.3151,22.3875-60.4626.6129-1.6507,1.2774-3.2823,2.079-5.3352ZM759.0606,573.3458c-.264.0139-.5281.0278-.792.0416-2.7812,8.3971-5.5624,16.7943-8.3677,25.264,5.4651,1.031,13.9028.8372,17.0972-.3599-2.6432-8.3072-5.2903-16.6265-7.9374-24.9457Z"/><path class="b" d="M421.3779,554.8151v21.1782h-10.9865c-.7174-2.2636-1.5518-4.7308-2.2723-7.2309-.4315-1.4973-1.01-2.7036-2.7283-3.0635-5.2108-1.0914-10.4036-1.932-15.7437-.7615-4.9541,1.0859-8.7774,3.8031-10.7738,8.3364-1.6388,3.7213-2.8609,7.7622-3.4462,11.7811-1.0229,7.023-.9538,14.1184,1.1316,21.0258,2.9719,9.8435,9.6531,14.5691,19.8629,13.782,3.6118-.2784,7.1752-1.1853,10.8901-1.8276v-14.5291c-2.6914-.9554-5.545-1.9685-8.4669-3.0059v-9.5393c11.0643-.2579,22.0171-.5132,33.3007-.7762v10.343c-2.2552.8848-4.807,1.8858-7.6432,2.9985,0,6.7867-.124,13.5559.0627,20.3166.072,2.6085-.7722,4.1336-3.1468,5.0999-12.9549,5.271-26.25,7.8771-40.1436,4.7098-12.3124-2.8068-20.2422-10.6585-23.7371-22.6048-3.4226-11.6991-3.5461-23.6931.1756-35.3158,4.857-15.1683,15.3398-24.0623,31.4555-25.792,11.2388-1.2062,21.9209,1.0477,32.2094,4.8753Z"/><path class="b" d="M475.919,565.2794v18.8074h23.0297c.5834,4.4142.3836,8.4468.116,13.0345h-23.1016v22.2256h20.1127c.9726-3.1026,1.9277-6.1496,2.8992-9.2489h10.6107v23.1575h-60.7646v-10.0352c2.6723-.9789,5.398-1.9775,8.3183-3.0473v-55.1225c-2.6425-1.1495-5.4454-2.3687-8.3871-3.6483v-9.6629c19.736-1.0942,39.403-.5607,59.3726-.7089v22.5676h-10.7195c-.9903-2.6889-1.9974-5.4237-3.0635-8.3185h-18.423Z"/><path class="b" d="M962.2494,565.2851h-10.4297v55.0247c3.0311.9617,5.9327,1.8822,8.9479,2.8388v10.0614h-36.9432v-10.0488c3.1098-1.0068,6.1506-1.9913,9.2042-2.9798v-54.8258h-10.7658c-.9752,3.4128-1.9356,6.7737-2.9561,10.3448h-10.1398c-.8705-2.9587-1.0814-18.656-.2503-24.293h67.1226v24.3766h-10.7121c-1.0082-3.4394-2.0252-6.9086-3.0776-10.499Z"/><path class="b" d="M819.7653,33.5887v6.3019c-1.974.9153-3.8143,1.7687-5.5975,2.5955v12.2374h19.3335v-12.2239c-1.6155-.7607-3.3199-1.5632-5.3042-2.4976v-6.5233h23.4151v6.5222c-1.7348.8188-3.5718,1.6858-5.5274,2.6089v35.9882c1.8698.8063,3.7166,1.6026,5.6884,2.453v6.4164h-23.6262v-6.5257c1.6382-.6568,3.3696-1.351,5.3636-2.1505v-14.3135h-19.3651v14.3247c1.8135.6956,3.5673,1.3682,5.5395,2.1246v6.6552c-7.7037.3686-15.4226.0564-23.5285.1803v-6.8308c1.6602-.6813,3.3919-1.392,5.2985-2.1744v-36.2434c-1.7771-.8257-3.4965-1.6246-5.4326-2.5242v-6.4007h23.7429Z"/><path class="b" d="M520.5904,218.5775c2.2092.5873,4.1541,1.1043,6.5175,1.7326.2329,1.6288.5908,3.3335.7056,5.0543,1.6081,24.1119,3.1774,48.2265,4.7678,72.3396,1.3479,20.4363,2.7152,40.8714,4.0656,61.3076.8259,12.4978,1.6776,24.9941,2.4285,37.4964.2327,3.8755-.332,7.7019-2.2859,11.1258-6.9634,12.203-16.5893,21.0186-30.908,23.5085-3.4663.6027-7.0366.7956-10.5628.8333-17.563.1879-35.0004,2.0337-52.4507,3.7549-4.838.4771-9.6915.8009-14.5394,1.175-2.7434.2117-5.0574-.6405-7.5567-3.11,4.3205-.4252,7.9055-.847,11.5017-1.1205,21.1582-1.6092,42.3192-3.1807,63.4786-4.774,2.3503-.1769,4.6967-.4078,7.0443-.6204,5.6697-.5135,10.5544-2.7999,14.4161-6.9344,3.6184-3.874,7.0821-7.9066,10.41-12.0339,3.4414-4.2681,5.201-9.1919,4.8618-14.772-.7153-11.7643-1.3566-23.5332-2.1062-35.2952-1.0309-16.1751-2.1381-32.3454-3.2048-48.5182-1.3674-20.7316-2.6698-41.4677-4.1161-62.1938-.6558-9.3974-1.5904-18.7753-2.4667-28.9554Z"/><path class="b" d="M1215.3978,432.3385c2.6131.242,5.2255.4923,7.8394.7248,14.5256,1.2923,29.0547,2.544,43.576,3.8824,9.8263.9056,19.6372,1.9751,29.463,2.8862,5.6345.5226,10.8849-.771,15.4219-4.1994,3.9946-3.0186,7.7915-6.2976,11.6967-9.4355,6.0954-4.8977,8.1788-11.6769,8.9404-19.0586,1.5573-15.0924,3.0539-30.1912,4.6235-45.2824,1.5847-15.2366,3.2366-30.4662,4.8437-45.7004,1.6379-15.5275,3.319-31.0508,4.8625-46.5878,1.0472-10.5392,1.8895-21.0987,2.8772-32.2573,2.0313.8789,3.9348,1.7024,6.241,2.7002-.5079,5.6384-.9475,11.1884-1.5175,16.7251-1.9164,18.6078-3.8627,37.2126-5.8291,55.8151-1.6101,15.233-3.29,30.4586-4.8938,45.6922-1.6502,15.6746-3.2473,31.3549-4.8635,47.0331-.3474,3.3698-.6069,6.7502-1.0321,10.11-.5867,4.6353-2.2622,8.8472-5.3937,12.3745-11.2885,12.7155-25.0225,18.3213-42.2419,15.7557-14.4058-2.1465-28.9602-3.3232-43.4648-4.7686-8.06-.8032-16.1514-1.2973-24.2316-1.8896-2.9354-.2151-5.2663-1.46-6.9171-4.5198Z"/><path class="b" d="M892.1713,55.005h15.2409v8.6785h-15.2172c-.5064,5-.1297,9.4902-.2795,14.5871,4.5615.3167,8.8789.186,13.3949.0889.6974-2.0768,1.3367-3.9807,2.0267-6.0358h7.182c.2447,4.9745.1121,9.8897.0887,15.1164h-40.1851c-.1138-1.1771-.2879-2.2945-.3102-3.4149-.0199-1.0053.1273-2.014.2119-3.1729,1.7101-.6642,3.3262-1.2919,5.2024-2.0206v-36.3022c-1.6444-.8095-3.334-1.6414-5.2222-2.5709v-6.391h39.1176v14.395h-6.9578c-.748-1.6829-1.5636-3.5175-2.4327-5.4728h-11.6485c-.7949,4.0234-.4565,7.9084-.2121,12.5151Z"/><path class="b" d="M766.9299,87.5369h-24.4147v-6.7128c1.8591-.6615,3.6346-1.2932,5.6411-2.0071v-36.2578h-6.5984c-.6755,2.1421-1.3707,4.3466-2.152,6.8241h-7.0832v-15.812h44.1043c.9298,2.8984,1.12,9.681.3513,15.7712h-6.9212c-.7117-2.2188-1.4245-4.4407-2.1885-6.8225h-6.8095c-.1075,12.0539-.0353,24.0463-.046,36.1808,2.1793.7797,4.0759,1.4583,6.1168,2.1886v6.6475Z"/><path class="b" d="M1585.2857,430.3666c1.4919,5.1631-.0331,10.2129-.7654,15.2623-1.31,9.0335-2.8414,18.0348-4.2419,27.0554-.9208,5.9299-3.0354,7.7478-8.9579,6.9122-13.5594-1.9131-27.0842-4.0712-40.6399-6.0125-19.9714-2.8602-39.9564-5.6263-59.9378-8.4157-7.1462-.9975-14.3115-1.8665-21.4418-2.9649-2.2245-.3427-4.3628-1.2455-6.453-2.171,4.1461-1.4072,34.384,1.7411,64.5791,6.2683,21.39,3.207,42.8014,6.2696,64.3561,9.419,2.5077-5.417,3.2252-10.9563,4.1249-16.445,1.1658-7.1126,2.2136-14.2466,3.5199-21.3331.4212-2.2857,1.4599-4.4651,2.2881-6.666.7063-1.8762,1.9999-1.8476,3.5695-.909Z"/><path class="b" d="M1563.3734,391.712c-.9365-.2937-1.5075-.4055-2.0195-.6439-4.2801-1.993-4.6375-2.5439-3.8831-7.068,2.1321-12.785,4.3198-25.5607,6.4973-38.3381.7658-4.4936,1.5655-8.9814,2.4627-14.118,1.8914.9907,3.482,1.8238,5.5362,2.8998-2.8563,19.0342-5.7085,38.0413-8.5936,57.2682Z"/><path class="b" d="M1609.0427,253.998c3.3212,2.3618,4.8657,4.7793,4.1679,8.7496-2.3181,13.1879-4.3403,26.4277-6.5134,39.6414-.2123,1.2908-.6848,2.5389-1.0926,4.0092-2.7217-.1813-4.5489-1.9204-6.4795-2.631,2.0872-8.5395,4.3418-16.5972,5.9754-24.779,1.611-8.0687,2.5932-16.263,3.9422-24.9902Z"/><path class="b" d="M1080.2981,422.7497c.749,1.1269,1.8508,2.7848,3.3609,5.0568-2.294.4416-3.9486,1.0691-5.5859,1.0262-12.6265-.331-25.2586-.6183-37.8695-1.2873-6.1451-.326-12.2526-1.4097-18.3678-2.2198-1.4014-.1857-2.765-.6573-4.0686-1.5453,4.2688,0,8.5386-.0624,12.806.0121,11.4571.2001,22.9139.6518,34.3693.6042,4.9371-.0205,9.8703-1.0264,15.3555-1.6469Z"/><path class="b" d="M426.9646,58.1846c1.7473-.1076,3.4539,1.3155,3.6613,3.0529.233,1.9514-1.2789,3.7705-3.2349,3.8919-1.786.1109-3.4525-1.2626-3.6689-3.0237-.2331-1.8975,1.3436-3.8041,3.2425-3.921Z"/><path class="b" d="M1246.6264,61.6946c-.0129,1.857-1.4147,3.3336-3.2612,3.4351-1.9895.1094-3.7113-1.523-3.6685-3.478.0431-1.9688,1.7939-3.6027,3.7236-3.475,1.7627.1167,3.2186,1.7143,3.2061,3.5179Z"/><path class="b" d="M498.7831,61.5127c.0889,1.9392-1.5907,3.6616-3.5355,3.6254-1.7699-.0329-3.3321-1.544-3.4195-3.3075-.0957-1.932,1.603-3.6825,3.5378-3.6454,1.7616.0337,3.3365,1.5673,3.4172,3.3274Z"/><path class="b" d="M1178.4924,61.5962c.0489,1.855-1.3027,3.3801-3.1337,3.536-1.9683.1676-3.7158-1.3957-3.7704-3.373-.0539-1.9482,1.6467-3.6334,3.6032-3.5708,1.759.0563,3.2531,1.5988,3.3008,3.4077Z"/><path class="b" d="M566.9072,61.609c.0526,1.7546-1.4073,3.3661-3.1885,3.5193-1.9435.1671-3.6917-1.4171-3.7469-3.3953-.0493-1.7657,1.394-3.3763,3.1783-3.5471,1.8713-.1792,3.6989,1.4861,3.7571,3.4232Z"/><path class="b" d="M631.4576,65.1295c-2.007-.0613-3.5345-1.7836-3.3495-3.7766.1663-1.7912,1.7831-3.2314,3.5434-3.1564,1.9498.0831,3.5696,1.8958,3.3901,3.7938-.1673,1.7694-1.7936,3.1938-3.5841,3.1392Z"/><path class="b" d="M1106.9367,58.1922c1.9464-.0072,3.5241,1.7087,3.4162,3.7155-.1013,1.8832-1.5121,3.2119-3.4231,3.2239-2.0105.0126-3.5514-1.6344-3.4367-3.6732.1011-1.7969,1.6431-3.2595,3.4437-3.2662Z"/><path class="b" d="M970.7734,65.1307c-1.8205.0486-3.3909-1.3389-3.5593-3.1446-.1761-1.8896,1.4803-3.7411,3.3933-3.7932,1.8064-.0493,3.346,1.3502,3.4977,3.1792.1699,2.0504-1.2961,3.7043-3.3317,3.7586Z"/><path class="b" d="M993.4125,58.1899c1.9089-.0079,3.6119,1.7934,3.4945,3.6964-.1116,1.8094-1.6421,3.2442-3.4607,3.2443-2.048.0001-3.5464-1.5968-3.4334-3.6589.1009-1.8382,1.5885-3.2743,3.3996-3.2818Z"/><path class="b" d="M1038.7148,65.13c-1.8477-.0566-3.3253-1.514-3.362-3.3163-.0395-1.9376,1.6763-3.6799,3.5704-3.6255,1.9723.0566,3.4612,1.7835,3.2853,3.81-.1654,1.9041-1.5996,3.1898-3.4937,3.1318Z"/><path class="b" d="M453.4079,61.6712c-.0031,1.9271-1.7782,3.5822-3.7141,3.4631-1.8562-.1142-3.184-1.5617-3.1731-3.4592.0106-1.8518,1.4207-3.4081,3.1737-3.503,1.887-.1021,3.7165,1.6217,3.7134,3.499Z"/><path class="b" d="M1061.4122,65.129c-1.8375-.0659-3.2719-1.5243-3.3109-3.3664-.0427-2.0167,1.5808-3.6479,3.5621-3.5788,1.9086.0665,3.5763,1.9549,3.3769,3.8237-.1842,1.7264-1.8787,3.1843-3.6281,3.1216Z"/><path class="b" d="M1155.7285,61.6002c.0323,2.0965-1.473,3.6024-3.526,3.527-1.8672-.0685-3.219-1.4672-3.2523-3.3652-.0352-2.0025,1.6142-3.6719,3.5378-3.5805,1.8099.086,3.2119,1.5651,3.2406,3.4187Z"/><path class="b" d="M544.0918,61.5794c.0595,1.929-1.1942,3.3731-3.0748,3.5418-1.9612.1759-3.7044-1.3771-3.7777-3.3656-.0697-1.8924,1.6866-3.6475,3.5869-3.5843,1.7782.0591,3.2084,1.5518,3.2657,3.4082Z"/><path class="b" d="M677.0771,65.1326c-1.9164.0766-3.6934-1.6532-3.6366-3.5401.0506-1.6788,1.6788-3.3244,3.3686-3.4046,1.7453-.0828,3.4016,1.3705,3.559,3.1227.1792,1.9966-1.3248,3.7433-3.291,3.8219Z"/><path class="b" d="M657.639,61.5928c.0557,1.9386-1.2748,3.419-3.175,3.5325-1.9672.1174-3.3589-1.1211-3.5136-3.1267-.1651-2.1413,1.2946-3.8145,3.3226-3.8086,1.8049.0052,3.3121,1.529,3.366,3.4029Z"/><path class="b" d="M1133.1638,61.5234c.0701,1.8957-1.6617,3.6419-3.5788,3.6085-1.8112-.0315-3.2944-1.4969-3.3529-3.3132-.0642-1.9871,1.5855-3.6962,3.5072-3.6334,1.7141.056,3.3625,1.6628,3.4245,3.338Z"/><path class="b" d="M612.2297,61.8295c-.0875,1.8484-1.5534,3.2858-3.3658,3.3004-1.9549.0157-3.6659-1.7367-3.5479-3.6338.1182-1.9005,2.0091-3.5049,3.8935-3.3034,1.7854.1909,3.1079,1.7835,3.0202,3.6368Z"/><path class="b" d="M586.1284,58.1872c1.8283-.0105,3.3026,1.4599,3.372,3.3631.0771,2.1125-1.4973,3.6985-3.5582,3.5842-1.9252-.1068-3.2006-1.5441-3.135-3.5329.0631-1.9129,1.5134-3.4039,3.3212-3.4144Z"/><path class="b" d="M521.3601,61.5512c.0536,2.0186-1.1871,3.4461-3.1052,3.5726-2.1087.1391-3.65-1.3784-3.589-3.5335.0536-1.8965,1.5293-3.4021,3.3345-3.4022,1.8801-.0002,3.3082,1.4295,3.3597,3.3631Z"/><path class="b" d="M1197.6029,65.1326c-1.9591-.1109-3.4352-1.8813-3.2288-3.8722.1816-1.7512,1.8556-3.1793,3.5989-3.0701,1.8407.1153,3.5216,2.0968,3.302,3.8924-.2088,1.7081-1.9422,3.1478-3.6722,3.0499Z"/><path class="b" d="M1220.5589,58.1837c1.852.0517,3.2173,1.5211,3.2259,3.4715.0096,2.211-1.4878,3.6479-3.6123,3.4661-1.8853-.1613-3.1852-1.6933-3.0766-3.6256.105-1.8671,1.6682-3.3621,3.463-3.312Z"/><path class="b" d="M475.9463,61.7083c-.0062,1.9709-1.3454,3.3771-3.2648,3.4282-2.0823.0554-3.5526-1.5317-3.43-3.7026.1053-1.8654,1.6615-3.3207,3.4782-3.2526,1.7918.0671,3.2226,1.636,3.2166,3.527Z"/><path class="b" d="M401.1126,61.5338c.0997-1.8908,1.6114-3.372,3.4171-3.3482,1.9856.0261,3.4535,1.7688,3.2733,3.8861-.1633,1.9194-1.6689,3.1958-3.5969,3.0493-1.8923-.1437-3.1955-1.6549-3.0936-3.5872Z"/><path class="b" d="M1087.6468,61.7862c-.0517,1.8431-1.4831,3.2919-3.3042,3.3444-1.9755.0569-3.5886-1.5897-3.5118-3.5849.0709-1.8464,1.5274-3.3274,3.31-3.3657,1.9543-.0421,3.562,1.6115,3.506,3.6063Z"/><path class="b" d="M1019.5127,61.5054c.105,1.8772-1.2565,3.4624-3.1054,3.6155-1.9981.1655-3.6939-1.4465-3.6853-3.5031.0076-1.8311,1.5301-3.4026,3.337-3.4446,1.7598-.0409,3.3509,1.4943,3.4537,3.3322Z"/></svg>